<svg width="16" height="15" viewBox="0 0 16 15" fill="none" xmlns="http://www.w3.org/2000/svg">
<path d="M14.5443 9.52997L15.1864 7.12203V5.69492C14.9106 2.50871 12.2057 0 8.94915 0H7.86441V5.69492H3.93756L3.33268 3.02481C3.27937 2.78303 3.14534 2.5666 2.95264 2.41114C2.75995 2.25568 2.52006 2.17045 2.27247 2.16949H0V3.25424H2.27247L3.64451 9.31085C3.15491 9.44055 2.71142 9.70478 2.36428 10.0736C2.01713 10.4424 1.78021 10.9011 1.68035 11.3976C1.58049 11.8941 1.62168 12.4087 1.79926 12.8831C1.97684 13.3574 2.2837 13.7725 2.6851 14.0814C3.08649 14.3903 3.56636 14.5806 4.07036 14.6308C4.57436 14.681 5.08233 14.589 5.53674 14.3653C5.99115 14.1416 6.37383 13.7951 6.64143 13.3651C6.90904 12.9351 7.05086 12.4387 7.05085 11.9322C7.05085 11.8407 7.04633 11.7503 7.03729 11.661H10.5898C10.5809 11.7502 10.5764 11.8406 10.5763 11.9322C10.5761 12.4131 10.7038 12.8854 10.9462 13.3007C11.1887 13.716 11.5373 14.0594 11.9562 14.2956C12.3751 14.5318 12.8493 14.6523 13.3301 14.6449C13.811 14.6374 14.2812 14.5023 14.6926 14.2532C15.104 14.0042 15.4417 13.6502 15.6712 13.2276C15.9008 12.805 16.0138 12.3289 15.9987 11.8483C15.9836 11.3676 15.8409 10.8996 15.5854 10.4922C15.3298 10.0848 14.9705 9.75273 14.5443 9.52997ZM8.94915 1.08475C11.6072 1.08475 13.8015 3.10773 14.0734 5.69492H8.94915V1.08475ZM4.33898 13.5593C4.01717 13.5593 3.70258 13.4639 3.435 13.2851C3.16743 13.1063 2.95887 12.8522 2.83572 12.5549C2.71257 12.2576 2.68035 11.9304 2.74313 11.6148C2.80591 11.2991 2.96088 11.0092 3.18844 10.7817C3.41599 10.5541 3.70592 10.3991 4.02155 10.3363C4.33718 10.2736 4.66434 10.3058 4.96165 10.4289C5.25897 10.5521 5.51309 10.7606 5.69188 11.0282C5.87067 11.2958 5.9661 11.6104 5.9661 11.9322C5.96561 12.3636 5.79402 12.7772 5.48898 13.0822C5.18395 13.3872 4.77037 13.5588 4.33898 13.5593ZM10.9411 10.5763H6.686C6.48213 10.2239 6.2017 9.92179 5.8654 9.69233C5.52911 9.46287 5.14556 9.3119 4.74308 9.25058L4.18332 6.77966H14.1017V6.97966L13.5017 9.22942C13.4307 9.22358 13.3594 9.22051 13.2881 9.22024C12.8124 9.2206 12.3451 9.34609 11.9331 9.5841C11.5212 9.82211 11.1791 10.1643 10.9411 10.5763ZM13.2881 13.5593C12.9663 13.5593 12.6517 13.4639 12.3842 13.2851C12.1166 13.1063 11.908 12.8522 11.7849 12.5549C11.6617 12.2576 11.6295 11.9304 11.6923 11.6148C11.7551 11.2991 11.91 11.0092 12.1376 10.7817C12.3651 10.5541 12.6551 10.3991 12.9707 10.3363C13.2863 10.2736 13.6135 10.3058 13.9108 10.4289C14.2081 10.5521 14.4622 10.7606 14.641 11.0282C14.8198 11.2958 14.9153 11.6104 14.9153 11.9322C14.9148 12.3636 14.7432 12.7772 14.4381 13.0822C14.1331 13.3872 13.7195 13.5588 13.2881 13.5593Z" fill="#979797"/>
</svg>
