<svg width="18" height="15" viewBox="0 0 18 15" fill="none" xmlns="http://www.w3.org/2000/svg">
<path d="M13.8 13.8L16.8592 10.7408C16.9493 10.6509 16.9999 10.5289 17 10.4016V6.2C17 5.88174 16.8736 5.57652 16.6486 5.35147C16.4235 5.12643 16.1183 5 15.8 5V5C15.4818 5 15.1766 5.12643 14.9515 5.35147C14.7265 5.57652 14.6 5.88174 14.6 6.2V9.8" stroke="#979797" stroke-linecap="round" stroke-linejoin="round"/>
<path d="M13.8 10.6002L14.4864 9.91378C14.5225 9.87777 14.5511 9.835 14.5706 9.78791C14.59 9.74082 14.6001 9.69035 14.6 9.63938C14.5999 9.56744 14.5798 9.49695 14.5419 9.43578C14.5041 9.37461 14.4499 9.32517 14.3856 9.29298L14.0312 9.11618C13.731 8.96606 13.3911 8.91417 13.0597 8.96787C12.7284 9.02157 12.4223 9.17812 12.1848 9.41538L11.4688 10.1314C11.1687 10.4314 11.0001 10.8383 11 11.2626V13.8002" stroke="#979797" stroke-linecap="round" stroke-linejoin="round"/>
<path d="M4.2 13.8L1.1408 10.7408C1.05076 10.6509 1.00011 10.5289 1 10.4016V6.2C1 5.88174 1.12643 5.57652 1.35147 5.35147C1.57652 5.12643 1.88174 5 2.2 5V5C2.51826 5 2.82348 5.12643 3.04853 5.35147C3.27357 5.57652 3.4 5.88174 3.4 6.2V9.8" stroke="#979797" stroke-linecap="round" stroke-linejoin="round"/>
<path d="M4.1999 10.6002L3.5135 9.91378C3.47748 9.87775 3.4489 9.83496 3.42941 9.78788C3.40992 9.7408 3.39989 9.69034 3.3999 9.63938V9.63938C3.3999 9.49298 3.4831 9.35938 3.6143 9.29298L3.9687 9.11618C4.26895 8.96606 4.60881 8.91417 4.94018 8.96787C5.27154 9.02157 5.57763 9.17812 5.8151 9.41538L6.5311 10.1314C6.83118 10.4314 6.99981 10.8383 6.9999 11.2626V13.8002" stroke="#979797" stroke-linecap="round" stroke-linejoin="round"/>
<path d="M10.3336 7.4H7.66645V5.5336H5.80005V2.8664H7.66645V1H10.3336V2.8664H12.2V5.5336H10.3336V7.4Z" stroke="#979797" stroke-linecap="round" stroke-linejoin="round"/>
</svg>
