<svg width="220" height="70" viewBox="0 0 220 70" fill="none" xmlns="http://www.w3.org/2000/svg">
<path d="M9.79235 9.79296C11.1771 8.3545 12.8397 7.2123 14.6791 6.43564C16.5186 5.65899 18.4966 5.26406 20.4933 5.27481C22.3464 5.2578 24.1837 5.61603 25.8947 6.32791C27.5191 7.02404 29.0216 7.97597 30.3449 9.14751C30.881 9.60767 31.5762 9.83939 32.2812 9.79296C32.6502 9.77127 33.0112 9.67682 33.3436 9.51503C33.6759 9.35324 33.9729 9.12732 34.2176 8.85026C34.6751 8.29417 34.8948 7.58006 34.829 6.86295C34.8103 6.51388 34.7201 6.17238 34.5637 5.85972C34.4074 5.54705 34.1884 5.26989 33.9203 5.0455C32.1567 3.43835 30.1089 2.17399 27.8819 1.31717C25.5217 0.424824 23.0164 -0.0215305 20.4933 0.000798133C17.7435 -0.0215787 15.0191 0.527917 12.493 1.61442C7.55422 3.71836 3.64481 7.68575 1.61381 12.655C0.0304806 16.4591 -0.399859 20.6446 0.376256 24.6913C1.15237 28.738 3.10072 32.4673 5.9791 35.4156C7.84314 37.2988 10.0555 38.8016 12.493 39.8404C15.0191 40.9269 17.7435 41.4764 20.4933 41.454C23.0164 41.4763 25.5217 41.03 27.8819 40.1376C30.1089 39.2808 32.1567 38.0164 33.9203 36.4093C34.1884 36.1849 34.4074 35.9078 34.5637 35.5951C34.7201 35.2824 34.8103 34.9409 34.829 34.5918C34.8948 33.8747 34.6751 33.1606 34.2176 32.6045C33.9729 32.3275 33.6759 32.1016 33.3436 31.9398C33.0112 31.778 32.6502 31.6835 32.2812 31.6618C31.5762 31.6154 30.881 31.8471 30.3449 32.3073C29.0216 33.4788 27.5191 34.4308 25.8947 35.1269C24.1837 35.8388 22.3464 36.197 20.4933 36.18C18.4489 36.1999 16.4233 35.789 14.5483 34.974C12.7557 34.204 11.1314 33.0903 9.7669 31.6958C8.40394 30.2826 7.32809 28.6185 6.59906 26.7955C5.08146 22.9129 5.08146 18.6013 6.59906 14.7188C7.33943 12.8881 8.42337 11.2161 9.79235 9.79296Z" fill="white"/>
<path d="M46.4778 13.1944C46.1262 13.1868 45.7771 13.254 45.4535 13.3917C45.1299 13.5293 44.8392 13.7342 44.6009 13.9927C44.3531 14.2429 44.1579 14.54 44.0266 14.8667C43.8954 15.1934 43.8307 15.5431 43.8366 15.8951V38.4689C43.8306 38.8222 43.895 39.1732 44.0263 39.5013C44.1575 39.8294 44.3529 40.128 44.6009 40.3797C44.8426 40.6334 45.1341 40.8344 45.457 40.9703C45.7799 41.1062 46.1275 41.1741 46.4778 41.1696C46.8381 41.1824 47.197 41.1186 47.5307 40.9825C47.8645 40.8463 48.1657 40.6409 48.4142 40.3797C48.6622 40.128 48.8575 39.8294 48.9888 39.5013C49.12 39.1732 49.1845 38.8222 49.1785 38.4689V15.8866C49.1843 15.5346 49.1197 15.1849 48.9885 14.8582C48.8572 14.5315 48.6619 14.2344 48.4142 13.9842C48.1657 13.7231 47.8645 13.5176 47.5307 13.3815C47.197 13.2453 46.8381 13.1816 46.4778 13.1944Z" fill="white"/>
<path d="M134.008 5.39151V5.2811C134.008 5.21316 134.008 5.13673 134.008 5.06029C134.008 4.95838 134.008 4.85647 133.932 4.75455C133.841 4.43069 133.684 4.12881 133.473 3.8674C133.261 3.606 132.998 3.39059 132.7 3.23435H132.658L132.556 3.18339H132.445C131.857 2.91646 131.189 2.88307 130.577 3.08997C130.241 3.19856 129.931 3.37323 129.664 3.60369C129.397 3.83415 129.179 4.11573 129.023 4.43182L116.173 28.9844L103.434 4.31293C103.114 3.67731 102.555 3.19466 101.88 2.97107C101.265 2.76192 100.594 2.79534 100.003 3.06449H99.901L99.7991 3.11545C99.5022 3.27434 99.2397 3.49049 99.0269 3.75143C98.8141 4.01236 98.6551 4.3129 98.5591 4.63566C98.5591 4.73757 98.5082 4.83948 98.4912 4.9414C98.4875 5.01495 98.4875 5.08865 98.4912 5.1622C98.4867 5.19887 98.4867 5.23595 98.4912 5.27261C98.4912 5.27261 98.4912 5.35754 98.4912 5.40001V38.3435C98.4852 38.6968 98.5497 39.0478 98.681 39.3759C98.8122 39.704 99.0075 40.0026 99.2556 40.2543C99.4973 40.508 99.7887 40.709 100.112 40.8449C100.435 40.9808 100.782 41.0486 101.132 41.0442C101.493 41.057 101.852 40.9932 102.185 40.8571C102.519 40.7209 102.82 40.5155 103.069 40.2543C103.564 39.7424 103.835 39.0553 103.825 38.3435V16.4491L113.948 35.9825C114.05 36.1855 114.178 36.374 114.33 36.543C114.637 36.8995 115.037 37.1641 115.485 37.3073H115.587H115.681H115.799H115.961H116.691H116.844H116.963H117.065H117.158C117.606 37.1641 118.006 36.8995 118.313 36.543C118.471 36.3767 118.602 36.1878 118.704 35.9825L128.819 16.4491V38.4624C128.813 38.8157 128.877 39.1667 129.009 39.4948C129.14 39.8229 129.335 40.1215 129.583 40.3732C129.832 40.6344 130.133 40.8398 130.467 40.976C130.8 41.1121 131.159 41.1759 131.52 41.1631C131.87 41.1675 132.217 41.0997 132.54 40.9638C132.863 40.8279 133.155 40.6269 133.397 40.3732C133.891 39.8613 134.163 39.1742 134.152 38.4624V5.51891C134.111 5.46946 134.062 5.42652 134.008 5.39151Z" fill="white"/>
<path d="M86.6569 14.0059C86.4088 13.7643 86.1151 13.5745 85.7928 13.4477C85.4705 13.3208 85.1262 13.2594 84.78 13.2671H67.9304V5.62358C67.9368 5.27019 67.8725 4.91907 67.7413 4.5909C67.61 4.26273 67.4144 3.96414 67.166 3.71271C66.9175 3.45156 66.6164 3.24613 66.2826 3.10997C65.9488 2.97382 65.5899 2.91005 65.2297 2.92288C64.8793 2.9184 64.5318 2.98624 64.2089 3.12214C63.8859 3.25803 63.5945 3.45908 63.3527 3.71271C63.1055 3.96456 62.9112 4.26341 62.7814 4.59162C62.6515 4.91983 62.5888 5.27072 62.5969 5.62358V13.2671H58.7412C58.3891 13.2613 58.0395 13.3259 57.7128 13.4571C57.3861 13.5884 57.0889 13.7837 56.8388 14.0314C56.5852 14.2732 56.3841 14.5646 56.2482 14.8875C56.1123 15.2105 56.0445 15.558 56.049 15.9083C56.0361 16.2686 56.0999 16.6275 56.2361 16.9613C56.3722 17.2951 56.5777 17.5962 56.8388 17.8447C57.0889 18.0924 57.3861 18.2877 57.7128 18.419C58.0395 18.5502 58.3891 18.6149 58.7412 18.609H62.5969V38.5416C62.5893 38.8943 62.6522 39.2451 62.782 39.5733C62.9118 39.9014 63.1059 40.2003 63.3527 40.4524C63.5945 40.7061 63.8859 40.9071 64.2089 41.043C64.5318 41.1789 64.8793 41.2467 65.2297 41.2423C65.5899 41.2551 65.9488 41.1913 66.2826 41.0552C66.6164 40.919 66.9175 40.7136 67.166 40.4524C67.414 40.2007 67.6093 39.9021 67.7406 39.574C67.8718 39.2459 67.9364 38.8949 67.9304 38.5416V18.5326H82.0623V38.4651C82.0563 38.8184 82.1208 39.1694 82.2521 39.4975C82.3833 39.8256 82.5786 40.1243 82.8267 40.376C83.0661 40.6326 83.3572 40.8356 83.6806 40.9717C84.0041 41.1078 84.3527 41.174 84.7036 41.1658C85.0624 41.1774 85.4197 41.1131 85.7519 40.977C86.0841 40.8408 86.3838 40.6361 86.6314 40.376C86.8794 40.1243 87.0748 39.8256 87.206 39.4975C87.3373 39.1694 87.4018 38.8184 87.3958 38.4651V15.8319C87.4 15.4937 87.3368 15.1581 87.2099 14.8446C87.0831 14.5311 86.8951 14.246 86.6569 14.0059Z" fill="white"/>
<path d="M166.871 13.1895C166.52 13.1824 166.171 13.2499 165.847 13.3875C165.524 13.5251 165.233 13.7297 164.994 13.9878C164.747 14.238 164.551 14.5351 164.42 14.8618C164.289 15.1885 164.224 15.5382 164.23 15.8902V17.5887C163.763 16.8103 163.169 16.1156 162.472 15.5335C161.766 14.9481 160.987 14.457 160.154 14.0727C159.293 13.6852 158.389 13.4002 157.461 13.2235C156.525 13.0321 155.572 12.9353 154.616 12.9347C152.792 12.9259 150.982 13.2631 149.283 13.9284C147.607 14.5765 146.081 15.5612 144.8 16.8217C143.519 18.0823 142.51 19.592 141.835 21.2576C140.34 25.08 140.34 29.3251 141.835 33.1475C142.526 34.8308 143.552 36.3562 144.85 37.6317C146.139 38.8415 147.65 39.7903 149.3 40.4258C150.993 41.1148 152.805 41.464 154.633 41.4534C155.591 41.4538 156.545 41.3455 157.478 41.1307C158.409 40.926 159.313 40.6124 160.171 40.1965C160.999 39.7909 161.778 39.2892 162.489 38.7018C163.188 38.1217 163.782 37.4266 164.247 36.6465V38.464C164.241 38.8173 164.306 39.1683 164.437 39.4964C164.568 39.8245 164.763 40.1231 165.011 40.3748C165.253 40.6285 165.545 40.8295 165.868 40.9654C166.191 41.1013 166.538 41.1692 166.888 41.1647C167.249 41.1775 167.608 41.1137 167.941 40.9776C168.275 40.8414 168.576 40.636 168.825 40.3748C169.073 40.1231 169.268 39.8245 169.399 39.4964C169.531 39.1683 169.595 38.8173 169.589 38.464V15.8817C169.595 15.5297 169.53 15.18 169.399 14.8533C169.268 14.5266 169.072 14.2295 168.825 13.9793C168.574 13.716 168.27 13.5093 167.933 13.373C167.597 13.2368 167.234 13.1742 166.871 13.1895ZM163.474 30.9564C163.016 32.0443 162.337 33.0249 161.478 33.8354C160.64 34.6145 159.656 35.2206 158.582 35.6189C157.475 36.0357 156.301 36.2459 155.117 36.2389C153.92 36.2474 152.733 36.0164 151.627 35.5594C150.575 35.1261 149.619 34.4881 148.816 33.6825C148 32.8591 147.354 31.8839 146.913 30.812C146.427 29.6332 146.187 28.3672 146.208 27.0922C146.186 25.8253 146.426 24.5675 146.913 23.3978C147.346 22.347 147.986 21.3944 148.796 20.5975C149.606 19.8007 150.569 19.1759 151.627 18.7607C152.739 18.3269 153.924 18.1079 155.117 18.1153C156.239 18.1199 157.35 18.3181 158.404 18.7013C159.479 19.0778 160.473 19.6541 161.334 20.3999C162.22 21.1777 162.93 22.1362 163.415 23.211C163.959 24.4284 164.228 25.7505 164.205 27.0837C164.221 28.4136 163.961 29.7324 163.44 30.9564H163.474Z" fill="white"/>
<path d="M197.247 13.4856C196.709 13.2414 196.136 13.0837 195.549 13.0185C194.986 12.939 194.418 12.8993 193.85 12.8996C192.17 12.8588 190.529 13.4088 189.213 14.4538C187.715 15.8414 186.672 17.6507 186.223 19.6429V15.8806C186.229 15.5294 186.165 15.1805 186.035 14.854C185.906 14.5275 185.713 14.2299 185.468 13.9782C185.22 13.7155 184.919 13.5085 184.585 13.3709C184.251 13.2333 183.892 13.1682 183.531 13.1799C183.18 13.1723 182.831 13.2395 182.507 13.3772C182.183 13.5148 181.893 13.7197 181.654 13.9782C181.407 14.2284 181.211 14.5255 181.08 14.8522C180.949 15.1789 180.884 15.5286 180.89 15.8806V38.4544C180.884 38.8077 180.949 39.1587 181.08 39.4868C181.211 39.8149 181.406 40.1135 181.654 40.3653C181.896 40.6189 182.188 40.8199 182.51 40.9558C182.833 41.0917 183.181 41.1596 183.531 41.1551C183.892 41.1679 184.25 41.1041 184.584 40.968C184.918 40.8318 185.219 40.6264 185.468 40.3653C185.962 39.8533 186.234 39.1662 186.223 38.4544V30.8873C186.217 29.1789 186.364 27.4734 186.665 25.7917C186.911 24.3654 187.366 22.9832 188.015 21.6897C188.557 20.6069 189.352 19.6715 190.334 18.9635C191.332 18.2798 192.521 17.929 193.731 17.9613H194.351C194.556 17.9634 194.761 17.9833 194.963 18.0208C195.782 18.1143 196.612 18.0362 197.4 17.7915C197.744 17.6641 198.045 17.4417 198.267 17.15C198.49 16.8583 198.625 16.5094 198.657 16.1439C198.797 15.5652 198.703 14.9544 198.394 14.4453C198.103 14.03 197.707 13.699 197.247 13.4856Z" fill="white"/>
<path d="M219.32 14.129C219.107 13.919 218.855 13.7538 218.578 13.6429C218.301 13.532 218.004 13.4778 217.706 13.4835H213.842V5.56828C213.848 5.21567 213.784 4.86531 213.655 4.53737C213.525 4.20943 213.332 3.91038 213.086 3.65741C212.837 3.39626 212.536 3.19083 212.203 3.05468C211.869 2.91852 211.51 2.85475 211.15 2.86758C210.799 2.8631 210.452 2.93093 210.129 3.06683C209.806 3.20273 209.514 3.40378 209.273 3.65741C209.024 3.90884 208.829 4.20743 208.697 4.5356C208.566 4.86377 208.502 5.21489 208.508 5.56828V13.4835H205.578C205.28 13.4778 204.983 13.532 204.706 13.6429C204.429 13.7538 204.177 13.919 203.965 14.129C203.747 14.3298 203.575 14.5744 203.46 14.8467C203.344 15.1191 203.287 15.4129 203.294 15.7087C203.283 16.0151 203.337 16.3203 203.453 16.6042C203.569 16.8882 203.743 17.1444 203.965 17.3562C204.397 17.7741 204.977 18.0032 205.578 17.9932H208.508V38.4608C208.502 38.8141 208.567 39.1651 208.698 39.4932C208.829 39.8213 209.025 40.1199 209.273 40.3717C209.514 40.6253 209.806 40.8263 210.129 40.9622C210.452 41.0981 210.799 41.166 211.15 41.1615C211.51 41.1743 211.869 41.1105 212.203 40.9744C212.536 40.8382 212.837 40.6328 213.086 40.3717C213.581 39.8597 213.852 39.1726 213.842 38.4608V17.9932H217.715C218.316 18.0032 218.896 17.7741 219.328 17.3562C219.545 17.1535 219.717 16.9073 219.833 16.6336C219.948 16.36 220.005 16.0651 219.999 15.7681C220.009 15.4623 219.953 15.1581 219.836 14.8755C219.719 14.5929 219.543 14.3384 219.32 14.129Z" fill="white"/>
<path d="M84.7529 2.87229C84.0622 2.87061 83.3865 3.0739 82.8114 3.45642C82.2362 3.83894 81.7875 4.3835 81.5221 5.02116C81.2566 5.65882 81.1862 6.36091 81.3199 7.03857C81.4537 7.71622 81.7854 8.33897 82.2733 8.82798C82.7611 9.31699 83.383 9.65028 84.0603 9.78565C84.7377 9.92102 85.4399 9.85239 86.0782 9.58845C86.7165 9.32451 87.2622 8.87713 87.6461 8.30294C88.03 7.72874 88.2349 7.05355 88.2349 6.36282C88.2349 5.43855 87.8684 4.552 87.2156 3.89764C86.5628 3.24329 85.6772 2.87454 84.7529 2.87229Z" fill="white"/>
<path d="M46.4717 2.87228C45.7814 2.87228 45.1065 3.077 44.5325 3.46054C43.9585 3.84409 43.5111 4.38923 43.2469 5.02704C42.9827 5.66485 42.9136 6.36668 43.0483 7.04378C43.183 7.72087 43.5154 8.34283 44.0036 8.83098C44.4917 9.31914 45.1136 9.65159 45.7907 9.78627C46.4678 9.92095 47.1697 9.85183 47.8075 9.58764C48.4453 9.32345 48.9905 8.87606 49.374 8.30205C49.7575 7.72803 49.9622 7.05317 49.9622 6.36281C49.9622 5.43707 49.5945 4.54923 48.9399 3.89463C48.2853 3.24003 47.3975 2.87228 46.4717 2.87228Z" fill="white"/>
<path d="M183.757 45.797C183.197 46.3066 182.628 46.8161 182.059 47.3172L181.209 48.0646L180.776 48.4382L180.326 48.7949L178.509 50.2047L177.6 50.9011L176.657 51.5636C176.029 51.9967 175.4 52.4129 174.763 52.863C174.44 53.0753 174.126 53.3046 173.804 53.4999L172.818 54.1114C171.519 54.9607 170.194 55.725 168.844 56.4554C163.423 59.4277 157.736 61.8871 151.858 63.8017C140.01 67.6116 127.623 69.4815 115.178 69.339C108.96 69.3044 102.754 68.7705 96.6212 67.7423C90.4918 66.7285 84.46 65.1942 78.5911 63.1562C72.7406 61.1279 67.0959 58.5487 61.733 55.4533L60.7308 54.8758L59.7541 54.2558C59.1002 53.8481 58.4548 53.4065 57.8093 53.0158C57.4866 52.8035 57.1638 52.6082 56.8411 52.3874L55.8984 51.7165C55.27 51.2748 54.65 50.8247 54.03 50.3746C53.41 49.9245 52.807 49.4489 52.2126 48.9648L50.4291 47.521C50.1318 47.2832 49.8516 47.02 49.5798 46.7652L48.7305 45.9923C48.17 45.4743 47.6095 44.9562 47.032 44.4297C47.7284 44.7524 48.4248 45.0751 49.1042 45.4063C49.7836 45.7375 50.4545 46.0773 51.151 46.383L53.2062 47.3002C53.8941 47.606 54.5651 47.9372 55.2615 48.2089C58.0301 49.3724 60.7818 50.4765 63.5844 51.4617C69.1429 53.4364 74.8149 55.0756 80.5699 56.3705C91.9607 58.9581 103.599 60.2993 115.28 60.3706C126.974 60.4806 138.647 59.3418 150.1 56.9735C155.836 55.7866 161.496 54.2608 167.052 52.4044L168.105 52.0647L168.64 51.8948L169.158 51.6995L171.256 50.9436L172.309 50.5699C172.665 50.4425 173.005 50.2982 173.353 50.1623C174.041 49.882 174.738 49.6187 175.443 49.313L176.47 49.0073L177.506 48.5656L179.587 47.7164L180.105 47.4955L180.623 47.2578L181.651 46.7906L183.757 45.797Z" fill="white"/>
</svg>
