<svg width="127" height="40" viewBox="0 0 127 40" fill="none" xmlns="http://www.w3.org/2000/svg">
<path d="M5.64839 5.64874C6.44714 4.81901 7.40613 4.16017 8.46715 3.71218C9.52818 3.2642 10.6691 3.03639 11.8209 3.04259C12.8897 3.03279 13.9495 3.23942 14.9365 3.65004C15.8735 4.05158 16.7401 4.60067 17.5034 5.27643C17.8127 5.54186 18.2136 5.67552 18.6203 5.64874C18.8331 5.63623 19.0414 5.58174 19.2331 5.48842C19.4248 5.3951 19.5961 5.26478 19.7372 5.10497C20.0012 4.78421 20.1279 4.3723 20.0899 3.95866C20.0792 3.75731 20.0271 3.56033 19.9369 3.37998C19.8467 3.19963 19.7204 3.03976 19.5658 2.91033C18.5485 1.9833 17.3673 1.25399 16.0828 0.759767C14.7214 0.245045 13.2762 -0.0124192 11.8209 0.000460376C10.2348 -0.0124469 8.66328 0.304511 7.20619 0.931223C4.3574 2.14481 2.10239 4.43327 0.930871 7.29962C0.0175817 9.49387 -0.230645 11.9082 0.217031 14.2423C0.664706 16.5765 1.78855 18.7277 3.44884 20.4283C4.52405 21.5145 5.80017 22.3814 7.20619 22.9806C8.66328 23.6073 10.2348 23.9242 11.8209 23.9113C13.2762 23.9242 14.7214 23.6667 16.0828 23.152C17.3673 22.6578 18.5485 21.9285 19.5658 21.0015C19.7204 20.872 19.8467 20.7122 19.9369 20.5318C20.0271 20.3515 20.0792 20.1545 20.0899 19.9531C20.1279 19.5395 20.0012 19.1276 19.7372 18.8068C19.5961 18.647 19.4248 18.5167 19.2331 18.4234C19.0414 18.3301 18.8331 18.2756 18.6203 18.2631C18.2136 18.2363 17.8127 18.3699 17.5034 18.6354C16.7401 19.3111 15.8735 19.8602 14.9365 20.2618C13.9495 20.6724 12.8897 20.879 11.8209 20.8692C10.6416 20.8807 9.47323 20.6437 8.39171 20.1736C7.35772 19.7294 6.42075 19.087 5.63371 18.2827C4.84753 17.4675 4.22696 16.5076 3.80645 15.4561C2.93107 13.2166 2.93107 10.7295 3.80645 8.49002C4.2335 7.43407 4.85874 6.46963 5.64839 5.64874Z" fill="#FF0000"/>
<path d="M26.8091 7.60786C26.6063 7.60347 26.4049 7.64226 26.2183 7.72165C26.0316 7.80104 25.864 7.91922 25.7265 8.06835C25.5836 8.21263 25.471 8.38404 25.3953 8.57248C25.3195 8.76093 25.2823 8.96261 25.2856 9.16567V22.1866C25.2822 22.3904 25.3194 22.5928 25.3951 22.7821C25.4708 22.9714 25.5834 23.1436 25.7265 23.2888C25.8659 23.4351 26.034 23.5511 26.2203 23.6295C26.4066 23.7079 26.607 23.747 26.8091 23.7444C27.0169 23.7518 27.2239 23.715 27.4165 23.6365C27.609 23.5579 27.7827 23.4394 27.9261 23.2888C28.0691 23.1436 28.1818 22.9714 28.2575 22.7821C28.3332 22.5928 28.3704 22.3904 28.3669 22.1866V9.16077C28.3703 8.95771 28.333 8.75603 28.2573 8.56759C28.1816 8.37914 28.069 8.20774 27.9261 8.06345C27.7827 7.91282 27.609 7.79432 27.4165 7.71578C27.2239 7.63725 27.0169 7.60046 26.8091 7.60786Z" fill="#FF0000"/>
<path d="M77.2979 3.10974V3.04605C77.2979 3.00686 77.2979 2.96277 77.2979 2.91869C77.2979 2.8599 77.2979 2.80112 77.2538 2.74233C77.2013 2.55552 77.1113 2.38139 76.9892 2.23061C76.867 2.07983 76.7154 1.95557 76.5435 1.86545H76.519L76.4602 1.83606H76.3965C76.0571 1.68209 75.6719 1.66283 75.3188 1.78217C75.1253 1.84481 74.9463 1.94556 74.7923 2.07849C74.6383 2.21143 74.5125 2.37385 74.4224 2.55617L67.0105 16.7185L59.6624 2.48759C59.478 2.12096 59.1555 1.84256 58.7659 1.71359C58.4113 1.59295 58.0241 1.61222 57.6833 1.76748H57.6245L57.5657 1.79687C57.3944 1.88852 57.2431 2.0132 57.1203 2.16371C56.9975 2.31422 56.9058 2.48758 56.8505 2.67375C56.8505 2.73253 56.8211 2.79132 56.8113 2.8501C56.8092 2.89253 56.8092 2.93504 56.8113 2.97747C56.8087 2.99862 56.8087 3.02001 56.8113 3.04116C56.8113 3.04116 56.8113 3.09014 56.8113 3.11464V22.1169C56.8078 22.3208 56.845 22.5232 56.9207 22.7125C56.9965 22.9017 57.1091 23.074 57.2522 23.2192C57.3916 23.3655 57.5597 23.4814 57.746 23.5598C57.9323 23.6382 58.1327 23.6773 58.3348 23.6748C58.5426 23.6822 58.7496 23.6454 58.9421 23.5668C59.1347 23.4883 59.3084 23.3698 59.4517 23.2192C59.7371 22.9239 59.8938 22.5275 59.8877 22.1169V9.48793L65.727 20.7551C65.7858 20.8722 65.8599 20.9809 65.9475 21.0784C66.1246 21.2841 66.3552 21.4367 66.6137 21.5193H66.6725H66.7264H66.795H66.8881H67.3093H67.3975H67.4661H67.5249H67.5788C67.8373 21.4367 68.0679 21.2841 68.245 21.0784C68.3359 20.9825 68.4118 20.8735 68.4703 20.7551L74.3048 9.48793V22.1855C74.3013 22.3893 74.3385 22.5918 74.4142 22.781C74.4899 22.9703 74.6026 23.1426 74.7457 23.2878C74.889 23.4384 75.0627 23.5569 75.2552 23.6354C75.4478 23.714 75.6548 23.7507 75.8626 23.7433C76.0647 23.7459 76.2651 23.7068 76.4514 23.6284C76.6377 23.55 76.8058 23.434 76.9452 23.2878C77.2306 22.9924 77.3873 22.5961 77.3812 22.1855V3.18322C77.3573 3.1547 77.3292 3.12993 77.2979 3.10974Z" fill="#FF0000"/>
<path d="M49.9854 8.0823C49.8423 7.94292 49.6729 7.83344 49.487 7.76027C49.3011 7.68709 49.1025 7.65168 48.9028 7.65611H39.1836V3.24722C39.1874 3.04337 39.1503 2.84084 39.0746 2.65155C38.9989 2.46226 38.886 2.29002 38.7427 2.14499C38.5994 1.99436 38.4257 1.87586 38.2332 1.79733C38.0407 1.71879 37.8336 1.68201 37.6258 1.68941C37.4238 1.68682 37.2233 1.72595 37.037 1.80434C36.8507 1.88273 36.6826 1.9987 36.5432 2.14499C36.4006 2.29027 36.2885 2.46265 36.2136 2.65196C36.1387 2.84128 36.1025 3.04368 36.1072 3.24722V7.65611H33.8832C33.6801 7.65275 33.4784 7.69002 33.29 7.76574C33.1016 7.84145 32.9301 7.95408 32.7859 8.097C32.6396 8.23643 32.5236 8.40454 32.4452 8.59082C32.3668 8.77709 32.3277 8.97754 32.3303 9.17962C32.3229 9.38743 32.3596 9.59444 32.4382 9.78698C32.5167 9.97952 32.6352 10.1532 32.7859 10.2965C32.9301 10.4395 33.1016 10.5521 33.29 10.6278C33.4784 10.7035 33.6801 10.7408 33.8832 10.7374H36.1072V22.2348C36.1028 22.4383 36.1391 22.6407 36.214 22.8299C36.2889 23.0192 36.4008 23.1916 36.5432 23.3371C36.6826 23.4834 36.8507 23.5993 37.037 23.6777C37.2233 23.7561 37.4238 23.7952 37.6258 23.7926C37.8336 23.8 38.0407 23.7633 38.2332 23.6847C38.4257 23.6062 38.5994 23.4877 38.7427 23.3371C38.8858 23.1919 38.9985 23.0196 39.0742 22.8303C39.1499 22.6411 39.1871 22.4386 39.1836 22.2348V10.6933H47.3352V22.1907C47.3317 22.3946 47.3689 22.597 47.4446 22.7863C47.5203 22.9755 47.633 23.1478 47.7761 23.293C47.9142 23.441 48.0821 23.5581 48.2687 23.6366C48.4553 23.7151 48.6563 23.7533 48.8587 23.7486C49.0657 23.7553 49.2718 23.7181 49.4634 23.6396C49.655 23.5611 49.8279 23.443 49.9707 23.293C50.1138 23.1478 50.2265 22.9755 50.3022 22.7863C50.3779 22.597 50.4151 22.3946 50.4116 22.1907V9.13554C50.414 8.94048 50.3776 8.74689 50.3044 8.56607C50.2312 8.38524 50.1228 8.22079 49.9854 8.0823Z" fill="#FF0000"/>
<path d="M96.2537 7.608C96.051 7.60392 95.8497 7.64285 95.6631 7.72222C95.4765 7.80159 95.3088 7.9196 95.1711 8.06848C95.0282 8.21277 94.9156 8.38417 94.8398 8.57262C94.7641 8.76106 94.7269 8.96275 94.7302 9.16581V10.1456C94.4608 9.69653 94.118 9.29582 93.7162 8.96006C93.3088 8.62237 92.8593 8.33913 92.3788 8.11747C91.8822 7.89395 91.3609 7.72953 90.8259 7.62759C90.2858 7.51719 89.7361 7.46139 89.1848 7.46103C88.1323 7.45597 87.0884 7.65045 86.1084 8.03419C85.1415 8.40803 84.2614 8.97603 83.5225 9.70314C82.7836 10.4303 82.2015 11.3011 81.8122 12.2618C80.95 14.4666 80.95 16.9153 81.8122 19.1201C82.211 20.091 82.8026 20.971 83.5512 21.7066C84.2949 22.4045 85.1666 22.9518 86.1182 23.3183C87.0949 23.7158 88.1402 23.9172 89.1946 23.9111C89.7469 23.9113 90.2975 23.8488 90.8357 23.7249C91.3727 23.6068 91.8939 23.426 92.3886 23.1861C92.8667 22.9521 93.3156 22.6627 93.726 22.3239C94.129 21.9893 94.4719 21.5884 94.74 21.1384V22.1867C94.7365 22.3905 94.7738 22.593 94.8495 22.7822C94.9252 22.9715 95.0378 23.1438 95.1809 23.2889C95.3203 23.4352 95.4885 23.5512 95.6747 23.6296C95.861 23.708 96.0615 23.7471 96.2635 23.7445C96.4714 23.7519 96.6784 23.7151 96.8709 23.6366C97.0634 23.5581 97.2371 23.4396 97.3805 23.2889C97.5235 23.1438 97.6362 22.9715 97.7119 22.7822C97.7876 22.593 97.8248 22.3905 97.8214 22.1867V9.16091C97.8247 8.95785 97.7874 8.75617 97.7117 8.56772C97.636 8.37928 97.5234 8.20787 97.3805 8.06358C97.236 7.91168 97.0607 7.79244 96.8664 7.71387C96.6721 7.63529 96.4632 7.59919 96.2537 7.608ZM94.2942 17.8562C94.0301 18.4838 93.638 19.0494 93.143 19.5169C92.6593 19.9663 92.0916 20.3159 91.4725 20.5456C90.8338 20.7861 90.1563 20.9073 89.4738 20.9033C88.7833 20.9082 88.0987 20.7749 87.4604 20.5113C86.8536 20.2614 86.3025 19.8934 85.839 19.4287C85.3686 18.9537 84.9958 18.3912 84.7416 17.7729C84.4611 17.093 84.3227 16.3628 84.335 15.6273C84.3222 14.8965 84.4606 14.171 84.7416 13.4963C84.991 12.8902 85.3604 12.3407 85.8277 11.8811C86.2949 11.4214 86.8503 11.061 87.4604 10.8216C88.102 10.5713 88.7852 10.445 89.4738 10.4493C90.1205 10.4519 90.7619 10.5663 91.3697 10.7873C91.9897 11.0045 92.5632 11.3369 93.0597 11.7671C93.5709 12.2157 93.9801 12.7686 94.2599 13.3885C94.5737 14.0908 94.7292 14.8534 94.7155 15.6224C94.7251 16.3895 94.575 17.1502 94.2747 17.8562H94.2942Z" fill="#FF0000"/>
<path d="M113.775 7.77723C113.465 7.63634 113.134 7.5454 112.795 7.50779C112.471 7.46193 112.143 7.43901 111.816 7.43921C110.847 7.41565 109.9 7.73291 109.141 8.33569C108.277 9.13609 107.675 10.1797 107.416 11.3288V9.15868C107.42 8.95607 107.383 8.75483 107.308 8.56652C107.233 8.3782 107.122 8.20653 106.981 8.06136C106.838 7.90984 106.664 7.79043 106.472 7.71104C106.279 7.63165 106.072 7.5941 105.864 7.60087C105.661 7.59648 105.459 7.63527 105.273 7.71466C105.086 7.79405 104.918 7.91223 104.781 8.06136C104.638 8.20565 104.525 8.37705 104.45 8.5655C104.374 8.75394 104.337 8.95562 104.34 9.15868V22.1796C104.337 22.3834 104.374 22.5859 104.449 22.7751C104.525 22.9644 104.638 23.1366 104.781 23.2818C104.92 23.4281 105.088 23.5441 105.275 23.6225C105.461 23.7009 105.661 23.74 105.864 23.7374C106.071 23.7448 106.278 23.708 106.471 23.6295C106.663 23.551 106.837 23.4325 106.981 23.2818C107.266 22.9865 107.423 22.5902 107.416 22.1796V17.8148C107.413 16.8294 107.498 15.8456 107.671 14.8755C107.813 14.0528 108.076 13.2556 108.45 12.5094C108.762 11.8849 109.221 11.3453 109.787 10.9369C110.363 10.5426 111.049 10.3402 111.747 10.3589H112.105C112.223 10.3601 112.341 10.3716 112.457 10.3932C112.93 10.4471 113.409 10.4021 113.863 10.2609C114.062 10.1874 114.235 10.0591 114.364 9.89087C114.492 9.72262 114.57 9.52136 114.588 9.31054C114.669 8.97673 114.615 8.62442 114.436 8.33079C114.269 8.09125 114.04 7.90029 113.775 7.77723Z" fill="#FF0000"/>
<path d="M126.507 8.15148C126.385 8.03038 126.239 7.93504 126.079 7.87109C125.92 7.80714 125.749 7.77589 125.576 7.77917H123.347V3.21352C123.351 3.01013 123.314 2.80804 123.24 2.61888C123.165 2.42972 123.053 2.25722 122.911 2.1113C122.768 1.96067 122.594 1.84217 122.402 1.76364C122.209 1.6851 122.002 1.64832 121.795 1.65572C121.592 1.65313 121.392 1.69226 121.206 1.77065C121.019 1.84904 120.851 1.965 120.712 2.1113C120.569 2.25633 120.456 2.42856 120.38 2.61786C120.304 2.80715 120.267 3.00968 120.271 3.21352V7.77917H118.581C118.409 7.77589 118.238 7.80714 118.078 7.87109C117.918 7.93504 117.773 8.03038 117.65 8.15148C117.525 8.2673 117.426 8.40841 117.359 8.56549C117.292 8.72257 117.26 8.89203 117.263 9.06265C117.257 9.23939 117.288 9.41544 117.355 9.57923C117.422 9.74301 117.522 9.89084 117.65 10.013C117.899 10.254 118.234 10.3862 118.581 10.3804H120.271V22.1864C120.268 22.3902 120.305 22.5927 120.38 22.782C120.456 22.9712 120.569 23.1435 120.712 23.2887C120.851 23.435 121.019 23.5509 121.206 23.6293C121.392 23.7077 121.592 23.7468 121.795 23.7443C122.002 23.7517 122.209 23.7149 122.402 23.6363C122.594 23.5578 122.768 23.4393 122.911 23.2887C123.197 22.9934 123.354 22.597 123.347 22.1864V10.3804H125.581C125.928 10.3862 126.263 10.254 126.512 10.013C126.637 9.89606 126.736 9.75404 126.803 9.5962C126.87 9.43837 126.903 9.26825 126.899 9.09694C126.905 8.92057 126.872 8.74506 126.805 8.58205C126.737 8.41905 126.636 8.27228 126.507 8.15148Z" fill="#FF0000"/>
<path d="M48.8865 1.65479C48.488 1.65382 48.0983 1.77108 47.7665 1.99172C47.4348 2.21237 47.176 2.52648 47.0228 2.89429C46.8697 3.2621 46.8291 3.66708 46.9063 4.05796C46.9834 4.44885 47.1748 4.80806 47.4561 5.09013C47.7375 5.3722 48.0963 5.56444 48.487 5.64253C48.8777 5.72061 49.2827 5.68102 49.6509 5.52878C50.0191 5.37654 50.3338 5.11848 50.5553 4.78727C50.7767 4.45607 50.8949 4.0666 50.8949 3.66818C50.8949 3.13505 50.6835 2.62367 50.307 2.24623C49.9304 1.86879 49.4196 1.65609 48.8865 1.65479Z" fill="#FF0000"/>
<path d="M26.8059 1.65479C26.4077 1.65479 26.0184 1.77287 25.6873 1.9941C25.3562 2.21534 25.0981 2.52979 24.9457 2.89769C24.7934 3.26559 24.7535 3.67041 24.8312 4.06097C24.9089 4.45153 25.1006 4.81028 25.3822 5.09186C25.6638 5.37344 26.0225 5.5652 26.4131 5.64289C26.8036 5.72057 27.2084 5.6807 27.5763 5.52831C27.9442 5.37592 28.2587 5.11786 28.4799 4.78676C28.7012 4.45566 28.8192 4.06639 28.8192 3.66818C28.8192 3.13419 28.6071 2.62208 28.2295 2.24449C27.852 1.86691 27.3398 1.65479 26.8059 1.65479Z" fill="#FF0000"/>
<path d="M105.995 26.4161C105.672 26.7101 105.343 27.004 105.015 27.293L104.525 27.7241L104.275 27.9397L104.016 28.1454L102.967 28.9586L102.443 29.3603L101.899 29.7424C101.537 29.9922 101.174 30.2323 100.807 30.4919C100.621 30.6144 100.44 30.7466 100.254 30.8593L99.6853 31.212C98.9357 31.7019 98.1715 32.1428 97.3926 32.5641C94.2659 34.2785 90.9858 35.6972 87.5951 36.8015C80.7607 38.9992 73.6159 40.0778 66.4373 39.9955C62.8505 39.9756 59.271 39.6676 55.7335 39.0746C52.198 38.4898 48.7187 37.6048 45.3334 36.4292C41.9588 35.2592 38.7028 33.7715 35.6094 31.986L35.0313 31.6529L34.468 31.2953C34.0908 31.0602 33.7185 30.8054 33.3462 30.5801C33.16 30.4576 32.9739 30.345 32.7877 30.2176L32.244 29.8306C31.8814 29.5758 31.5238 29.3162 31.1662 29.0566C30.8086 28.7969 30.4608 28.5226 30.1179 28.2434L29.0891 27.4106C28.9177 27.2734 28.756 27.1216 28.5993 26.9746L28.1094 26.5288C27.7861 26.23 27.4628 25.9312 27.1296 25.6274C27.5313 25.8136 27.933 25.9997 28.3249 26.1908C28.7168 26.3818 29.1038 26.5778 29.5055 26.7542L30.691 27.2832C31.0878 27.4596 31.4748 27.6506 31.8765 27.8074C33.4735 28.4785 35.0607 29.1154 36.6773 29.6836C39.8836 30.8227 43.1553 31.7682 46.4749 32.5151C53.0452 34.0077 59.7585 34.7813 66.4961 34.8224C73.2418 34.8859 79.9749 34.229 86.5811 32.8629C89.8896 32.1783 93.1546 31.2982 96.359 30.2274L96.9664 30.0314L97.2751 29.9335L97.5739 29.8208L98.7839 29.3848L99.3913 29.1692C99.5971 29.0958 99.793 29.0125 99.9939 28.9341C100.391 28.7724 100.792 28.6206 101.199 28.4442L101.792 28.2679L102.389 28.0131L103.59 27.5233L103.888 27.3959L104.187 27.2587L104.78 26.9893L105.995 26.4161Z" fill="#FF0000"/>
</svg>
