<svg width="22" height="30" viewBox="0 0 22 30" fill="none" xmlns="http://www.w3.org/2000/svg">
<path d="M11 0.916669C10.3191 0.405961 9.50935 0.0949627 8.66161 0.018522C7.81387 -0.0579187 6.96159 0.103218 6.20027 0.483877C5.43895 0.864537 4.79868 1.44968 4.35118 2.17373C3.90369 2.89779 3.66667 3.73216 3.66667 4.58334V7.33334H1.83333C1.3471 7.33334 0.880788 7.52649 0.536971 7.87031C0.193155 8.21412 0 8.68044 0 9.16667V23.8333C0 25.292 0.579463 26.691 1.61091 27.7224C2.64236 28.7539 4.04131 29.3333 5.5 29.3333H17.4167C18.6322 29.3333 19.798 28.8505 20.6576 27.9909C21.5171 27.1314 22 25.9656 22 24.75V9.16667C22 8.68044 21.8068 8.21412 21.463 7.87031C21.1192 7.52649 20.6529 7.33334 20.1667 7.33334H18.3333V4.58334C18.3333 3.73216 18.0963 2.89779 17.6488 2.17373C17.2013 1.44968 16.561 0.864537 15.7997 0.483877C15.0384 0.103218 14.1861 -0.0579187 13.3384 0.018522C12.4907 0.0949627 11.6809 0.405961 11 0.916669ZM5.5 4.58334C5.5 3.85399 5.78973 3.15452 6.30546 2.63879C6.82118 2.12307 7.52065 1.83334 8.25 1.83334C8.97935 1.83334 9.67882 2.12307 10.1945 2.63879C10.7103 3.15452 11 3.85399 11 4.58334V7.33334H5.5V4.58334ZM12.2228 2.29534C12.637 2.01877 13.1185 1.85987 13.6159 1.83558C14.1133 1.8113 14.608 1.92255 15.0471 2.15745C15.4863 2.39236 15.8534 2.74211 16.1092 3.16936C16.3651 3.59661 16.5002 4.08532 16.5 4.58334V7.33334H12.8333V4.58334C12.8333 3.751 12.6115 2.97 12.2228 2.29534ZM5.5 27.5C4.52754 27.5 3.59491 27.1137 2.90727 26.4261C2.21964 25.7384 1.83333 24.8058 1.83333 23.8333V9.16667H12.8333V24.75C12.8333 25.7822 13.1743 26.7337 13.75 27.5H5.5ZM20.1667 24.75C20.1667 25.4793 19.8769 26.1788 19.3612 26.6945C18.8455 27.2103 18.146 27.5 17.4167 27.5C16.6873 27.5 15.9878 27.2103 15.4721 26.6945C14.9564 26.1788 14.6667 25.4793 14.6667 24.75V9.16667H20.1667V24.75Z" fill="#FF0000"/>
</svg>
