<svg width="18" height="19" viewBox="0 0 18 19" fill="none" xmlns="http://www.w3.org/2000/svg">
<path d="M16.7648 7.03464C16.9153 6.87477 17 6.65715 17 6.4301C16.9976 5.95676 16.6396 5.57393 16.1977 5.57223H16.1949C15.9834 5.57253 15.7809 5.66368 15.6326 5.82525L14.7257 6.79656C14.5095 6.74244 14.2883 6.71464 14.0663 6.71362V3.93255L15.0979 1.99871C15.1005 1.99378 15.1004 1.98816 15.1027 1.98312C15.1101 1.96566 15.1157 1.94749 15.1195 1.9288C15.1248 1.91073 15.1283 1.89218 15.13 1.87336C15.1303 1.86764 15.1331 1.86281 15.1331 1.85699C15.1315 1.83868 15.1288 1.8205 15.1251 1.80256C15.1235 1.79388 15.1236 1.78524 15.1213 1.77676C14.9991 1.02468 13.2104 1 12.9994 1C12.7885 1 10.9998 1.02468 10.8776 1.7768C10.8753 1.78527 10.8754 1.79395 10.8738 1.8026C10.8701 1.82053 10.8674 1.83871 10.8658 1.85702C10.8658 1.86284 10.8686 1.86767 10.8689 1.87339C10.8706 1.89221 10.8741 1.9108 10.8793 1.92884C10.8832 1.94752 10.8888 1.96573 10.8961 1.98316C10.8985 1.98823 10.8983 1.99381 10.901 1.99875L11.9326 3.93259V6.71355H10.8658V4.8198C11.0583 4.521 11.1521 4.16199 11.1325 3.79958C11.1325 2.99974 10.3245 2.28413 10.2323 2.20521C10.2257 2.19952 10.2176 2.19816 10.2107 2.19326C10.1815 2.17348 10.1495 2.15929 10.1158 2.15129C10.0483 2.13839 9.97876 2.15334 9.92109 2.19306C9.91403 2.19799 9.9058 2.19942 9.8991 2.20517C9.80688 2.28413 8.99884 2.9997 8.99884 3.79954C8.97927 4.16192 9.07313 4.52093 9.26553 4.81973V6.71351H8.46543V4.14245C8.46419 4.13337 8.46248 4.12435 8.46038 4.11546C8.46089 4.10614 8.46092 4.09681 8.46051 4.08749L8.18285 2.57538C8.12299 2.31831 7.90593 2.13904 7.6586 2.14244C7.41126 2.14585 7.19855 2.33097 7.14482 2.58961L6.87016 4.08745C6.86974 4.09678 6.86977 4.1061 6.87028 4.11543C6.86815 4.12431 6.86647 4.13333 6.86523 4.14242V6.71351H6.33182V5.5708C6.33147 5.25539 6.09287 4.99981 5.79841 4.99944V4.34864C5.96285 4.24739 6.0645 4.05995 6.0651 3.85676V1.57136C6.06481 1.25595 5.82618 1.00037 5.53175 1H4.19824C3.90378 1.00037 3.66518 1.25595 3.66483 1.57136V3.85679C3.66547 4.05998 3.76708 4.24742 3.93152 4.34868V4.99951C3.63706 4.99988 3.39846 5.25546 3.39811 5.57087V6.76743C2.00705 7.04288 0.998191 8.34328 1 9.85855L1.00547 17.5559C1.0015 17.7101 1.05593 17.8594 1.15637 17.97C1.25681 18.0805 1.39471 18.1429 1.53875 18.1429H16.459C16.6017 18.1429 16.7385 18.0817 16.8387 17.9729C16.939 17.8641 16.9943 17.7168 16.9924 17.5639L16.9978 9.85849C16.9999 9.04152 16.7029 8.25622 16.1704 7.67131L16.7648 7.03464ZM16.0111 6.22782C16.0599 6.17418 16.1268 6.14382 16.1968 6.14359H16.1975C16.306 6.14216 16.4043 6.21142 16.4461 6.3186C16.4878 6.42578 16.4646 6.54939 16.3874 6.63094L15.7645 7.29818C15.6148 7.18355 15.4553 7.08444 15.2881 7.00214L16.0111 6.22782ZM11.4419 1.86117C11.614 1.74212 12.1514 1.57136 12.9994 1.57136C13.8475 1.57136 14.3848 1.74212 14.557 1.86117L13.6448 3.57109H12.3541L11.4419 1.86117ZM12.466 4.71381V4.14245H13.5328V4.71381H12.466ZM13.5328 5.28517V6.71355H12.466V5.28517H13.5328ZM9.53228 3.79958C9.53228 3.45108 9.83803 3.05256 10.0657 2.81325C10.2934 3.05256 10.5991 3.45108 10.5991 3.79958C10.6102 4.01761 10.566 4.23483 10.4712 4.42812H9.66018C9.56539 4.23479 9.52119 4.01761 9.53228 3.79958ZM9.799 5.57083V4.99947H10.3324V5.57083H9.799ZM10.3324 6.14219V6.71355H9.79897V6.14219H10.3324ZM7.66238 2.69954L7.87457 3.85676H7.45482L7.66238 2.69954ZM7.39867 4.42812H7.93208V6.71355H7.39867V4.42812ZM4.19821 1.57136H5.53172L5.53197 3.85679H4.19818V1.57136H4.19821ZM3.93152 5.57083C4.22598 5.57046 4.46458 5.31488 4.46493 4.99947V4.42812H5.26503V4.99947C5.26538 5.31488 5.50398 5.57046 5.79844 5.57083V6.71355H3.93371L3.93149 6.71368V5.57083H3.93152ZM16.4644 9.85794L16.459 17.5715L1.53875 17.5634L1.53341 9.85791C1.5329 9.17566 1.78558 8.52119 2.2358 8.03859C2.686 7.556 3.29684 7.28484 3.93374 7.28487H14.064C14.701 7.28487 15.3118 7.556 15.762 8.03859C16.2122 8.52122 16.4649 9.17569 16.4644 9.85794Z" fill="#979797" stroke="#979797" stroke-width="0.2"/>
<path d="M11.032 9.00146H11.0302C10.57 9.00252 10.1311 9.20932 9.81941 9.57197L8.99897 10.5116L8.1779 9.57116C7.86622 9.20895 7.42759 9.00249 6.96771 9.00146H6.9659C6.50684 9.00283 6.0692 9.20956 5.75869 9.5717C5.10317 10.3398 5.10323 11.5168 5.75882 12.2848L8.80428 15.7673C8.85471 15.825 8.92519 15.8577 8.99897 15.8577C9.07275 15.8577 9.14323 15.825 9.19366 15.7673L12.2391 12.2848C12.8947 11.5167 12.8947 10.3398 12.2391 9.5717C11.9287 9.20953 11.4911 9.00279 11.032 9.00146ZM11.8504 11.8937L11.85 11.8942L8.99897 15.1541L6.14753 11.8937C5.68097 11.3468 5.68113 10.5089 6.14791 9.96226C6.35813 9.71594 6.65482 9.57476 6.96637 9.57282H6.96755C7.27996 9.57439 7.57763 9.71543 7.78887 9.96199L8.80412 11.1248C8.85573 11.1802 8.92582 11.2114 8.99894 11.2114C9.07205 11.2114 9.14215 11.1802 9.19375 11.1248L10.2083 9.96284C10.4196 9.71584 10.7176 9.57446 11.0303 9.57282H11.0315C11.3431 9.57476 11.6397 9.71594 11.8498 9.96229C12.3168 10.5089 12.317 11.3468 11.8504 11.8937Z" fill="#979797" stroke="#979797" stroke-width="0.2"/>
<path d="M2.33117 9.8584C2.26044 9.85836 2.19257 9.88849 2.14256 9.94206C2.09254 9.99563 2.06445 10.0683 2.06445 10.1441V13.8579C2.06445 14.0157 2.18386 14.1435 2.33114 14.1435C2.47842 14.1435 2.59783 14.0156 2.59783 13.8579V10.1441C2.59786 10.0683 2.56974 9.99566 2.51973 9.94206C2.46978 9.88849 2.40191 9.8584 2.33117 9.8584Z" fill="#979797" stroke="#979797" stroke-width="0.2"/>
<path d="M2.33117 14.7148C2.26044 14.7148 2.19257 14.7449 2.14256 14.7985C2.09254 14.8521 2.06445 14.9247 2.06445 15.0005V16.1433C2.06445 16.301 2.18386 16.4289 2.33114 16.4289C2.47842 16.4289 2.59783 16.301 2.59783 16.1433V15.0005C2.59786 14.9248 2.56974 14.8521 2.51973 14.7985C2.46978 14.7449 2.40191 14.7148 2.33117 14.7148Z" fill="#979797" stroke="#979797" stroke-width="0.2"/>
</svg>
