<svg width="11" height="13" viewBox="0 0 11 13" fill="none" xmlns="http://www.w3.org/2000/svg">
<path d="M5.49668 0C7.97133 0 10.0106 1.83496 10.1992 4.20823L10.2102 4.38348L10.2134 4.55951L10.2126 7.38543L10.9395 9.13159C10.9576 9.17403 10.9709 9.21804 10.9811 9.26283L10.9937 9.33041L11 9.43415C10.9991 9.60756 10.9409 9.77581 10.8345 9.91269C10.728 10.0496 10.5793 10.1474 10.4114 10.1909L10.3202 10.2121L10.2141 10.22L7.46288 10.2192L7.45895 10.3457C7.42737 10.8443 7.20706 11.3121 6.84283 11.654C6.4786 11.9959 5.99781 12.1862 5.49825 12.1862C4.9987 12.1862 4.51791 11.9959 4.15368 11.654C3.78945 11.3121 3.56913 10.8443 3.53756 10.3457L3.53363 10.2192H0.78236C0.713374 10.2193 0.644674 10.2103 0.578038 10.1925L0.480593 10.1595C0.321958 10.0926 0.189672 9.9755 0.104061 9.82615C0.018451 9.67679 -0.0157465 9.50345 0.00672433 9.33277L0.0232271 9.23218L0.0570187 9.13159L0.78236 7.38779L0.783145 4.55244L0.786289 4.37562C0.882949 1.92612 2.96074 0 5.49668 0ZM6.67703 10.2192H4.31948L4.32498 10.33C4.35142 10.6021 4.47163 10.8566 4.66502 11.0498C4.85841 11.2431 5.11296 11.3631 5.38509 11.3893L5.49825 11.3948C5.79116 11.3949 6.07358 11.2858 6.29048 11.089C6.50738 10.8921 6.64322 10.6216 6.67153 10.33L6.67703 10.2192ZM5.49668 0.785851C3.43539 0.785851 1.74817 2.29783 1.58314 4.23181L1.57214 4.39841L1.569 4.55951V7.46559L1.53913 7.61647L0.78236 9.43415L10.1796 9.43572L10.2149 9.43415L9.45737 7.61647L9.42751 7.46559V4.56737L9.42437 4.40705C9.34185 2.38506 7.61612 0.785851 5.49668 0.785851Z" fill="#7D7D7D"/>
</svg>
