<svg width="18" height="18" viewBox="0 0 18 18" fill="none" xmlns="http://www.w3.org/2000/svg">
<path d="M6.19356 1H2C1.44772 1 1 1.44772 1 2V6.19356C1 6.74585 1.44772 7.19356 2 7.19356H6.19356C6.74585 7.19356 7.19356 6.74585 7.19356 6.19356V2C7.19356 1.44772 6.74585 1 6.19356 1Z" stroke="#979797" stroke-linejoin="round"/>
<path d="M16 1H11.8064C11.2541 1 10.8064 1.44772 10.8064 2V6.19356C10.8064 6.74585 11.2541 7.19356 11.8064 7.19356H16C16.5522 7.19356 17 6.74585 17 6.19356V2C17 1.44772 16.5522 1 16 1Z" stroke="#979797" stroke-linejoin="round"/>
<path d="M16 10.8066H11.8064C11.2541 10.8066 10.8064 11.2544 10.8064 11.8066V16.0002C10.8064 16.5525 11.2541 17.0002 11.8064 17.0002H16C16.5522 17.0002 17 16.5525 17 16.0002V11.8066C17 11.2544 16.5522 10.8066 16 10.8066Z" stroke="#979797" stroke-linejoin="round"/>
<path d="M6.19356 10.8066H2C1.44772 10.8066 1 11.2544 1 11.8066V16.0002C1 16.5525 1.44772 17.0002 2 17.0002H6.19356C6.74585 17.0002 7.19356 16.5525 7.19356 16.0002V11.8066C7.19356 11.2544 6.74585 10.8066 6.19356 10.8066Z" stroke="#979797" stroke-linejoin="round"/>
</svg>
