<svg width="30" height="30" viewBox="0 0 30 30" fill="none" xmlns="http://www.w3.org/2000/svg">
<path fill-rule="evenodd" clip-rule="evenodd" d="M0.3994 0.3994C0.931933 -0.133133 1.79534 -0.133133 2.32787 0.3994L14.9366 13.0082L27.6774 0.406548C28.2129 -0.123053 29.0763 -0.118311 29.6059 0.417139C30.1355 0.952589 30.1307 1.81598 29.5953 2.34558L16.8651 14.9367L29.6006 27.6721C30.1331 28.2047 30.1331 29.0681 29.6006 29.6006C29.0681 30.1331 28.2047 30.1331 27.6721 29.6006L14.9261 16.8545L2.32256 29.3204C1.78711 29.85 0.923719 29.8452 0.394119 29.3098C-0.135482 28.7743 -0.13074 27.9109 0.40471 27.3813L12.9976 14.926L0.3994 2.32787C-0.133133 1.79534 -0.133133 0.931933 0.3994 0.3994Z" fill="#DADADA"/>
</svg>
