<svg width="18" height="12" viewBox="0 0 18 12" fill="none" xmlns="http://www.w3.org/2000/svg">
<path d="M0 0.857143C0 0.629814 0.118527 0.411797 0.329505 0.251051C0.540484 0.090306 0.826631 0 1.125 0H16.875C17.1734 0 17.4595 0.090306 17.6705 0.251051C17.8815 0.411797 18 0.629814 18 0.857143C18 1.08447 17.8815 1.30249 17.6705 1.46323C17.4595 1.62398 17.1734 1.71429 16.875 1.71429H1.125C0.826631 1.71429 0.540484 1.62398 0.329505 1.46323C0.118527 1.30249 0 1.08447 0 0.857143Z" fill="white"/>
<path d="M0 11.1428C0 10.9155 0.118527 10.6974 0.329505 10.5367C0.540484 10.3759 0.826631 10.2856 1.125 10.2856H16.875C17.1734 10.2856 17.4595 10.3759 17.6705 10.5367C17.8815 10.6974 18 10.9155 18 11.1428C18 11.3701 17.8815 11.5881 17.6705 11.7489C17.4595 11.9096 17.1734 11.9999 16.875 11.9999H1.125C0.826631 11.9999 0.540484 11.9096 0.329505 11.7489C0.118527 11.5881 0 11.3701 0 11.1428Z" fill="white"/>
<path d="M1.125 5.14307C0.826631 5.14307 0.540484 5.23337 0.329505 5.39412C0.118527 5.55486 0 5.77288 0 6.00021C0 6.22754 0.118527 6.44556 0.329505 6.6063C0.540484 6.76705 0.826631 6.85735 1.125 6.85735H10.125C10.4234 6.85735 10.7095 6.76705 10.9205 6.6063C11.1315 6.44556 11.25 6.22754 11.25 6.00021C11.25 5.77288 11.1315 5.55486 10.9205 5.39412C10.7095 5.23337 10.4234 5.14307 10.125 5.14307H1.125Z" fill="white"/>
</svg>
