<svg width="22" height="22" viewBox="0 0 22 22" fill="none" xmlns="http://www.w3.org/2000/svg">
<path d="M9.94577 3.1084H2.98795C2.46071 3.1084 1.95507 3.31784 1.58226 3.69066C1.20944 4.06347 1 4.56911 1 5.09635V19.012C1 19.5392 1.20944 20.0449 1.58226 20.4177C1.95507 20.7905 2.46071 20.9999 2.98795 20.9999H16.9036C17.4308 20.9999 17.9365 20.7905 18.3093 20.4177C18.6821 20.0449 18.8915 19.5392 18.8915 19.012V12.0542" stroke="#C4C4C4" stroke-width="2" stroke-linecap="round" stroke-linejoin="round"/>
<path d="M17.4006 1.61758C17.796 1.22215 18.3323 1 18.8916 1C19.4508 1 19.9871 1.22215 20.3825 1.61758C20.7779 2.013 21.0001 2.54932 21.0001 3.10854C21.0001 3.66776 20.7779 4.20407 20.3825 4.5995L10.9398 14.0423L6.96387 15.0362L7.95784 11.0603L17.4006 1.61758Z" stroke="#C4C4C4" stroke-width="2" stroke-linecap="round" stroke-linejoin="round"/>
</svg>
