<svg width="13" height="13" viewBox="0 0 13 13" fill="none" xmlns="http://www.w3.org/2000/svg">
<path d="M6.5 1C5.41221 1 4.34884 1.32257 3.44437 1.92692C2.5399 2.53126 1.83495 3.39025 1.41867 4.39524C1.00238 5.40023 0.893465 6.5061 1.10568 7.573C1.3179 8.63989 1.84173 9.6199 2.61092 10.3891C3.3801 11.1583 4.36011 11.6821 5.42701 11.8943C6.4939 12.1065 7.59977 11.9976 8.60476 11.5813C9.60976 11.1651 10.4687 10.4601 11.0731 9.55564C11.6774 8.65117 12 7.5878 12 6.5C12 5.04131 11.4205 3.64236 10.3891 2.61091C9.35764 1.57946 7.95869 1 6.5 1Z" stroke="#7D7D7D" stroke-miterlimit="10"/>
<path d="M4.75 4.8218C4.75 4.8218 4.77625 4.27492 5.36156 3.80399C5.70875 3.5243 6.125 3.44336 6.5 3.43774C6.84156 3.43336 7.14656 3.48992 7.32906 3.5768C7.64156 3.72555 8.25 4.08867 8.25 4.86086C8.25 5.67336 7.71875 6.04242 7.11344 6.44836C6.50813 6.8543 6.34375 7.29492 6.34375 7.75024" stroke="#7D7D7D" stroke-width="0.875" stroke-miterlimit="10" stroke-linecap="round"/>
<path d="M6.3125 10C6.65768 10 6.9375 9.72018 6.9375 9.375C6.9375 9.02982 6.65768 8.75 6.3125 8.75C5.96732 8.75 5.6875 9.02982 5.6875 9.375C5.6875 9.72018 5.96732 10 6.3125 10Z" fill="#7D7D7D"/>
</svg>
