<svg width="18" height="18" viewBox="0 0 18 18" fill="none" xmlns="http://www.w3.org/2000/svg">
<path d="M11.3571 14.7144C11.3571 15.9769 10.6196 17.0001 9.35711 17.0001H4.64282C3.38032 17.0001 2.64282 15.9769 2.64282 14.7144" stroke="#979797" stroke-miterlimit="10" stroke-linecap="round"/>
<path d="M11.8571 11.8569C12.4882 11.8569 13 12.4966 13 13.2855C13 14.0744 12.4882 14.7141 11.8571 14.7141H2.14286C1.51179 14.7141 1 14.0744 1 13.2855C1 12.4966 1.51179 11.8569 2.14286 11.8569" stroke="#979797" stroke-miterlimit="10" stroke-linecap="round"/>
<path d="M12.1429 11.8574H6.26107C6.1854 11.8574 6.11283 11.8874 6.05929 11.9409L5.10107 12.8991C5.0878 12.9124 5.07205 12.923 5.05471 12.9301C5.03736 12.9373 5.01877 12.941 5 12.941C4.98123 12.941 4.96264 12.9373 4.94529 12.9301C4.92795 12.923 4.9122 12.9124 4.89893 12.8991L3.94071 11.9409C3.88717 11.8874 3.8146 11.8574 3.73893 11.8574H1.85714C1.62981 11.8574 1.4118 11.767 1.25105 11.6063C1.09031 11.4456 1 11.2275 1 11.0002V11.0002C1 10.7729 1.09031 10.5549 1.25105 10.3941C1.4118 10.2334 1.62981 10.1431 1.85714 10.1431H12.1429C12.3702 10.1431 12.5882 10.2334 12.7489 10.3941C12.9097 10.5549 13 10.7729 13 11.0002C13 11.2275 12.9097 11.4456 12.7489 11.6063C12.5882 11.767 12.3702 11.8574 12.1429 11.8574Z" stroke="#979797" stroke-miterlimit="10" stroke-linecap="round"/>
<path d="M2.14282 9.71436V9.7065C2.14282 7.74221 3.74997 6.71436 5.71425 6.71436H8.28568C10.25 6.71436 11.8571 7.75007 11.8571 9.71436V9.7065" stroke="#979797" stroke-miterlimit="10" stroke-linecap="round"/>
<path d="M8.46436 3.85693L8.73007 6.14158" stroke="#979797" stroke-miterlimit="10" stroke-linecap="round"/>
<path d="M9 16.9998H13.9754C14.2637 16.9998 14.5414 16.8908 14.7527 16.6947C14.9641 16.4986 15.0935 16.2298 15.115 15.9423L16.3929 3.85693" stroke="#979797" stroke-miterlimit="10" stroke-linecap="round"/>
<path d="M13 3.85714L13.5714 1.57143L15.25 1" stroke="#979797" stroke-linecap="round" stroke-linejoin="round"/>
<path d="M7.85718 3.85693H17" stroke="#979797" stroke-miterlimit="10" stroke-linecap="round"/>
</svg>
