<svg width="16" height="21" viewBox="0 0 16 21" fill="none" xmlns="http://www.w3.org/2000/svg">
<path d="M14.6248 9.14596L14.4793 8.89042C14.4832 7.06627 13.638 6.32324 12.6512 5.75712C12.95 5.67849 13.2566 5.61559 13.3431 5.23818C13.8581 5.10844 13.9643 4.86863 14.0154 4.61702C14.1491 4.5266 14.5972 4.27499 14.5501 3.84254C14.8017 3.66956 14.9432 3.44547 14.8685 3.13096C15.1398 2.83611 15.2105 2.59236 15.0965 2.36827C15.4228 1.96334 15.2774 1.75498 15.1398 1.54662C15.3835 1.1063 15.1673 0.634538 14.4872 0.713165C14.2159 0.316096 13.6262 0.406518 13.5358 0.406518C13.4335 0.280714 13.2999 0.170635 12.8871 0.221743C12.6198 -0.0180707 12.321 0.0251744 12.0104 0.139184C11.6448 -0.147806 11.401 0.084145 11.1219 0.170635C10.6777 0.0291058 10.5754 0.221743 10.3592 0.304302C9.87565 0.202086 9.72626 0.422243 9.49431 0.654194L9.22305 0.650263C8.49181 1.07485 8.13012 1.93975 8.00039 2.384C7.87065 1.93975 7.50897 1.07485 6.77773 0.650263L6.50647 0.654194C6.27452 0.422243 6.12512 0.202086 5.64156 0.304302C5.42141 0.225675 5.32312 0.0291058 4.87888 0.170635C4.69803 0.115596 4.52899 -0.00234521 4.33242 0.00158617C4.2302 0.00551754 4.11619 0.0408999 3.99039 0.139184C3.67981 0.0212431 3.38102 -0.0180707 3.11369 0.221743C2.7009 0.170635 2.5633 0.276782 2.46501 0.406518C2.37459 0.406518 1.78489 0.316096 1.51362 0.713165C0.833492 0.634538 0.621198 1.1063 0.864944 1.54662C0.727345 1.75891 0.581885 1.96727 0.908189 2.36827C0.794179 2.59236 0.864943 2.83611 1.13621 3.13096C1.06544 3.44547 1.20697 3.66956 1.45465 3.84254C1.40747 4.27499 1.85565 4.5266 1.98932 4.61702C2.04042 4.86863 2.14657 5.10451 2.66158 5.23818C2.74807 5.61166 3.05472 5.67849 3.3535 5.75712C2.36673 6.32324 1.52148 7.06627 1.52541 8.89042L1.37995 9.14596C0.247718 9.82216 -0.770508 12.0041 0.821698 13.7732C0.923914 14.3275 1.10083 14.7246 1.25415 15.1649C1.4861 16.9419 3.00361 17.7714 3.40068 17.8697C3.98646 18.31 4.61154 18.7267 5.45286 19.0176C6.25093 19.8275 7.11583 20.1342 7.98073 20.1342H8.02005C8.88888 20.1342 9.74985 19.8275 10.544 19.0176C11.3892 18.7267 12.0104 18.31 12.5962 17.8697C12.9972 17.7714 14.5107 16.9419 14.7427 15.1649C14.896 14.7246 15.0729 14.3275 15.1751 13.7732C16.7713 12.0001 15.7531 9.82216 14.6248 9.14596ZM13.752 8.83145C13.693 9.56662 9.86386 6.27213 10.5243 6.16205C12.321 5.8672 13.811 6.91687 13.752 8.83145ZM12.0615 12.4916C11.0983 13.1127 9.71054 12.7117 8.96358 11.5952C8.21661 10.4787 8.38959 9.07127 9.35278 8.45011C10.316 7.82895 11.7037 8.22995 12.4507 9.34646C13.1977 10.463 13.0247 11.8704 12.0615 12.4916ZM9.39209 1.15741C9.42355 1.32253 9.46286 1.42474 9.50611 1.45619C9.7184 1.22818 9.89138 0.996224 10.1666 0.776067C10.1666 0.905802 10.0997 1.0434 10.2649 1.14562C10.4103 0.949048 10.6108 0.772136 10.8742 0.622743C10.7484 0.8429 10.8506 0.909734 10.9214 1.00016C11.1219 0.827175 11.3145 0.654194 11.6841 0.516596C11.5819 0.638469 11.4403 0.760341 11.5897 0.901871C11.7981 0.772136 12.0065 0.6424 12.4979 0.551979C12.3878 0.673851 12.1559 0.799655 12.2974 0.921528C12.5569 0.823243 12.8478 0.748547 13.1662 0.709234C13.0129 0.835038 12.8871 0.95691 13.0129 1.05519C13.292 0.968704 13.6773 0.854695 14.0508 0.952979L13.8149 1.19279C13.7874 1.22424 14.3692 1.21638 14.7545 1.22424C14.613 1.42081 14.4714 1.60559 14.3889 1.93975C14.4282 1.97907 14.6169 1.95548 14.7977 1.93975C14.613 2.32896 14.2945 2.42331 14.2198 2.59236C14.3338 2.67885 14.4872 2.65526 14.6601 2.59629C14.5265 2.86756 14.2513 3.05626 14.0311 3.27642C14.0862 3.31573 14.1844 3.33932 14.4125 3.3118C14.208 3.52803 13.9643 3.7246 13.6734 3.90151C13.7245 3.96048 13.9014 3.96048 14.0665 3.96441C13.8031 4.21995 13.465 4.35362 13.1466 4.52267C13.3038 4.62881 13.4178 4.60523 13.5397 4.60523C13.3156 4.79 12.9343 4.88435 12.5804 4.99836C12.6473 5.10451 12.7141 5.13203 12.8596 5.15955C12.4861 5.36791 11.9475 5.27356 11.7981 5.37971C11.8335 5.48585 11.9396 5.55269 12.0615 5.60773C11.4561 5.64311 9.80882 5.58414 9.49038 4.33789C10.1076 3.65776 11.2359 2.86363 13.1741 1.87685C11.6644 2.38007 10.3042 3.05626 9.16408 3.98014C7.81561 3.35505 8.73949 1.7825 9.39209 1.15741ZM8.0397 5.66277C8.9911 5.65097 10.1666 6.36255 10.1626 7.02695C10.1587 7.61666 9.33706 8.09236 8.04757 8.08449C6.78559 8.06877 5.93642 7.48692 5.94035 6.91294C5.94035 6.44511 6.97037 5.63525 8.0397 5.66277ZM3.20411 5.15955C3.34957 5.13203 3.41641 5.10058 3.48324 4.99836C3.12942 4.88829 2.74807 4.79 2.52398 4.60523C2.64586 4.60523 2.75987 4.63275 2.91712 4.52267C2.59868 4.35362 2.26058 4.21995 1.99718 3.96441C2.1623 3.96048 2.33921 3.96441 2.39032 3.90151C2.0994 3.7246 1.85565 3.52803 1.65122 3.3118C1.87924 3.33932 1.97752 3.31573 2.03256 3.27642C1.8124 3.05626 1.53328 2.86756 1.40354 2.59629C1.57259 2.65526 1.72985 2.67492 1.84386 2.59236C1.76916 2.42724 1.45072 2.32896 1.26594 1.93975C1.44679 1.95548 1.63549 1.97907 1.67481 1.93975C1.59225 1.60559 1.44679 1.41688 1.30919 1.22424C1.69446 1.22031 2.27631 1.22424 2.24879 1.19279L2.0129 0.952979C2.38639 0.854695 2.77166 0.968704 3.05079 1.05519C3.17659 0.95691 3.04686 0.835038 2.89746 0.709234C3.21591 0.752479 3.5029 0.823243 3.7663 0.921528C3.9039 0.799655 3.67588 0.673851 3.5658 0.551979C4.05722 0.6424 4.26558 0.772136 4.47395 0.901871C4.62334 0.760341 4.48181 0.638469 4.37959 0.516596C4.74914 0.650263 4.94178 0.827175 5.14228 1.00016C5.20911 0.909734 5.31526 0.8429 5.18946 0.622743C5.45286 0.772136 5.65336 0.949048 5.79882 1.14562C5.96001 1.0434 5.8971 0.901871 5.8971 0.776067C6.1723 0.996224 6.34528 1.22818 6.55757 1.45619C6.60082 1.42474 6.6362 1.32253 6.67158 1.15741C7.32419 1.7825 8.24806 3.35505 6.90747 3.98014C5.76737 3.05626 4.40711 2.38007 2.89746 1.87685C4.83563 2.8597 5.96394 3.65776 6.58116 4.33789C6.26665 5.58807 4.61548 5.64311 4.01004 5.60773C4.13192 5.55269 4.23806 5.48192 4.27345 5.37971C4.11619 5.26963 3.58152 5.36398 3.20411 5.15955ZM5.56687 6.10701C6.22734 6.21709 2.39818 9.50765 2.33921 8.77641C2.28024 6.86184 3.77416 5.80823 5.56687 6.10701ZM1.50183 13.4508C0.57009 12.7117 0.271306 10.5534 1.99718 9.58628C3.03899 9.31108 2.351 13.8243 1.50183 13.4508ZM5.07938 17.3114C4.5565 17.622 3.27881 17.4962 2.37459 16.2146C1.76523 15.1374 1.84386 14.0445 2.27238 13.7221C2.91319 13.3368 3.9039 13.8558 4.66658 14.7285C5.33099 15.5148 5.6337 16.9026 5.07938 17.3114ZM4.04149 12.6056C3.07831 11.9844 2.90533 10.577 3.65229 9.46047C4.39925 8.34396 5.78702 7.94296 6.75021 8.56412C7.7134 9.18528 7.88638 10.5927 7.13942 11.7092C6.38853 12.8257 5.00075 13.2267 4.04149 12.6056ZM8.05936 19.5051C6.90353 19.5523 5.7713 18.5734 5.78702 18.2353C5.7713 17.736 7.19446 17.3468 8.11833 17.3704C9.05007 17.3311 10.3042 17.6653 10.3081 18.1134C10.3278 18.5459 9.17587 19.5248 8.05936 19.5051ZM10.3749 14.5948C10.3828 15.7625 9.34492 16.7099 8.06329 16.7178C6.78166 16.7257 5.73592 15.7821 5.72805 14.6184V14.5948C5.72019 13.4272 6.75807 12.4798 8.0397 12.4719C9.32133 12.464 10.3671 13.4076 10.3749 14.5713V14.5948ZM13.6065 16.2735C12.6119 17.6338 11.2634 17.6849 10.7641 17.3075C10.2413 16.82 10.6383 15.3064 11.3578 14.4769C12.1794 13.5609 13.0601 12.9633 13.6734 13.4312C14.0862 13.8361 14.3299 15.3615 13.6065 16.2735ZM14.5068 13.3958C13.6616 13.7653 12.9736 9.25604 14.0115 9.53124C15.7373 10.5023 15.4385 12.6606 14.5068 13.3958Z" fill="#979797"/>
</svg>
