<svg width="21" height="19" viewBox="0 0 21 19" fill="none" xmlns="http://www.w3.org/2000/svg">
<path d="M17.9435 1.86788C15.2976 0.0638317 12.0302 0.905723 10.2663 2.97036C8.50231 0.905723 5.23497 0.0538093 2.58902 1.86788C1.18587 2.83005 0.303888 4.45369 0.243753 6.16754C0.103438 10.0563 3.55118 13.1733 8.813 17.954L8.91323 18.0442C9.67494 18.7358 10.8476 18.7358 11.6093 18.0342L11.7195 17.934C16.9814 13.1633 20.4191 10.0463 20.2888 6.15752C20.2286 4.45369 19.3467 2.83005 17.9435 1.86788ZM10.3665 16.4607L10.2663 16.5609L10.166 16.4607C5.39533 12.141 2.24826 9.28455 2.24826 6.38804C2.24826 4.38354 3.75163 2.88016 5.75614 2.88016C7.2996 2.88016 8.80298 3.87239 9.33418 5.24547H11.2084C11.7296 3.87239 13.2329 2.88016 14.7764 2.88016C16.7809 2.88016 18.2843 4.38354 18.2843 6.38804C18.2843 9.28455 15.1372 12.141 10.3665 16.4607Z" fill="white"/>
</svg>
