<svg width="28" height="25" viewBox="0 0 28 25" fill="none" xmlns="http://www.w3.org/2000/svg">
<path d="M20.4488 1.99962C21.1767 1.999 21.8974 2.14372 22.5687 2.42528C23.24 2.70684 23.8483 3.11958 24.358 3.6393C25.4082 4.70547 25.9969 6.14197 25.9969 7.63853C25.9969 9.13508 25.4082 10.5716 24.358 11.6378L14 22.1257L3.642 11.6378C2.59179 10.5716 2.00311 9.13508 2.00311 7.63853C2.00311 6.14197 2.59179 4.70547 3.642 3.6393C4.15199 3.11995 4.76036 2.70743 5.43157 2.42583C6.10277 2.14422 6.82336 1.99919 7.55125 1.99919C8.27913 1.99919 8.99972 2.14422 9.67093 2.42583C10.3421 2.70743 10.9505 3.11995 11.4605 3.6393L14 6.2388L16.5295 3.6593C17.0377 3.13338 17.6466 2.71534 18.32 2.43017C18.9935 2.145 19.7175 1.99857 20.4488 1.99962ZM20.4488 2.68234e-06C19.4546 -0.000839875 18.4702 0.19682 17.5534 0.581392C16.6366 0.965965 15.8058 1.52971 15.1098 2.23957L14 3.35935L12.8902 2.23957C12.1933 1.53099 11.3623 0.968225 10.4457 0.58408C9.52904 0.199936 8.54512 0.00209702 7.55125 0.00209702C6.55738 0.00209702 5.57345 0.199936 4.65682 0.58408C3.74019 0.968225 2.90919 1.53099 2.21228 2.23957C0.79443 3.68292 0 5.62527 0 7.64852C0 9.67177 0.79443 11.6141 2.21228 13.0575L14 24.9952L25.7877 13.0575C27.2056 11.6141 28 9.67177 28 7.64852C28 5.62527 27.2056 3.68292 25.7877 2.23957C25.091 1.53061 24.2601 0.967459 23.3434 0.582951C22.4268 0.198444 21.4428 0.000276045 20.4488 2.68234e-06Z" fill="#FF0000"/>
</svg>
