<svg width="21" height="18" viewBox="0 0 21 18" fill="none" xmlns="http://www.w3.org/2000/svg">
<path d="M17.9442 1.03439C15.2982 -0.769666 12.0309 0.0722272 10.2669 2.13687C8.50293 0.0722272 5.23559 -0.779689 2.58964 1.03439C1.18648 1.99655 0.304498 3.62021 0.244363 5.33406C0.104048 9.22281 3.5518 12.3398 8.81363 17.1206L8.91386 17.2108C9.67557 17.9023 10.8482 17.9023 11.6099 17.2007L11.7202 17.1005C16.982 12.3298 20.4197 9.21278 20.2894 5.32404C20.2293 3.62021 19.3473 1.99655 17.9442 1.03439ZM10.3671 15.6272L10.2669 15.7274L10.1667 15.6272C5.39595 11.3075 2.24887 8.45107 2.24887 5.55456C2.24887 3.55005 3.75225 2.04667 5.75676 2.04667C7.30023 2.04667 8.80361 3.0389 9.3348 4.41199H11.209C11.7302 3.0389 13.2336 2.04667 14.777 2.04667C16.7816 2.04667 18.2849 3.55005 18.2849 5.55456C18.2849 8.45107 15.1379 11.3075 10.3671 15.6272Z" fill="#FF0000"/>
</svg>
