<svg width="18" height="15" viewBox="0 0 18 15" fill="none" xmlns="http://www.w3.org/2000/svg">
<path d="M16.5932 13.2858H15.3729V6.88162C15.3728 6.74938 15.3451 6.61862 15.2916 6.49769C15.2381 6.37675 15.16 6.2683 15.0622 6.17924L9.6381 1.24819C9.46378 1.08855 9.23597 1 8.99959 1C8.76321 1 8.53541 1.08855 8.36108 1.24819L2.93776 6.17931C2.84 6.26834 2.76189 6.37679 2.7084 6.49771C2.65491 6.61864 2.62723 6.74939 2.62712 6.88162V13.2858H1.40678C1.29889 13.2858 1.19543 13.3286 1.11914 13.4049C1.04286 13.4812 1 13.5846 1 13.6925C1 13.8004 1.04286 13.9039 1.11914 13.9802C1.19543 14.0565 1.29889 14.0993 1.40678 14.0993H16.5932C16.7011 14.0993 16.8046 14.0565 16.8809 13.9802C16.9571 13.9039 17 13.8004 17 13.6925C17 13.5846 16.9571 13.4812 16.8809 13.4049C16.8046 13.3286 16.7011 13.2858 16.5932 13.2858ZM3.44068 6.88162C3.4407 6.86272 3.44466 6.84404 3.4523 6.82676C3.45995 6.80949 3.47111 6.79399 3.48509 6.78128L8.90841 1.85009C8.93332 1.82729 8.96586 1.81465 8.99963 1.81465C9.03339 1.81465 9.06594 1.82729 9.09085 1.85009L14.5149 6.78121C14.5289 6.79394 14.54 6.80943 14.5477 6.82671C14.5553 6.84398 14.5593 6.86266 14.5593 6.88155V13.2858H11.0335V9.89538C11.0332 9.64373 10.9331 9.40248 10.7552 9.22454C10.5772 9.0466 10.336 8.94651 10.0843 8.94623H7.91485C7.66321 8.94651 7.42195 9.0466 7.24401 9.22454C7.06607 9.40248 6.96598 9.64373 6.9657 9.89538V13.2858H3.44068V6.88162ZM10.2199 13.2858H7.77925V9.89538C7.77929 9.85943 7.79359 9.82496 7.81901 9.79954C7.84443 9.77412 7.8789 9.75982 7.91485 9.75979H10.0843C10.1203 9.75982 10.1548 9.77412 10.1802 9.79954C10.2056 9.82496 10.2199 9.85943 10.2199 9.89538V13.2858Z" fill="#979797" stroke="#979797" stroke-width="0.2"/>
</svg>
