<svg width="23" height="23" viewBox="0 0 23 23" fill="none" xmlns="http://www.w3.org/2000/svg">
<path fill-rule="evenodd" clip-rule="evenodd" d="M11.1605 0C8.12972 0 7.74937 0.013252 6.55902 0.0674222C5.37099 0.121825 4.56007 0.30991 3.85051 0.585876C3.11653 0.870909 2.49392 1.25219 1.87364 1.87271C1.25289 2.49299 0.871606 3.1156 0.585643 3.84934C0.30898 4.55913 0.120662 5.37029 0.0671897 6.55785C0.0139494 7.7482 0 8.12879 0 11.1595C0 14.1903 0.0134844 14.5695 0.0674222 15.7598C0.122057 16.9478 0.310142 17.7588 0.585876 18.4683C0.871141 19.2023 1.25243 19.8249 1.87294 20.4452C2.49299 21.0659 3.1156 21.4482 3.84911 21.7332C4.55914 22.0092 5.37029 22.1972 6.55809 22.2516C7.74844 22.3058 8.12856 22.3191 11.1591 22.3191C14.19 22.3191 14.5692 22.3058 15.7596 22.2516C16.9476 22.1972 17.7595 22.0092 18.4695 21.7332C19.2032 21.4482 19.8249 21.0659 20.445 20.4452C21.0657 19.8249 21.447 19.2023 21.733 18.4686C22.0073 17.7588 22.1956 16.9476 22.2514 15.7601C22.3049 14.5697 22.3188 14.1903 22.3188 11.1595C22.3188 8.12879 22.3049 7.74844 22.2514 6.55809C22.1956 5.37006 22.0073 4.55913 21.733 3.84957C21.447 3.1156 21.0657 2.49299 20.445 1.87271C19.8242 1.25196 19.2035 0.870676 18.4688 0.585876C17.7574 0.30991 16.946 0.121825 15.758 0.0674222C14.5676 0.013252 14.1887 0 11.157 0H11.1605ZM10.1593 2.01101C10.4564 2.01054 10.788 2.01101 11.1604 2.01101C14.14 2.01101 14.4932 2.0217 15.6698 2.07518C16.7579 2.12493 17.3484 2.30674 17.7418 2.45948C18.2625 2.66175 18.6338 2.90354 19.0242 3.29412C19.4148 3.68471 19.6565 4.05669 19.8593 4.57747C20.012 4.97038 20.1941 5.5609 20.2436 6.64896C20.2971 7.82536 20.3087 8.17875 20.3087 11.1569C20.3087 14.1351 20.2971 14.4885 20.2436 15.6649C20.1938 16.753 20.012 17.3435 19.8593 17.7364C19.657 18.2572 19.4148 18.628 19.0242 19.0184C18.6336 19.409 18.2628 19.6507 17.7418 19.853C17.3488 20.0065 16.7579 20.1878 15.6698 20.2376C14.4934 20.291 14.14 20.3027 11.1604 20.3027C8.18059 20.3027 7.82744 20.291 6.65104 20.2376C5.56298 20.1873 4.97246 20.0055 4.57885 19.8528C4.05807 19.6505 3.68609 19.4087 3.2955 19.0181C2.90492 18.6276 2.66313 18.2565 2.4604 17.7355C2.30765 17.3426 2.12561 16.7521 2.07609 15.664C2.02262 14.4876 2.01192 14.1342 2.01192 11.1542C2.01192 8.1741 2.02262 7.82257 2.07609 6.64617C2.12584 5.55811 2.30765 4.96759 2.4604 4.57422C2.66266 4.05344 2.90492 3.68145 3.2955 3.29087C3.68609 2.90029 4.05807 2.6585 4.57885 2.45576C4.97222 2.30232 5.56298 2.12098 6.65104 2.07099C7.6805 2.02449 8.07946 2.01054 10.1593 2.00822V2.01101ZM17.1173 3.86396C16.378 3.86396 15.7781 4.46309 15.7781 5.20264C15.7781 5.94196 16.378 6.54179 17.1173 6.54179C17.8566 6.54179 18.4564 5.94196 18.4564 5.20264C18.4564 4.46332 17.8566 3.86396 17.1173 3.86396ZM11.1605 5.42862C7.99559 5.42862 5.4296 7.99461 5.4296 11.1595C5.4296 14.3244 7.99559 16.8892 11.1605 16.8892C14.3254 16.8892 16.8904 14.3244 16.8904 11.1595C16.8904 7.99461 14.3254 5.42862 11.1605 5.42862ZM11.1604 7.43966C13.2147 7.43966 14.8803 9.10499 14.8803 11.1595C14.8803 13.2138 13.2147 14.8793 11.1604 14.8793C9.10592 14.8793 7.4406 13.2138 7.4406 11.1595C7.4406 9.10499 9.10592 7.43966 11.1604 7.43966Z" fill="white"/>
</svg>
