<svg width="25" height="40" viewBox="0 0 25 40" fill="none" xmlns="http://www.w3.org/2000/svg">
<path d="M12.5 0C5.595 0 0 5.5725 0 12.475C0 24.41 12.5 39.975 12.5 39.975C12.5 39.975 25 24.4075 25 12.475C25 5.575 19.405 0 12.5 0ZM12.5 19.3775C10.7098 19.3775 8.9929 18.6663 7.72703 17.4005C6.46116 16.1346 5.75 14.4177 5.75 12.6275C5.75 10.8373 6.46116 9.1204 7.72703 7.85453C8.9929 6.58866 10.7098 5.8775 12.5 5.8775C14.2902 5.8775 16.0071 6.58866 17.273 7.85453C18.5388 9.1204 19.25 10.8373 19.25 12.6275C19.25 14.4177 18.5388 16.1346 17.273 17.4005C16.0071 18.6663 14.2902 19.3775 12.5 19.3775Z" fill="white"/>
</svg>
