<svg width="12" height="18" viewBox="0 0 12 18" fill="none" xmlns="http://www.w3.org/2000/svg">
<path d="M6 1C3.238 1 1 3.16844 1 5.85442C1 10.4987 6 16.5556 6 16.5556C6 16.5556 11 10.4977 11 5.85442C11 3.16941 8.762 1 6 1V1ZM6 8.54041C5.28392 8.54041 4.59716 8.26367 4.09081 7.77108C3.58446 7.27849 3.3 6.61039 3.3 5.91376C3.3 5.21714 3.58446 4.54904 4.09081 4.05645C4.59716 3.56386 5.28392 3.28712 6 3.28712C6.71608 3.28712 7.40284 3.56386 7.90919 4.05645C8.41554 4.54904 8.7 5.21714 8.7 5.91376C8.7 6.61039 8.41554 7.27849 7.90919 7.77108C7.40284 8.26367 6.71608 8.54041 6 8.54041Z" stroke="#7D7D7D" stroke-width="0.8"/>
</svg>
