<svg width="35" height="27" viewBox="0 0 35 27" fill="none" xmlns="http://www.w3.org/2000/svg">
<path d="M5.43168 14.6049H23.8634C24.742 14.6049 25.4543 13.8926 25.4543 13.014C25.4543 12.1354 24.742 11.4231 23.8634 11.4231H5.43168L7.48862 9.36623C8.10992 8.74503 8.10992 7.73767 7.48862 7.11637C6.86753 6.49506 5.86017 6.49506 5.23876 7.11637L0.466348 11.8888C0.429439 11.9256 0.394652 11.9641 0.361561 12.0044C0.3535 12.0142 0.346606 12.0249 0.338758 12.0349C0.31447 12.0658 0.290606 12.0968 0.268758 12.1294C0.262394 12.139 0.257197 12.1491 0.250939 12.1587C0.229091 12.1929 0.207667 12.2273 0.188364 12.2633C0.184652 12.2704 0.181576 12.2779 0.177864 12.285C0.157818 12.3239 0.138515 12.3634 0.121652 12.4041C0.11953 12.4091 0.118045 12.4144 0.11603 12.4195C0.0987424 12.4624 0.0827273 12.5057 0.0691515 12.5504C0.0673485 12.556 0.0663939 12.5618 0.064803 12.5676C0.0519697 12.6114 0.040197 12.6556 0.0311818 12.7009C0.0285303 12.7144 0.0273636 12.7282 0.0249242 12.7418C0.0183485 12.7794 0.0117727 12.8169 0.00806061 12.8552C0.00265152 12.9077 0 12.9607 0 13.014C0 13.0672 0.00265152 13.1202 0.00806061 13.1729C0.0117727 13.2117 0.0185606 13.2495 0.0250303 13.2874C0.0273636 13.3006 0.0285303 13.314 0.0311818 13.3271C0.040303 13.3728 0.0519697 13.4174 0.0649091 13.4617C0.0665 13.4669 0.0674545 13.4724 0.0690455 13.4776C0.0827273 13.5224 0.0987424 13.5662 0.116242 13.6095C0.118152 13.6142 0.11953 13.6192 0.121545 13.6238C0.138515 13.6649 0.157924 13.7045 0.178182 13.7437C0.181682 13.7506 0.184652 13.7578 0.188258 13.7647C0.207773 13.8008 0.229303 13.8356 0.25147 13.8701C0.257409 13.8794 0.2625 13.8893 0.268652 13.8984C0.290606 13.9312 0.314682 13.9624 0.338864 13.9933C0.346606 14.0033 0.3535 14.0138 0.361455 14.0236C0.394652 14.0638 0.429439 14.1024 0.466242 14.1392L5.23865 18.9116C5.5493 19.2223 5.95647 19.3776 6.36364 19.3776C6.7708 19.3776 7.17797 19.2223 7.48852 18.9116C8.10982 18.2903 8.10982 17.283 7.48852 16.6617L5.43168 14.6049Z" fill="#FF0000"/>
<path d="M21.9857 0C17.6432 0 13.6029 2.1543 11.1778 5.76259C10.6878 6.49176 10.8817 7.48024 11.6109 7.97035C12.3401 8.46035 13.3285 8.26668 13.8187 7.5373C15.6515 4.80995 18.7046 3.18171 21.9857 3.18171C27.407 3.18182 31.8176 7.59235 31.8176 13.0137C31.8176 18.4351 27.407 22.8457 21.9857 22.8457C18.7143 22.8457 15.6662 21.2247 13.832 18.5098C13.34 17.7817 12.3513 17.5904 11.623 18.0822C10.895 18.5741 10.7035 19.563 11.1954 20.291C13.6222 23.883 17.6559 26.0275 21.9857 26.0275C29.1614 26.0275 34.9994 20.1896 34.9994 13.0137C34.9994 5.83789 29.1614 0 21.9857 0Z" fill="#FF0000"/>
</svg>
