<svg width="20" height="28" viewBox="0 0 20 28" fill="none" xmlns="http://www.w3.org/2000/svg">
<path d="M10 1.97117C10.9889 1.97117 11.9556 2.26019 12.7779 2.80167C13.6001 3.34316 14.241 4.1128 14.6194 5.01326C14.9979 5.91372 15.0969 6.90456 14.904 7.86048C14.711 8.81641 14.2348 9.69448 13.5356 10.3837C12.8363 11.0728 11.9454 11.5422 10.9755 11.7323C10.0056 11.9225 9.00023 11.8249 8.0866 11.4519C7.17296 11.0789 6.39207 10.4473 5.84266 9.6369C5.29325 8.82651 5.00001 7.87375 5.00001 6.89909C5.00001 5.59213 5.52679 4.33869 6.46448 3.41453C7.40216 2.49036 8.67393 1.97117 10 1.97117ZM10 0C8.61554 0 7.26216 0.404625 6.11102 1.16271C4.95987 1.92079 4.06266 2.99828 3.53285 4.25893C3.00303 5.51957 2.86441 6.90675 3.13451 8.24504C3.4046 9.58333 4.07129 10.8126 5.05026 11.7775C6.02923 12.7423 7.27651 13.3994 8.63438 13.6656C9.99225 13.9318 11.3997 13.7952 12.6788 13.273C13.9579 12.7508 15.0511 11.8666 15.8203 10.732C16.5895 9.59748 17 8.26361 17 6.89909C17 5.06934 16.2625 3.31453 14.9498 2.0207C13.637 0.726867 11.8565 0 10 0Z" fill="black"/>
<path d="M20 27.5966H18V22.6686C18 21.3617 17.4732 20.1082 16.5355 19.1841C15.5979 18.2599 14.3261 17.7407 13 17.7407H7C5.67392 17.7407 4.40215 18.2599 3.46447 19.1841C2.52678 20.1082 2 21.3617 2 22.6686V27.5966H0V22.6686C0 20.8389 0.737498 19.0841 2.05025 17.7902C3.36301 16.4964 5.14349 15.7695 7 15.7695H13C14.8565 15.7695 16.637 16.4964 17.9497 17.7902C19.2625 19.0841 20 20.8389 20 22.6686V27.5966Z" fill="black"/>
</svg>
