<svg width="15" height="20" viewBox="0 0 15 20" fill="none" xmlns="http://www.w3.org/2000/svg">
<path d="M2.44429 0.528029L3.81704 0.11455C4.44193 -0.0739759 5.11408 -0.0286519 5.708 0.242062C6.30193 0.512775 6.77704 0.990375 7.04465 1.58571L7.8989 3.48605C8.12908 3.99799 8.1932 4.56915 8.08227 5.11939C7.97133 5.66962 7.6909 6.17131 7.28033 6.55406L5.78768 7.94583C5.76923 7.96306 5.7541 7.98352 5.74302 8.0062C5.58673 8.32541 5.82406 9.178 6.5675 10.4664C7.40603 11.9185 8.05354 12.4924 8.35372 12.404L10.3128 11.8044C10.8493 11.6406 11.4236 11.6487 11.9553 11.8277C12.4869 12.0067 12.9492 12.3476 13.2774 12.8026L14.4914 14.4838C14.8725 15.0116 15.0491 15.6599 14.9882 16.3082C14.9274 16.9564 14.6333 17.5605 14.1606 18.0082L13.1162 18.9965C12.753 19.3405 12.3119 19.5915 11.8307 19.7282C11.3494 19.8649 10.8423 19.8831 10.3525 19.7812C7.44407 19.1759 4.83833 16.834 2.51293 12.8067C0.186697 8.77693 -0.538545 5.34505 0.395917 2.52265C0.552341 2.05013 0.820205 1.6222 1.17688 1.27503C1.53355 0.927861 1.96855 0.671643 2.44512 0.528029H2.44429ZM2.80319 1.71554C2.51723 1.80167 2.25621 1.95536 2.04218 2.16364C1.82815 2.37191 1.6674 2.62865 1.5735 2.91215C0.768048 5.34423 1.42052 8.43374 3.58714 12.1865C5.75212 15.9367 8.09902 18.0455 10.6047 18.5664C10.8987 18.6276 11.2032 18.6166 11.492 18.5346C11.7809 18.4525 12.0456 18.3017 12.2636 18.0951L13.3072 17.1077C13.5618 16.8667 13.7203 16.5414 13.7531 16.1923C13.786 15.8433 13.691 15.4941 13.4858 15.2098L12.2718 13.5278C12.0952 13.2829 11.8463 13.0993 11.5601 13.003C11.2739 12.9066 10.9647 12.9021 10.6758 12.9903L8.7118 13.5915C7.62517 13.9148 6.60306 13.0093 5.49328 11.0858C4.55303 9.45834 4.22721 8.2824 4.62911 7.46124C4.70684 7.30246 4.81269 7.1594 4.9417 7.03866L6.43436 5.64689C6.65552 5.4408 6.80659 5.17062 6.86636 4.87429C6.92613 4.57795 6.8916 4.27034 6.76762 3.99463L5.91337 2.09511C5.76928 1.77447 5.5134 1.51723 5.19353 1.37145C4.87365 1.22566 4.51164 1.20129 4.17511 1.30289L2.80236 1.71637L2.80319 1.71554Z" fill="white"/>
</svg>
