<svg width="16" height="16" viewBox="0 0 16 16" fill="none" xmlns="http://www.w3.org/2000/svg">
<path d="M12.2514 15.2565C12.038 15.2563 11.8295 15.1924 11.6527 15.073L8.0507 12.6588C8.03296 12.6466 8.0119 12.64 7.99034 12.64C7.96878 12.64 7.94773 12.6466 7.92999 12.6588L4.32803 15.073C4.14715 15.1938 3.93382 15.2567 3.71636 15.2534C3.49889 15.25 3.28759 15.1806 3.11051 15.0543C2.93342 14.9281 2.79894 14.7509 2.72491 14.5464C2.65088 14.3419 2.64081 14.1198 2.69604 13.9094L3.87899 9.73768C3.88458 9.71671 3.8839 9.69455 3.87704 9.67395C3.87017 9.65336 3.85742 9.63523 3.84036 9.6218L0.431534 6.94206C0.252082 6.80837 0.118969 6.62188 0.0508581 6.40872C-0.0172524 6.19557 -0.0169442 5.96644 0.0517394 5.75346C0.120423 5.54049 0.254038 5.35436 0.433849 5.22115C0.61366 5.08795 0.83065 5.01437 1.05439 5.01071L5.39992 4.84655C5.42129 4.84507 5.44177 4.83745 5.45891 4.8246C5.47604 4.81175 5.48909 4.79422 5.49649 4.77412L6.99328 0.703808C7.06873 0.497462 7.20576 0.319285 7.38583 0.193399C7.5659 0.0675133 7.78029 0 8 0C8.21971 0 8.4341 0.0675133 8.61417 0.193399C8.79424 0.319285 8.93127 0.497462 9.00671 0.703808L10.5035 4.77412C10.5109 4.79422 10.524 4.81175 10.5411 4.8246C10.5582 4.83745 10.5787 4.84507 10.6001 4.84655L14.9456 5.01071C15.1694 5.01437 15.3863 5.08795 15.5662 5.22115C15.746 5.35436 15.8796 5.54049 15.9483 5.75346C16.0169 5.96644 16.0173 6.19557 15.9491 6.40872C15.881 6.62188 15.7479 6.80837 15.5685 6.94206L12.1596 9.6218C12.1421 9.6348 12.1289 9.6529 12.122 9.67364C12.1151 9.69437 12.1147 9.71674 12.121 9.73768L13.304 13.9094C13.3455 14.0694 13.3496 14.2368 13.316 14.3987C13.2824 14.5606 13.212 14.7125 13.1102 14.8428C13.0084 14.973 12.878 15.0781 12.7291 15.1499C12.5801 15.2216 12.4167 15.2581 12.2514 15.2565ZM7.99276 11.6739C8.20657 11.6804 8.41349 11.7511 8.58665 11.8766L12.1886 14.2908C12.2069 14.3047 12.2291 14.3123 12.252 14.3125C12.275 14.3127 12.2973 14.3054 12.3158 14.2918C12.3343 14.2783 12.3479 14.2591 12.3545 14.2371C12.3612 14.2152 12.3606 14.1917 12.3528 14.1701L11.1698 9.99841C11.1116 9.79377 11.1159 9.5764 11.1822 9.37421C11.2484 9.17203 11.3736 8.99426 11.5416 8.86375L14.9504 6.184C14.969 6.17094 14.9829 6.15226 14.9901 6.13071C14.9973 6.10915 14.9974 6.08586 14.9904 6.06425C14.9834 6.04264 14.9696 6.02385 14.9511 6.01064C14.9326 5.99743 14.9104 5.9905 14.8877 5.99087L10.5421 5.82671C10.3294 5.81841 10.1239 5.74693 9.95188 5.62138C9.77989 5.49583 9.6492 5.3219 9.57646 5.12176L8.07967 1.05145C8.07292 1.02984 8.05944 1.01095 8.0412 0.997535C8.02296 0.984122 8.00091 0.976888 7.97827 0.976888C7.95563 0.976888 7.93358 0.984122 7.91534 0.997535C7.8971 1.01095 7.88363 1.02984 7.87688 1.05145L6.39457 5.11694C6.32183 5.31707 6.19113 5.491 6.01915 5.61655C5.84716 5.7421 5.64167 5.81358 5.42889 5.82188L1.08336 5.98604C1.06064 5.98567 1.0384 5.9926 1.01991 6.00581C1.00142 6.01902 0.987651 6.03781 0.980627 6.05942C0.973603 6.08103 0.973695 6.10432 0.980889 6.12588C0.988083 6.14743 1.002 6.16611 1.02059 6.17918L4.43425 8.86375C4.60177 8.99468 4.72656 9.17248 4.79276 9.37452C4.85896 9.57657 4.86358 9.79374 4.80604 9.99841L3.62791 14.1701C3.62088 14.191 3.62085 14.2136 3.62782 14.2345C3.63479 14.2554 3.64838 14.2735 3.66654 14.286C3.68403 14.301 3.70629 14.3092 3.72931 14.3092C3.75233 14.3092 3.77459 14.301 3.79208 14.286L7.39404 11.8718C7.57007 11.7551 7.77669 11.6929 7.98793 11.6932L7.99276 11.6739Z" fill="#979797"/>
</svg>
