<svg width="22" height="19" viewBox="0 0 22 19" fill="none" xmlns="http://www.w3.org/2000/svg">
<path fill-rule="evenodd" clip-rule="evenodd" d="M10.6823 4.83633L10.7299 5.62269L9.93513 5.5264C7.04202 5.15729 4.51452 3.90553 2.36854 1.80322L1.31939 0.76008L1.04915 1.5304C0.476886 3.24756 0.842499 5.06101 2.03472 6.28067C2.67056 6.9547 2.5275 7.05099 1.43066 6.64978C1.04915 6.52139 0.71533 6.42511 0.683537 6.47325C0.572264 6.58559 0.953773 8.04598 1.2558 8.62371C1.6691 9.42612 2.5116 10.2125 3.43358 10.6779L4.2125 11.047L3.29052 11.063C2.40033 11.063 2.36854 11.0791 2.46391 11.4161C2.78184 12.4592 4.03764 13.5666 5.4365 14.048L6.42207 14.385L5.56367 14.8986C4.29198 15.6368 2.79773 16.054 1.30349 16.0861C0.58816 16.1022 0 16.1664 0 16.2145C0 16.375 1.93934 17.2737 3.06797 17.6268C6.45386 18.6699 10.4756 18.2206 13.4959 16.4392C15.6419 15.1714 17.7879 12.6518 18.7893 10.2125C19.3298 8.91258 19.8703 6.53744 19.8703 5.39802C19.8703 4.6598 19.918 4.56351 20.8081 3.68086C21.3327 3.16731 21.8255 2.60563 21.9209 2.44514C22.0798 2.14023 22.0639 2.14023 21.2532 2.41305C19.9021 2.89449 19.7113 2.8303 20.3789 2.10813C20.8717 1.59459 21.4599 0.663791 21.4599 0.390971C21.4599 0.342826 21.2214 0.423067 20.9512 0.567502C20.6651 0.727984 20.0292 0.968707 19.5523 1.11314L18.6939 1.38596L17.915 0.85637C17.4858 0.567501 16.8818 0.246537 16.5639 0.150248C15.7531 -0.0744277 14.5132 -0.0423312 13.782 0.21444C11.795 0.936611 10.5392 2.79821 10.6823 4.83633Z" fill="white"/>
</svg>
