<svg width="11" height="16" viewBox="0 0 11 16" fill="none" xmlns="http://www.w3.org/2000/svg">
<path d="M5.4999 1.1C6.0438 1.1 6.57549 1.26128 7.02772 1.56346C7.47996 1.86563 7.83243 2.29512 8.04057 2.79762C8.24871 3.30012 8.30317 3.85305 8.19706 4.3865C8.09095 4.91995 7.82904 5.40995 7.44445 5.79454C7.05985 6.17914 6.56985 6.44105 6.0364 6.54716C5.50295 6.65327 4.95002 6.59881 4.44753 6.39067C3.94503 6.18253 3.51554 5.83005 3.21336 5.37782C2.91119 4.92558 2.7499 4.3939 2.7499 3.85C2.7499 3.12065 3.03964 2.42118 3.55536 1.90546C4.07109 1.38973 4.77056 1.1 5.4999 1.1ZM5.4999 0C4.73845 0 3.99409 0.225799 3.36096 0.648842C2.72783 1.07189 2.23437 1.67317 1.94297 2.37667C1.65157 3.08016 1.57533 3.85427 1.72388 4.6011C1.87243 5.34792 2.23911 6.03393 2.77754 6.57236C3.31598 7.11079 4.00198 7.47747 4.74881 7.62602C5.49563 7.77458 6.26974 7.69833 6.97324 7.40694C7.67673 7.11554 8.27802 6.62207 8.70106 5.98895C9.12411 5.35582 9.3499 4.61146 9.3499 3.85C9.3499 2.82892 8.94428 1.84965 8.22226 1.12764C7.50025 0.405624 6.52099 0 5.4999 0Z" fill="#7D7D7D"/>
<path d="M11 15.3998H9.9V12.6498C9.9 11.9205 9.61027 11.221 9.09454 10.7053C8.57882 10.1895 7.87935 9.8998 7.15 9.8998H3.85C3.12065 9.8998 2.42118 10.1895 1.90546 10.7053C1.38973 11.221 1.1 11.9205 1.1 12.6498V15.3998H0V12.6498C0 11.6287 0.405624 10.6495 1.12764 9.92744C1.84965 9.20543 2.82892 8.7998 3.85 8.7998H7.15C8.17108 8.7998 9.15035 9.20543 9.87236 9.92744C10.5944 10.6495 11 11.6287 11 12.6498V15.3998Z" fill="#7D7D7D"/>
</svg>
