<svg width="22" height="16" viewBox="0 0 22 16" fill="none" xmlns="http://www.w3.org/2000/svg">
<path fill-rule="evenodd" clip-rule="evenodd" d="M19.5951 0.47208C20.5417 0.731838 21.2872 1.49721 21.5402 2.46917C22 4.23074 22 7.90625 22 7.90625C22 7.90625 22 11.5816 21.5402 13.3433C21.2872 14.3153 20.5417 15.0807 19.5951 15.3405C17.8796 15.8125 11 15.8125 11 15.8125C11 15.8125 4.12037 15.8125 2.40475 15.3405C1.45812 15.0807 0.712625 14.3153 0.459625 13.3433C0 11.5816 0 7.90625 0 7.90625C0 7.90625 0 4.23074 0.459625 2.46917C0.712625 1.49721 1.45812 0.731838 2.40475 0.47208C4.12037 0 11 0 11 0C11 0 17.8796 0 19.5951 0.47208ZM8.93752 4.81243V11.6874L14.4375 8.25006L8.93752 4.81243Z" fill="white"/>
</svg>
