<svg width="20" height="19" viewBox="0 0 20 19" fill="none" xmlns="http://www.w3.org/2000/svg">
<path d="M13.936 11.8636H13.1079L12.8144 11.5806C13.8416 10.3857 14.4601 8.8343 14.4601 7.14667C14.4601 3.38357 11.4098 0.333252 7.64667 0.333252C3.88357 0.333252 0.833252 3.38357 0.833252 7.14667C0.833252 10.9098 3.88357 13.9601 7.64667 13.9601C9.3343 13.9601 10.8857 13.3416 12.0806 12.3144L12.3636 12.6079V13.436L17.6047 18.6666L19.1666 17.1047L13.936 11.8636ZM7.64667 11.8636C5.03661 11.8636 2.92969 9.75673 2.92969 7.14667C2.92969 4.53661 5.03661 2.42969 7.64667 2.42969C10.2567 2.42969 12.3636 4.53661 12.3636 7.14667C12.3636 9.75673 10.2567 11.8636 7.64667 11.8636ZM8.17078 4.52612H7.12256V6.62256H5.02612V7.67078H7.12256V9.76721H8.17078V7.67078H10.2672V6.62256H8.17078V4.52612Z" fill="white"/>
</svg>
