<svg width="19" height="19" viewBox="0 0 19 19" fill="none" xmlns="http://www.w3.org/2000/svg">
<path d="M13.6418 12.0104H12.8137L12.5202 11.7274C13.5475 10.5324 14.1659 8.98104 14.1659 7.29341C14.1659 3.5303 11.1156 0.47998 7.35249 0.47998C3.58938 0.47998 0.539062 3.5303 0.539062 7.29341C0.539062 11.0565 3.58938 14.1068 7.35249 14.1068C9.04013 14.1068 10.5915 13.4884 11.7865 12.4611L12.0695 12.7546V13.5827L17.3106 18.8133L18.8724 17.2515L13.6418 12.0104ZM7.35249 12.0104C4.74242 12.0104 2.6355 9.90348 2.6355 7.29341C2.6355 4.68334 4.74242 2.57642 7.35249 2.57642C9.96256 2.57642 12.0695 4.68334 12.0695 7.29341C12.0695 9.90348 9.96256 12.0104 7.35249 12.0104ZM7.8766 4.67286H6.82838V6.7693H4.73194V7.81752H6.82838V9.91396H7.8766V7.81752H9.97304V6.7693H7.8766V4.67286Z" fill="#FF0000"/>
</svg>
