<svg width="20" height="27" viewBox="0 0 20 27" fill="none" xmlns="http://www.w3.org/2000/svg">
<path d="M10 0.833335C9.38096 0.369055 8.64486 0.0863297 7.87419 0.0168382C7.10352 -0.0526534 6.32872 0.0938347 5.63661 0.439888C4.9445 0.785942 4.36243 1.31789 3.95562 1.97612C3.54881 2.63436 3.33333 3.39287 3.33333 4.16667V6.66667H1.66667C1.22464 6.66667 0.800716 6.84226 0.488156 7.15482C0.175595 7.46738 0 7.89131 0 8.33333V21.6667C0 22.9928 0.526784 24.2645 1.46447 25.2022C2.40215 26.1399 3.67392 26.6667 5 26.6667H15.8333C16.9384 26.6667 17.9982 26.2277 18.7796 25.4463C19.561 24.6649 20 23.6051 20 22.5V8.33333C20 7.89131 19.8244 7.46738 19.5118 7.15482C19.1993 6.84226 18.7754 6.66667 18.3333 6.66667H16.6667V4.16667C16.6667 3.39287 16.4512 2.63436 16.0444 1.97612C15.6376 1.31789 15.0555 0.785942 14.3634 0.439888C13.6713 0.0938347 12.8965 -0.0526534 12.1258 0.0168382C11.3551 0.0863297 10.619 0.369055 10 0.833335ZM5 4.16667C5 3.50363 5.26339 2.86774 5.73223 2.3989C6.20107 1.93006 6.83696 1.66667 7.5 1.66667C8.16304 1.66667 8.79893 1.93006 9.26777 2.3989C9.73661 2.86774 10 3.50363 10 4.16667V6.66667H5V4.16667ZM11.1117 2.08667C11.4882 1.83525 11.9259 1.69079 12.3781 1.66871C12.8303 1.64664 13.28 1.74777 13.6792 1.96132C14.0784 2.17487 14.4122 2.49282 14.6448 2.88123C14.8774 3.26964 15.0002 3.71393 15 4.16667V6.66667H11.6667V4.16667C11.6667 3.41 11.465 2.7 11.1117 2.08667ZM5 25C4.11594 25 3.2681 24.6488 2.64298 24.0237C2.01786 23.3986 1.66667 22.5507 1.66667 21.6667V8.33333H11.6667V22.5C11.6667 23.4383 11.9767 24.3033 12.5 25H5ZM18.3333 22.5C18.3333 23.163 18.0699 23.7989 17.6011 24.2678C17.1323 24.7366 16.4964 25 15.8333 25C15.1703 25 14.5344 24.7366 14.0656 24.2678C13.5967 23.7989 13.3333 23.163 13.3333 22.5V8.33333H18.3333V22.5Z" fill="white"/>
</svg>
