<svg width="100" height="32" viewBox="0 0 100 32" fill="none" xmlns="http://www.w3.org/2000/svg">
<path d="M4.45107 4.45134C5.08051 3.7975 5.83621 3.27832 6.67232 2.92529C7.50843 2.57226 8.40755 2.39275 9.31512 2.39764C10.1574 2.38991 10.9926 2.55274 11.7703 2.87632C12.5087 3.19274 13.1916 3.62544 13.7931 4.15796C14.0368 4.36712 14.3528 4.47245 14.6733 4.45134C14.841 4.44149 15.0051 4.39855 15.1562 4.32501C15.3072 4.25147 15.4422 4.14878 15.5534 4.02284C15.7614 3.77008 15.8613 3.44548 15.8314 3.11952C15.8229 2.96085 15.7818 2.80563 15.7108 2.66351C15.6397 2.52138 15.5402 2.3954 15.4183 2.29341C14.6167 1.56289 13.6859 0.988175 12.6736 0.598715C11.6008 0.193102 10.462 -0.0097866 9.31512 0.000362787C8.06524 -0.00980848 6.82687 0.239962 5.67865 0.733826C3.43373 1.69016 1.65673 3.49352 0.733549 5.75228C0.0138548 7.4814 -0.181754 9.38391 0.171025 11.2233C0.523805 13.0627 1.40942 14.7578 2.71777 16.098C3.56506 16.954 4.57067 17.6371 5.67865 18.1093C6.82687 18.6031 8.06524 18.8529 9.31512 18.8427C10.462 18.8529 11.6008 18.65 12.6736 18.2444C13.6859 17.8549 14.6167 17.2802 15.4183 16.5497C15.5402 16.4477 15.6397 16.3217 15.7108 16.1796C15.7818 16.0375 15.8229 15.8822 15.8314 15.7236C15.8613 15.3976 15.7614 15.073 15.5534 14.8202C15.4422 14.6943 15.3072 14.5916 15.1562 14.5181C15.0051 14.4445 14.841 14.4016 14.6733 14.3917C14.3528 14.3706 14.0368 14.476 13.7931 14.6851C13.1916 15.2176 12.5087 15.6503 11.7703 15.9668C10.9926 16.2903 10.1574 16.4532 9.31512 16.4454C8.38587 16.4545 7.46513 16.2677 6.61287 15.8973C5.79807 15.5473 5.0597 15.041 4.4395 14.4072C3.81997 13.7648 3.33095 13.0084 2.99957 12.1798C2.30975 10.415 2.30975 8.45513 2.99957 6.69034C3.3361 5.85823 3.8288 5.09822 4.45107 4.45134Z" fill="white"/>
<path d="M21.1263 5.995C20.9665 5.99154 20.8078 6.0221 20.6607 6.08466C20.5136 6.14723 20.3815 6.24035 20.2731 6.35787C20.1605 6.47157 20.0718 6.60664 20.0121 6.75514C19.9524 6.90364 19.9231 7.06257 19.9257 7.22259V17.4834C19.923 17.644 19.9523 17.8035 20.0119 17.9527C20.0716 18.1018 20.1604 18.2375 20.2731 18.352C20.383 18.4673 20.5155 18.5586 20.6623 18.6204C20.8091 18.6822 20.967 18.713 21.1263 18.711C21.29 18.7168 21.4532 18.6878 21.6049 18.6259C21.7566 18.564 21.8935 18.4707 22.0064 18.352C22.1192 18.2375 22.208 18.1018 22.2676 17.9527C22.3273 17.8035 22.3566 17.644 22.3539 17.4834V7.21873C22.3565 7.05871 22.3271 6.89978 22.2675 6.75128C22.2078 6.60278 22.1191 6.46771 22.0064 6.35401C21.8935 6.23531 21.7566 6.14192 21.6049 6.08004C21.4532 6.01815 21.29 5.98917 21.1263 5.995Z" fill="white"/>
<path d="M60.9129 2.45038V2.40019C60.9129 2.36931 60.9129 2.33457 60.9129 2.29983C60.9129 2.2535 60.9128 2.20718 60.8781 2.16085C60.8367 2.01364 60.7658 1.87642 60.6695 1.75761C60.5733 1.63879 60.4538 1.54087 60.3184 1.46985H60.299L60.2527 1.44669H60.2025C59.9351 1.32536 59.6315 1.31018 59.3533 1.40423C59.2008 1.45358 59.0597 1.53298 58.9384 1.63774C58.817 1.74249 58.7179 1.87048 58.6468 2.01416L52.8061 13.1744L47.0156 1.96012C46.8703 1.6712 46.6162 1.45181 46.3092 1.35018C46.0298 1.25511 45.7246 1.2703 45.456 1.39265H45.4097L45.3634 1.41581C45.2284 1.48803 45.1091 1.58628 45.0124 1.70489C44.9156 1.8235 44.8434 1.9601 44.7998 2.10681C44.7998 2.15313 44.7766 2.19946 44.7689 2.24578C44.7672 2.27922 44.7672 2.31271 44.7689 2.34615C44.7668 2.36281 44.7668 2.37967 44.7689 2.39634C44.7689 2.39634 44.7689 2.43494 44.7689 2.45424V17.4285C44.7661 17.5891 44.7955 17.7487 44.8551 17.8978C44.9148 18.0469 45.0036 18.1827 45.1163 18.2971C45.2262 18.4124 45.3587 18.5038 45.5055 18.5655C45.6523 18.6273 45.8102 18.6582 45.9694 18.6561C46.1332 18.6619 46.2963 18.633 46.448 18.5711C46.5998 18.5092 46.7367 18.4158 46.8496 18.2971C47.0745 18.0644 47.198 17.7521 47.1932 17.4285V7.47655L51.7947 16.3553C51.841 16.4476 51.8994 16.5333 51.9684 16.6101C52.108 16.7722 52.2897 16.8925 52.4934 16.9576H52.5398H52.5822H52.6363H52.7096H53.0416H53.1111H53.1651H53.2115H53.2539C53.4576 16.8925 53.6394 16.7722 53.7789 16.6101C53.8505 16.5345 53.9104 16.4487 53.9565 16.3553L58.5542 7.47655V17.4826C58.5515 17.6432 58.5808 17.8027 58.6404 17.9518C58.7001 18.101 58.7889 18.2367 58.9016 18.3511C59.0146 18.4698 59.1514 18.5632 59.3032 18.6251C59.4549 18.687 59.618 18.716 59.7818 18.7102C59.941 18.7122 60.099 18.6814 60.2458 18.6196C60.3926 18.5578 60.525 18.4664 60.6349 18.3511C60.8598 18.1184 60.9833 17.8061 60.9785 17.4826V2.50829C60.9596 2.48581 60.9375 2.46629 60.9129 2.45038Z" fill="white"/>
<path d="M39.39 6.36905C39.2772 6.25922 39.1437 6.17295 38.9972 6.11529C38.8507 6.05762 38.6942 6.02972 38.5368 6.0332H30.8779V2.55889C30.8809 2.39826 30.8516 2.23866 30.792 2.08949C30.7323 1.94032 30.6434 1.8046 30.5305 1.69031C30.4175 1.57161 30.2807 1.47823 30.1289 1.41634C29.9772 1.35446 29.8141 1.32547 29.6503 1.3313C29.4911 1.32926 29.3331 1.3601 29.1863 1.42187C29.0395 1.48364 28.9071 1.57503 28.7972 1.69031C28.6848 1.80479 28.5965 1.94063 28.5375 2.08982C28.4785 2.239 28.4499 2.3985 28.4536 2.55889V6.0332H26.701C26.541 6.03056 26.3821 6.05993 26.2336 6.1196C26.0851 6.17926 25.95 6.26801 25.8363 6.38064C25.721 6.49051 25.6296 6.62299 25.5679 6.76978C25.5061 6.91657 25.4753 7.07452 25.4773 7.23377C25.4715 7.39753 25.5004 7.56066 25.5623 7.71238C25.6242 7.86411 25.7176 8.00097 25.8363 8.11393C25.95 8.22655 26.0851 8.31531 26.2336 8.37497C26.3821 8.43464 26.541 8.46401 26.701 8.46137H28.4536V17.5216C28.4502 17.682 28.4788 17.8414 28.5378 17.9905C28.5968 18.1397 28.685 18.2756 28.7972 18.3902C28.9071 18.5055 29.0395 18.5968 29.1863 18.6586C29.3331 18.7204 29.4911 18.7512 29.6503 18.7492C29.8141 18.755 29.9772 18.726 30.1289 18.6641C30.2807 18.6023 30.4175 18.5089 30.5305 18.3902C30.6432 18.2758 30.732 18.14 30.7917 17.9909C30.8513 17.8417 30.8806 17.6822 30.8779 17.5216V8.42662H37.3015V17.4869C37.2988 17.6475 37.3281 17.807 37.3878 17.9561C37.4474 18.1053 37.5362 18.241 37.649 18.3554C37.7578 18.4721 37.8901 18.5643 38.0371 18.6262C38.1842 18.6881 38.3426 18.7182 38.5021 18.7144C38.6652 18.7197 38.8276 18.6905 38.9786 18.6286C39.1296 18.5667 39.2659 18.4736 39.3784 18.3554C39.4911 18.241 39.5799 18.1053 39.6396 17.9561C39.6992 17.807 39.7286 17.6475 39.7258 17.4869V7.19903C39.7277 7.04532 39.699 6.89277 39.6414 6.75027C39.5837 6.60778 39.4982 6.47819 39.39 6.36905Z" fill="white"/>
<path d="M75.8503 5.99565C75.6906 5.99244 75.5319 6.02311 75.3849 6.08566C75.2378 6.1482 75.1057 6.2412 74.9972 6.35852C74.8846 6.47222 74.7958 6.60729 74.7361 6.75579C74.6765 6.90429 74.6471 7.06322 74.6498 7.22324V7.99531C74.4374 7.64146 74.1673 7.32569 73.8507 7.0611C73.5297 6.795 73.1754 6.5718 72.7968 6.39712C72.4054 6.22098 71.9947 6.09142 71.5731 6.01109C71.1475 5.92409 70.7142 5.88012 70.2799 5.87984C69.4505 5.87584 68.6278 6.0291 67.8555 6.3315C67.0936 6.62609 66.4001 7.07369 65.8178 7.64667C65.2355 8.21965 64.7769 8.90587 64.47 9.66298C63.7906 11.4004 63.7906 13.33 64.47 15.0675C64.7843 15.8326 65.2505 16.526 65.8405 17.1057C66.4265 17.6556 67.1134 18.0869 67.8633 18.3758C68.6329 18.689 69.4567 18.8477 70.2876 18.8429C70.7228 18.843 71.1566 18.7938 71.5808 18.6962C72.0039 18.6031 72.4147 18.4606 72.8045 18.2716C73.1812 18.0872 73.535 17.8592 73.8584 17.5921C74.176 17.3284 74.4462 17.0125 74.6575 16.6579V17.484C74.6547 17.6446 74.6841 17.8042 74.7437 17.9533C74.8034 18.1025 74.8922 18.2382 75.0049 18.3526C75.1148 18.4679 75.2473 18.5593 75.3941 18.6211C75.5408 18.6828 75.6988 18.7137 75.8581 18.7116C76.0218 18.7175 76.1849 18.6885 76.3367 18.6266C76.4884 18.5647 76.6252 18.4713 76.7382 18.3526C76.8509 18.2382 76.9397 18.1025 76.9994 17.9533C77.059 17.8042 77.0884 17.6446 77.0856 17.484V7.21938C77.0883 7.05936 77.0589 6.90043 76.9992 6.75193C76.9396 6.60344 76.8508 6.46836 76.7382 6.35466C76.6244 6.23496 76.4862 6.141 76.3331 6.07907C76.18 6.01715 76.0154 5.98871 75.8503 5.99565ZM74.3062 14.0715C74.098 14.566 73.7891 15.0117 73.399 15.3802C73.0178 15.7343 72.5705 16.0098 72.0826 16.1908C71.5793 16.3803 71.0454 16.4758 70.5076 16.4726C69.9634 16.4765 69.424 16.3715 68.921 16.1638C68.4428 15.9668 68.0085 15.6768 67.6432 15.3107C67.2726 14.9364 66.9788 14.4931 66.7785 14.0059C66.5574 13.47 66.4484 12.8946 66.4581 12.315C66.448 11.7392 66.5571 11.1675 66.7785 10.6358C66.975 10.1581 67.2661 9.72517 67.6343 9.36294C68.0025 9.00072 68.4402 8.71672 68.921 8.52803C69.4266 8.33083 69.9649 8.23128 70.5076 8.23465C71.0172 8.23673 71.5226 8.32684 72.0016 8.50102C72.4902 8.67214 72.9421 8.93409 73.3334 9.27309C73.7362 9.62665 74.0587 10.0623 74.2792 10.5509C74.5264 11.1042 74.649 11.7052 74.6382 12.3112C74.6457 12.9157 74.5274 13.5152 74.2908 14.0715H74.3062Z" fill="white"/>
<path d="M89.6579 6.12854C89.4133 6.01751 89.1527 5.94585 88.8858 5.91621C88.63 5.88007 88.372 5.86201 88.1137 5.86217C87.3501 5.84361 86.6042 6.09361 86.006 6.56861C85.3249 7.19935 84.8511 8.02175 84.6471 8.92728V7.21715C84.6496 7.05749 84.6206 6.89891 84.5616 6.75051C84.5027 6.60212 84.415 6.46684 84.3036 6.35244C84.1909 6.23304 84.0542 6.13894 83.9025 6.07638C83.7508 6.01382 83.5874 5.98422 83.4234 5.98956C83.2636 5.9861 83.1049 6.01667 82.9578 6.07923C82.8107 6.14179 82.6786 6.23492 82.5702 6.35244C82.4576 6.46614 82.3689 6.60121 82.3092 6.74971C82.2495 6.89821 82.2202 7.05714 82.2228 7.21715V17.478C82.2201 17.6386 82.2494 17.7981 82.3091 17.9472C82.3687 18.0964 82.4575 18.2321 82.5702 18.3465C82.6801 18.4618 82.8126 18.5532 82.9594 18.615C83.1062 18.6768 83.2641 18.7076 83.4234 18.7055C83.5871 18.7114 83.7503 18.6824 83.902 18.6205C84.0537 18.5586 84.1906 18.4652 84.3036 18.3465C84.5284 18.1138 84.6519 17.8015 84.6471 17.478V14.0384C84.644 13.2618 84.7112 12.4866 84.8479 11.7222C84.9597 11.0739 85.1666 10.4456 85.4617 9.85763C85.7077 9.36549 86.0693 8.9403 86.5155 8.61846C86.9694 8.30768 87.5098 8.14824 88.0597 8.16294H88.3415C88.4347 8.1639 88.5277 8.17294 88.6194 8.18996C88.992 8.23246 89.3693 8.19696 89.7273 8.08573C89.8837 8.02785 90.0205 7.92672 90.1216 7.79414C90.2228 7.66155 90.2842 7.50296 90.2987 7.33682C90.3625 7.07377 90.3195 6.79614 90.179 6.56475C90.0467 6.37599 89.867 6.22551 89.6579 6.12854Z" fill="white"/>
<path d="M99.6908 6.42363C99.5944 6.3282 99.4798 6.25307 99.3538 6.20268C99.2278 6.15229 99.093 6.12766 98.9574 6.13024H97.2009V2.5324C97.2037 2.37212 97.1748 2.21287 97.1158 2.06381C97.0569 1.91474 96.969 1.77881 96.8573 1.66382C96.7444 1.54512 96.6075 1.45174 96.4558 1.38985C96.3041 1.32797 96.1409 1.29898 95.9772 1.30481C95.8179 1.30278 95.66 1.33361 95.5132 1.39538C95.3664 1.45715 95.2339 1.54854 95.124 1.66382C95.0111 1.77811 94.9222 1.91383 94.8625 2.063C94.8029 2.21217 94.7736 2.37177 94.7766 2.5324V6.13024H93.4448C93.3091 6.12766 93.1743 6.15229 93.0483 6.20268C92.9224 6.25307 92.8078 6.3282 92.7113 6.42363C92.6125 6.5149 92.5343 6.6261 92.4817 6.74988C92.4291 6.87366 92.4035 7.0072 92.4064 7.14166C92.4015 7.28093 92.4262 7.41966 92.4787 7.54873C92.5313 7.6778 92.6106 7.79429 92.7113 7.89056C92.9078 8.08047 93.1716 8.18462 93.4448 8.18009H94.7766V17.4835C94.7739 17.6441 94.8032 17.8037 94.8629 17.9528C94.9225 18.1019 95.0113 18.2377 95.124 18.3521C95.2339 18.4674 95.3664 18.5588 95.5132 18.6205C95.66 18.6823 95.8179 18.7132 95.9772 18.7111C96.1409 18.7169 96.3041 18.688 96.4558 18.6261C96.6075 18.5642 96.7444 18.4708 96.8573 18.3521C97.0822 18.1194 97.2057 17.8071 97.2009 17.4835V8.18009H98.9612C99.2344 8.18462 99.4982 8.08047 99.6947 7.89056C99.7934 7.7984 99.8715 7.68649 99.9241 7.56211C99.9766 7.43773 100.002 7.30368 99.9997 7.16868C100.004 7.0297 99.9786 6.89139 99.9254 6.76293C99.8721 6.63448 99.7922 6.51882 99.6908 6.42363Z" fill="white"/>
<path d="M38.5236 1.30408C38.2096 1.30332 37.9025 1.39572 37.641 1.56959C37.3796 1.74347 37.1757 1.99099 37.055 2.28084C36.9343 2.57068 36.9023 2.88982 36.9631 3.19784C37.0239 3.50587 37.1747 3.78893 37.3964 4.01121C37.6182 4.23349 37.9009 4.38498 38.2088 4.44651C38.5166 4.50805 38.8358 4.47685 39.126 4.35688C39.4161 4.23691 39.6641 4.03355 39.8386 3.77255C40.0131 3.51156 40.1063 3.20465 40.1063 2.89068C40.1063 2.47056 39.9397 2.06758 39.643 1.77015C39.3462 1.47271 38.9437 1.3051 38.5236 1.30408Z" fill="white"/>
<path d="M21.1239 1.30408C20.8101 1.30408 20.5034 1.39713 20.2425 1.57147C19.9816 1.74581 19.7782 1.9936 19.6581 2.28351C19.538 2.57343 19.5066 2.89244 19.5678 3.20021C19.6291 3.50798 19.7802 3.79069 20.0021 4.01258C20.2239 4.23447 20.5066 4.38558 20.8144 4.4468C21.1222 4.50802 21.4412 4.47659 21.7311 4.35651C22.021 4.23642 22.2688 4.03306 22.4432 3.77215C22.6175 3.51123 22.7105 3.20448 22.7105 2.89068C22.7105 2.46989 22.5434 2.06633 22.2458 1.76878C21.9483 1.47124 21.5447 1.30408 21.1239 1.30408Z" fill="white"/>
<path d="M83.5264 20.8168C83.2716 21.0484 83.013 21.2801 82.7543 21.5078L82.3683 21.8475L82.1714 22.0174L81.9668 22.1795L81.1407 22.8203L80.7276 23.1369L80.2991 23.438C80.0135 23.6349 79.7278 23.824 79.4383 24.0286C79.2916 24.1251 79.1487 24.2294 79.002 24.3182L78.5543 24.5961C77.9636 24.9821 77.3614 25.3296 76.7476 25.6616C74.2836 27.0126 71.6988 28.1305 69.0269 29.0008C63.6412 30.7326 58.011 31.5825 52.3541 31.5177C49.5276 31.502 46.7069 31.2593 43.9192 30.792C41.1331 30.3311 38.3914 29.6338 35.7237 28.7074C33.0644 27.7854 30.4986 26.613 28.0609 25.206L27.6054 24.9435L27.1615 24.6617C26.8642 24.4764 26.5708 24.2757 26.2774 24.0981C26.1308 24.0016 25.9841 23.9128 25.8374 23.8125L25.4089 23.5075C25.1232 23.3068 24.8414 23.1022 24.5596 22.8976C24.2778 22.693 24.0037 22.4768 23.7335 22.2567L22.9228 21.6005C22.7877 21.4924 22.6603 21.3727 22.5368 21.2569L22.1507 20.9056C21.8959 20.6701 21.6412 20.4347 21.3787 20.1953C21.6952 20.342 22.0118 20.4887 22.3206 20.6393C22.6294 20.7898 22.9344 20.9442 23.2509 21.0832L24.1851 21.5001C24.4978 21.6391 24.8028 21.7896 25.1193 21.9132C26.3778 22.442 27.6286 22.9439 28.9025 23.3917C31.4291 24.2893 34.0073 25.0344 36.6232 25.623C41.8008 26.7991 47.091 27.4088 52.4004 27.4412C57.7161 27.4912 63.022 26.9735 68.2278 25.897C70.835 25.3575 73.4079 24.664 75.9331 23.8202L76.4118 23.6658L76.655 23.5886L76.8904 23.4998L77.8439 23.1562L78.3226 22.9863C78.4848 22.9284 78.6392 22.8628 78.7975 22.801C79.1101 22.6737 79.4267 22.554 79.7471 22.415L80.2142 22.276L80.6852 22.0753L81.6309 21.6893L81.8664 21.5889L82.1019 21.4808L82.569 21.2685L83.5264 20.8168Z" fill="white"/>
</svg>
