<svg width="22" height="23" viewBox="0 0 22 23" fill="none" xmlns="http://www.w3.org/2000/svg">
<path d="M18.8574 13.3198L18.0647 8.17334C17.9869 7.6678 17.7309 7.20675 17.3429 6.87353C16.9548 6.54031 16.4604 6.3569 15.9489 6.35645H4.62654C4.11469 6.35638 3.61973 6.53957 3.23125 6.87283C2.84276 7.2061 2.58642 7.66744 2.50862 8.17334L1.0249 17.8149C0.977939 18.1202 0.997566 18.4321 1.08243 18.7291C1.16729 19.0262 1.31539 19.3013 1.51656 19.5358C1.71773 19.7702 1.96721 19.9584 2.24792 20.0874C2.52862 20.2164 2.8339 20.2831 3.14282 20.2831H10.2872" stroke="#92929D" stroke-width="1.8" stroke-linecap="round" stroke-linejoin="round"/>
<path d="M12.4297 18.1405L15.6435 21.3543L20.9999 15.9979" stroke="#92929D" stroke-width="1.8" stroke-linecap="round" stroke-linejoin="round"/>
<path d="M12.4297 3.14256C12.4297 2.57432 12.2039 2.02935 11.8021 1.62754C11.4003 1.22573 10.8553 1 10.2871 1C9.71885 1 9.17388 1.22573 8.77207 1.62754C8.37027 2.02935 8.14453 2.57432 8.14453 3.14256" stroke="#92929D" stroke-width="1.8" stroke-linecap="round" stroke-linejoin="round"/>
</svg>
