<svg width="80" height="35" viewBox="0 0 80 35" fill="none" xmlns="http://www.w3.org/2000/svg">
<path d="M77.4802 0H2.51983C1.12816 0 0 1.5706 0 3.50803V31.492C0 33.4294 1.12816 35 2.51983 35H77.4802C78.8718 35 80 33.4294 80 31.492V3.50803C80 1.5706 78.8718 0 77.4802 0Z" fill="white"/>
<path d="M21.1207 12.5275L20.2604 10.1669L19.4002 12.5275H21.1207ZM40.279 11.5679C40.0848 11.6761 39.8667 11.7194 39.651 11.6927H38.1111V10.378H39.6768C39.8822 10.3598 40.0885 10.396 40.279 10.4836C40.3644 10.5334 40.435 10.6098 40.4823 10.7035C40.5297 10.7971 40.5517 10.9041 40.5457 11.0114C40.5515 11.1226 40.5297 11.2333 40.4826 11.3315C40.4356 11.4298 40.3651 11.5116 40.279 11.5679ZM51.2819 12.5275L50.4216 10.1669L49.5613 12.5275H51.2819ZM30.7386 15.0897H29.4395V10.4452L27.5986 15.0897H26.4802L24.6306 10.4452V15.0897H22.0498L21.568 13.7654H18.9184L18.4281 15.0897H17.0516L19.3227 9.15937H21.2067L23.366 14.773V9.15937H25.4393L27.0996 13.18L28.6309 9.15937H30.7386V15.0897ZM35.9002 15.0897H31.6591V9.15937H35.9002V10.3972H32.9753V11.4624H35.9002V12.6811H32.9753V13.8614H35.9432L35.9002 15.0897ZM41.8791 10.7619C41.8935 11.0901 41.8192 11.4156 41.6658 11.6962C41.5124 11.9768 41.287 12.1996 41.0188 12.3356C41.2635 12.4383 41.4799 12.6103 41.6468 12.8346C41.8236 13.1598 41.8992 13.541 41.8619 13.919V15.0897H40.5801V14.3412C40.6329 13.9434 40.5632 13.5374 40.3822 13.1897C40.2016 12.9785 39.9177 12.9306 39.4531 12.9306H38.0939V15.0897H36.8293V9.15937H39.7456C40.2728 9.10031 40.8045 9.19969 41.2855 9.44724C41.4949 9.57339 41.6667 9.765 41.7798 9.99855C41.8929 10.2321 41.9423 10.4974 41.9221 10.7619H41.8791ZM43.9093 15.0897H42.6189V9.15937H43.9093V15.0897ZM58.9383 15.0897H57.1403L54.8262 10.6371V15.0897H52.2454L51.7464 13.7654H49.0624L48.5806 15.0897H47.0837C46.4917 15.1798 45.8918 15.004 45.4159 14.6009C44.94 14.1979 44.6271 13.6005 44.5459 12.9401C44.5115 12.6857 44.5115 12.4269 44.5459 12.1725C44.5152 11.7545 44.5595 11.3338 44.6762 10.9351C44.7929 10.5364 44.9797 10.1676 45.2256 9.85025C45.4897 9.5985 45.7961 9.40779 46.1269 9.28919C46.4577 9.17059 46.8063 9.12647 47.1526 9.15937H48.3828V10.4356H47.1784C47.0036 10.4116 46.8262 10.4301 46.6584 10.4897C46.4907 10.5494 46.3364 10.6487 46.2063 10.7811C45.9382 11.162 45.8091 11.6419 45.845 12.1245C45.8049 12.6195 45.9272 13.1138 46.1891 13.5159C46.4305 13.7362 46.738 13.846 47.0493 13.823H47.6171L49.4065 9.15937H51.3851L53.5358 14.7634V9.15937H55.4628L57.6995 13.2856V9.15937H58.9985V15.0897H58.9383ZM17.0086 16.2508H19.1765L19.6669 14.9361H20.7594L21.2411 16.2508H25.5425V15.2912L25.921 16.2508H28.1577L28.5363 15.224V16.2508H39.1434V14.0629H39.3413C39.4875 14.0629 39.5306 14.0629 39.5306 14.3412V16.2604H45.0191V15.7518C45.6509 16.1056 46.3512 16.2803 47.0579 16.2604H49.3635L49.8538 14.9457H50.9464L51.4367 16.2604H55.8757V15.0225L56.5554 16.2699H60.1169V8.00785H56.5898V8.96744L56.0908 8.00785H52.4777V8.96744L52.0217 8.00785H47.1354C46.4023 7.96781 45.6719 8.13273 45.0105 8.48764V8.00785H41.6382V8.48764C41.2306 8.13166 40.7175 7.96032 40.2016 8.00785H27.8824L27.0222 10.1381L26.1619 8.00785H22.2735V8.96744L21.852 8.00785H18.5399L17 11.9326V16.2699L17.0086 16.2508Z" fill="url(#paint0_radial)"/>
<path d="M62.2164 20.6255H59.9022C59.7282 20.599 59.5511 20.6325 59.3946 20.7215C59.3314 20.7675 59.281 20.8323 59.249 20.9086C59.2171 20.985 59.2049 21.0697 59.214 21.1533C59.2103 21.2492 59.2354 21.3437 59.2853 21.4219C59.3351 21.5001 59.4069 21.5575 59.4892 21.5851C59.6476 21.641 59.8138 21.6637 59.9796 21.6523H60.6678C61.1832 21.5962 61.698 21.7647 62.1045 22.1225C62.1514 22.1665 62.192 22.2183 62.2249 22.276L62.2164 20.6255ZM62.2249 24.4927C62.0143 24.7646 61.7478 24.9755 61.4482 25.1075C61.1486 25.2395 60.8247 25.2887 60.5044 25.2508H58.0526V23.9841H60.4958C60.6789 24.0055 60.8627 23.9508 61.0119 23.8306C61.0588 23.7814 61.096 23.7219 61.1212 23.6558C61.1464 23.5897 61.159 23.5185 61.1582 23.4468C61.1623 23.3722 61.1503 23.2976 61.1234 23.2291C61.0965 23.1607 61.0553 23.1005 61.0033 23.0533C60.8738 22.95 60.7139 22.9054 60.556 22.9286C59.3688 22.9286 57.8805 22.9286 57.8805 21.0862C57.8781 20.8308 57.9253 20.5778 58.0189 20.3448C58.1126 20.1117 58.2504 19.9041 58.423 19.7363C58.5955 19.5684 58.7987 19.4443 59.0185 19.3725C59.2382 19.3008 59.4692 19.283 59.6957 19.3205H62.2249V18.1402H59.8764C59.3129 18.1121 58.7559 18.2834 58.2849 18.6296V18.1402H54.8438C54.3043 18.1108 53.7715 18.283 53.3297 18.6296V18.1402H47.0841V18.6296C46.5614 18.2944 45.9664 18.1251 45.3636 18.1402H41.2773V18.6296C40.7439 18.2551 40.1161 18.0834 39.4879 18.1402H34.9027L33.8531 19.4069L32.8724 18.1402H25.9902V26.4119H32.709L33.7929 25.126L34.808 26.4119H38.9459V24.4927H39.3503C39.9527 24.5416 40.5575 24.4433 41.1224 24.2048V26.4407H44.5635V24.2816H44.727C44.9334 24.2816 44.9592 24.2816 44.9592 24.5311V26.4503H55.3427C55.9513 26.476 56.5521 26.2917 57.0633 25.9225V26.4503H60.3581C60.9951 26.4729 61.6289 26.342 62.2164 26.0665V24.5215L62.2249 24.4927ZM57.1579 22.1225C57.2978 22.2898 57.4039 22.4885 57.4692 22.7053C57.5345 22.9222 57.5574 23.152 57.5365 23.3796C57.5365 24.6558 56.831 25.2508 55.5406 25.2508H53.106V23.9841H55.5664C55.7522 24.0052 55.9386 23.9507 56.0912 23.8306C56.1381 23.7814 56.1753 23.7219 56.2004 23.6558C56.2256 23.5897 56.2382 23.5185 56.2374 23.4468C56.2395 23.3724 56.2267 23.2986 56.1999 23.2305C56.1731 23.1624 56.133 23.1019 56.0826 23.0533C55.9489 22.9515 55.7879 22.9041 55.6266 22.919C54.4395 22.919 52.9512 22.967 52.9512 21.0862C52.9487 20.8308 52.9959 20.5778 53.0896 20.3448C53.1832 20.1117 53.3211 19.9041 53.4936 19.7363C53.6662 19.5684 53.8694 19.4443 54.0891 19.3725C54.3088 19.3008 54.5399 19.283 54.7664 19.3205H57.3472V20.5872H55.0245C54.8467 20.5615 54.6663 20.5984 54.5083 20.6927C54.4603 20.73 54.4194 20.7776 54.3881 20.8328C54.3569 20.8879 54.3358 20.9495 54.3262 21.0139C54.3166 21.0783 54.3186 21.1442 54.3321 21.2077C54.3457 21.2712 54.3705 21.331 54.4051 21.3836C54.4504 21.4658 54.5205 21.527 54.6029 21.5564C54.7613 21.6122 54.9275 21.635 55.0933 21.6235H55.7815C56.2989 21.5748 56.8134 21.75 57.2181 22.1129L57.1579 22.1225ZM45.7077 21.7579C45.5119 21.8607 45.2952 21.9038 45.0797 21.8826H43.5398V20.5488H45.0969C45.3051 20.5298 45.5144 20.5659 45.7077 20.6543C45.7929 20.7062 45.8627 20.7847 45.9085 20.8801C45.9544 20.9756 45.9743 21.0838 45.9658 21.1917C45.9739 21.3059 45.9532 21.4203 45.9061 21.522C45.8589 21.6238 45.7873 21.7088 45.6991 21.7675L45.7077 21.7579ZM46.4733 22.4968C46.7177 22.595 46.9323 22.7679 47.0927 22.9957C47.2665 23.3222 47.3419 23.7023 47.3078 24.0801V25.2508H46.026V24.5119C46.026 24.1569 46.026 23.6291 45.8195 23.3508C45.6889 23.2383 45.5393 23.1566 45.3796 23.1104C45.2199 23.0642 45.0535 23.0546 44.8904 23.0821H43.5312V25.2508H42.258V19.3301H45.1915C45.7121 19.2733 46.2371 19.3692 46.7142 19.6084C46.9253 19.7337 47.0994 19.9246 47.2154 20.1578C47.3314 20.3911 47.3844 20.6569 47.368 20.923C47.377 21.2575 47.2957 21.5873 47.1347 21.8696C46.9736 22.152 46.7402 22.3738 46.4647 22.5063L46.4733 22.4968ZM48.0734 19.3205H52.3146V20.5488H49.338V21.6235H52.2458V22.8422H49.338V24.0225H52.3146V25.2508H48.0734V19.3205ZM39.4707 22.0553H37.8362V20.5488H39.4879C39.9439 20.5488 40.2622 20.7599 40.2622 21.2781C40.2622 21.7962 39.9611 22.0649 39.4707 22.0649V22.0553ZM36.5716 24.7134L34.6188 22.2952L36.5716 19.9634V24.7134ZM31.5992 24.0417H28.4764V22.8614H31.2637V21.6523H28.4764V20.568H31.5992L32.9842 22.2952L31.5992 24.0417ZM41.6902 21.3068C41.6902 22.9478 40.5891 23.2836 39.4793 23.2836H37.8964V25.2796H35.4274L33.8617 23.3124L32.2444 25.2796H27.2118V19.3589H32.3218L33.8789 21.2781L35.4962 19.3589H39.5481C40.5546 19.3589 41.6816 19.6659 41.6816 21.2781L41.6902 21.3068Z" fill="url(#paint1_radial)"/>
<defs>
<radialGradient id="paint0_radial" cx="0" cy="0" r="1" gradientUnits="userSpaceOnUse" gradientTransform="translate(-3458.19 -3756.86) scale(39.2889 43.8785)">
<stop stop-color="#AAD2F0"/>
<stop offset="0.07" stop-color="#A5D0EF"/>
<stop offset="0.16" stop-color="#9ACCEE"/>
<stop offset="0.25" stop-color="#89C4EA"/>
<stop offset="0.35" stop-color="#72B9E4"/>
<stop offset="0.46" stop-color="#5AA9DC"/>
<stop offset="0.5" stop-color="#53A4DA"/>
<stop offset="1" stop-color="#4778B7"/>
</radialGradient>
<radialGradient id="paint1_radial" cx="0" cy="0" r="1" gradientUnits="userSpaceOnUse" gradientTransform="translate(-312868 -111348) scale(1393.08 320.387)">
<stop stop-color="#AAD2F0"/>
<stop offset="0.07" stop-color="#A5D0EF"/>
<stop offset="0.16" stop-color="#9ACCEE"/>
<stop offset="0.25" stop-color="#89C4EA"/>
<stop offset="0.35" stop-color="#72B9E4"/>
<stop offset="0.46" stop-color="#5AA9DC"/>
<stop offset="0.5" stop-color="#53A4DA"/>
<stop offset="1" stop-color="#4778B7"/>
</radialGradient>
</defs>
</svg>
