<svg width="80" height="35" viewBox="0 0 80 35" fill="none" xmlns="http://www.w3.org/2000/svg">
<path d="M77.4802 0H2.51987C1.1282 0 0 1.5706 0 3.50803V31.492C0 33.4294 1.1282 35 2.51987 35H77.4802C78.8718 35 80 33.4294 80 31.492V3.50803C80 1.5706 78.8718 0 77.4802 0Z" fill="white"/>
<path d="M45.6727 16.498L38.3604 6.08634V5.99998L47.9438 7.26666L45.6727 16.498Z" fill="#BF3658"/>
<path d="M46.0513 16.5708C46.8083 13.4809 47.5653 10.4293 48.3396 7.30107L55.2734 18.1061V18.1829L46.0513 16.5708Z" fill="#CA346E"/>
<path d="M46.103 17.0224L54.9036 18.5962V18.6921L47.2988 22.9431L46.103 17.0224Z" fill="#BF3658"/>
<path d="M42.7822 28.2445L45.6383 17.0077L45.7416 17.2572C46.1889 19.5314 46.6018 21.8057 47.1008 24.0703C47.1264 24.1634 47.1243 24.2633 47.0949 24.3549C47.0654 24.4466 47.0101 24.5252 46.9373 24.5789C45.6297 25.7496 44.3565 26.9395 43.0317 28.1198L42.8425 28.2734L42.7822 28.2445Z" fill="#8F2B3E"/>
<path d="M52.916 13.7905L57.4841 12.8789L55.7635 18.1662L52.916 13.7905Z" fill="#BF3658"/>
<path d="M48.4941 22.7181L55.3075 18.8797L55.3591 18.9373C55.2731 19.2252 55.1957 19.5227 55.101 19.8009C55.0655 19.8709 55.0069 19.9226 54.9376 19.9449L48.5801 22.8237H48.5285L48.4941 22.7181Z" fill="#CA346E"/>
<path d="M59.6435 15.085H57.1143L57.7939 13.0314L59.6693 14.9986L59.6435 15.085Z" fill="#CA346E"/>
<path d="M41.9821 12.0097L38.1108 7.9122V7.83542H39.0915C39.1431 7.83542 39.2034 7.9026 39.2378 7.96017C40.1497 9.23963 41.0587 10.5415 41.9648 11.8657V11.9617L41.9821 12.0097Z" fill="#8F2B3E"/>
<path d="M21 20.2521C21 19.9354 21 19.4652 21 19.0526V13.4101H21.7484V16.3465C21.8936 16.0713 22.1033 15.8455 22.3549 15.6934C22.6065 15.5412 22.8905 15.4684 23.1765 15.4829C23.6733 15.5127 24.1393 15.7604 24.473 16.1721C24.8066 16.5838 24.9807 17.126 24.9572 17.6803C24.9619 17.741 24.9619 17.802 24.9572 17.8627C24.991 18.152 24.9733 18.4458 24.905 18.7274C24.8368 19.0091 24.7194 19.2729 24.5595 19.5038C24.3997 19.7347 24.2006 19.9281 23.9736 20.073C23.7466 20.2178 23.4961 20.3113 23.2367 20.348H23.0818C22.797 20.3652 22.5137 20.2912 22.2653 20.1348C22.0168 19.9784 21.8136 19.7461 21.6796 19.4652V20.2424H21.0258L21 20.2521ZM21.7828 18.3904C21.7828 18.4864 21.7828 18.592 21.7828 18.6975C21.8514 18.9762 22.001 19.2216 22.208 19.3953C22.4151 19.5689 22.668 19.661 22.927 19.6571C23.7185 19.6571 24.1916 18.9374 24.1916 17.8627C24.1916 16.9031 23.7615 16.1258 22.9528 16.1258C22.6828 16.1324 22.4224 16.2387 22.2122 16.4279C22.0021 16.6172 21.8541 16.8787 21.7914 17.1718C21.7831 17.2867 21.7831 17.4022 21.7914 17.5172L21.7828 18.3904Z" fill="#D43289"/>
<path d="M25.9722 13.7573H26.7292V16.8664C26.8841 16.6169 27.0389 16.3866 27.1766 16.1755L28.9573 13.7381H29.895L27.7874 16.4921L30.0585 20.2346H29.1982L27.2712 17.0391L26.7206 17.7588V20.2346H25.9722V13.7573Z" fill="#221F20"/>
<path d="M33.0874 20.2543L33.0272 19.669C32.8786 19.8907 32.6848 20.0698 32.462 20.1916C32.2391 20.3134 31.9935 20.3744 31.7454 20.3695C31.4295 20.3932 31.118 20.2762 30.8793 20.0442C30.6406 19.8121 30.4942 19.4839 30.4722 19.1316C30.4722 19.1316 30.4722 19.0644 30.4722 19.0261C30.4722 17.8937 31.3754 17.2796 32.9928 17.2892V17.1836C33.0072 17.0582 32.9993 16.9308 32.9694 16.8088C32.9396 16.6868 32.8884 16.5726 32.8189 16.4727C32.7493 16.3728 32.6628 16.2892 32.5641 16.2268C32.4655 16.1644 32.3569 16.1243 32.2443 16.1089H32.0379C31.6551 16.1121 31.2804 16.2315 30.9539 16.4543L30.7819 15.8978C31.1944 15.6206 31.6682 15.4776 32.1497 15.4851C33.4315 15.4851 33.7412 16.4447 33.7412 17.4043V19.1412C33.7384 19.5168 33.7614 19.8922 33.81 20.2639L33.0874 20.2543ZM32.9755 17.8745C32.1153 17.8745 31.2034 18.0185 31.2034 18.9301C31.1951 19.0287 31.2048 19.1281 31.2317 19.2225C31.2586 19.3169 31.3022 19.4043 31.36 19.4795C31.4178 19.5547 31.4885 19.6161 31.568 19.6602C31.6475 19.7043 31.7342 19.7301 31.8228 19.7361H31.9174C32.139 19.7454 32.3574 19.6748 32.5402 19.5348C32.723 19.3948 32.8606 19.1929 32.9325 18.9589C32.9448 18.8698 32.9448 18.7792 32.9325 18.6902L32.9755 17.8745Z" fill="#221F20"/>
<path d="M34.8333 19.3847C35.1364 19.595 35.4832 19.714 35.8398 19.7302C36.3904 19.7302 36.6485 19.4231 36.6485 19.0297C36.6485 18.6363 36.4334 18.4059 35.8742 18.1756C35.1258 17.8686 34.7645 17.408 34.7645 16.8514C34.7801 16.4704 34.9298 16.1117 35.181 15.853C35.4323 15.5943 35.7648 15.4566 36.1065 15.4696H36.2097C36.57 15.468 36.9249 15.567 37.2421 15.7575L37.0528 16.3812C36.7945 16.2028 36.4963 16.1097 36.1925 16.1125C35.7366 16.1125 35.4957 16.4004 35.4957 16.7459C35.4957 17.0913 35.7452 17.3024 36.2872 17.5327C37.0184 17.8398 37.3883 18.2524 37.3883 18.9433C37.3883 19.6342 36.8205 20.3443 35.8226 20.3443C35.4109 20.3527 35.0045 20.2402 34.644 20.0181L34.8333 19.3847Z" fill="#221F20"/>
<path d="M38.3608 13.4101H39.1179V16.2889C39.2484 16.0408 39.4353 15.8355 39.6599 15.694C39.8975 15.539 40.1674 15.4563 40.4427 15.4541C41.0019 15.4541 41.9052 15.8379 41.9052 17.45V20.2233H41.1395V17.546C41.1395 16.7879 40.89 16.1546 40.176 16.1546C39.9469 16.1604 39.7252 16.2458 39.5417 16.3989C39.3582 16.552 39.222 16.7651 39.1523 17.0086C39.1094 17.1373 39.0918 17.2747 39.1007 17.4117V20.2233H38.3608V13.4101Z" fill="#221F20"/>
</svg>
