<svg width="80" height="35" viewBox="0 0 80 35" fill="none" xmlns="http://www.w3.org/2000/svg">
<path d="M77.4802 0H2.51984C1.12817 0 0 1.5706 0 3.50803V31.492C0 33.4294 1.12817 35 2.51984 35H77.4802C78.8718 35 80 33.4294 80 31.492V3.50803C80 1.5706 78.8718 0 77.4802 0Z" fill="white"/>
<path d="M44.4958 9.33276H35.3496V26.4903H44.4958V9.33276Z" fill="#F15B27"/>
<path d="M35.9381 17.9106C35.9381 16.2607 36.2953 14.6322 36.9829 13.1467C37.6705 11.6611 38.6709 10.357 39.9092 9.33184C38.3673 8.06698 36.5157 7.28047 34.5659 7.0622C32.6161 6.84393 30.6468 7.20271 28.883 8.09752C27.1193 8.99234 25.6323 10.3871 24.592 12.1224C23.5517 13.8577 23 15.8635 23 17.9106C23 19.9577 23.5517 21.9636 24.592 23.6988C25.6323 25.4341 27.1193 26.8289 28.883 27.7237C30.6468 28.6185 32.6161 28.9773 34.5659 28.759C36.5157 28.5407 38.3673 27.7542 39.9092 26.4894C38.6668 25.468 37.6636 24.1647 36.9755 22.6783C36.2875 21.1919 35.9327 19.5614 35.9381 17.9106Z" fill="#E01F26"/>
<path d="M56.8413 17.9099C56.8428 19.956 56.2926 21.9613 55.2537 23.6963C54.2147 25.4314 52.729 26.8261 50.9665 27.7211C49.2039 28.6161 47.2356 28.9751 45.2867 28.7572C43.3378 28.5392 41.487 27.7531 39.946 26.4887C42.1224 24.6892 43.5258 22.0618 43.848 19.1831C44.1703 16.3045 43.3852 13.41 41.665 11.1352C41.1582 10.4717 40.5816 9.86979 39.946 9.34071C41.486 8.07241 43.3373 7.28299 45.2875 7.06302C47.2376 6.84306 49.2077 7.20149 50.9716 8.09715C52.7356 8.99281 54.2219 10.3894 55.2601 12.1268C56.2983 13.8641 56.8463 15.8718 56.8413 17.9195V17.9099Z" fill="#FAAF3C"/>
</svg>
