<svg width="80" height="35" viewBox="0 0 80 35" fill="none" xmlns="http://www.w3.org/2000/svg">
<path d="M77.4802 0H2.51983C1.12816 0 0 1.5706 0 3.50803V31.492C0 33.4294 1.12816 35 2.51983 35H77.4802C78.8718 35 80 33.4294 80 31.492V3.50803C80 1.5706 78.8718 0 77.4802 0Z" fill="white"/>
<path d="M47.2261 13.3522H39.2686C39.234 13.3496 39.1993 13.3548 39.1665 13.3675C39.1338 13.3802 39.1036 13.4002 39.078 13.4261C39.0523 13.4521 39.0315 13.4836 39.0169 13.5187C39.0024 13.5538 38.9944 13.5918 38.9933 13.6305V14.3406C38.9922 14.3784 38.9977 14.4161 39.0096 14.4515C39.0215 14.4869 39.0396 14.5194 39.0628 14.547C39.0859 14.5746 39.1137 14.5969 39.1446 14.6125C39.1755 14.6282 39.2089 14.6368 39.2428 14.6381H45.1958V18.3037C45.0257 18.0283 44.8327 17.7712 44.6195 17.536C44.3452 17.1749 44.0059 16.8823 43.6234 16.6772C43.241 16.4722 42.8241 16.3594 42.4 16.3461C42.0888 16.3524 41.7836 16.4431 41.5109 16.6102C41.2381 16.7774 41.0059 17.0161 40.8343 17.3057C40.4988 17.7984 40.3093 18.3954 40.2923 19.0138C40.2737 19.7231 40.4476 20.4222 40.7913 21.0194C41.01 21.3666 41.3034 21.647 41.6446 21.8348C41.9859 22.0226 42.3639 22.1118 42.7441 22.0941C42.9526 22.1138 43.1624 22.0875 43.3618 22.0167C43.5611 21.9458 43.746 21.8318 43.9058 21.6812C44.0656 21.5306 44.1972 21.3463 44.2931 21.1388C44.389 20.9314 44.4473 20.705 44.4646 20.4724C44.4732 20.2131 44.4123 19.9569 44.2897 19.7364C44.1672 19.5159 43.9885 19.3412 43.7764 19.2345L43.3549 18.9754V19.7623C43.2899 19.9146 43.1875 20.0432 43.0596 20.1332C42.9317 20.2232 42.7835 20.271 42.6323 20.2709C42.4904 20.2807 42.3483 20.2558 42.216 20.1978C42.0837 20.1397 41.9644 20.05 41.8666 19.935C41.804 19.8521 41.7578 19.7554 41.7311 19.6512C41.7044 19.5471 41.6978 19.4377 41.7118 19.3305C41.7183 19.0603 41.8168 18.803 41.987 18.6108C42.0636 18.4874 42.1668 18.3876 42.2871 18.3205C42.4074 18.2534 42.5409 18.2212 42.6753 18.2269C43.0781 18.2309 43.4733 18.3503 43.8228 18.5738C44.1724 18.7973 44.4645 19.1174 44.6711 19.5032C45.0793 20.1576 45.3038 20.9324 45.3163 21.7295V23.5719L46.5035 24.3779C46.5225 24.3869 46.543 24.3915 46.5637 24.3915C46.5844 24.3915 46.6049 24.3869 46.6239 24.3779C46.6581 24.3806 46.6924 24.3753 46.7247 24.3625C46.757 24.3497 46.7865 24.3297 46.8115 24.3036C46.8366 24.2775 46.8565 24.2459 46.8701 24.2108C46.8837 24.1757 46.8907 24.1379 46.8906 24.0997V14.6477H47.3551C47.3893 14.6503 47.4236 14.645 47.4559 14.6322C47.4882 14.6194 47.5178 14.5994 47.5428 14.5733C47.5678 14.5472 47.5877 14.5156 47.6013 14.4805C47.6149 14.4454 47.6219 14.4076 47.6218 14.3694V13.6881C47.4584 13.477 47.338 13.3522 47.2261 13.3522Z" fill="#EB2227"/>
<path d="M63.1155 13.3458H53.0503C53.0157 13.3432 52.981 13.3484 52.9482 13.3611C52.9155 13.3738 52.8853 13.3937 52.8597 13.4197C52.834 13.4457 52.8132 13.4771 52.7987 13.5123C52.7841 13.5474 52.7761 13.5854 52.775 13.624V14.8715C52.4652 14.3993 52.0716 14.0031 51.6188 13.7076C51.1659 13.4122 50.6635 13.2237 50.1426 13.1538C49.4577 13.1316 48.7847 13.3571 48.2242 13.7968C47.9821 13.9833 47.7827 14.2308 47.6423 14.5192C47.5018 14.8076 47.4241 15.1288 47.4155 15.4569C47.4155 17.3761 49.4113 17.3761 49.8673 17.1266C49.9703 17.0523 50.0889 17.0093 50.2114 17.0018C50.281 16.9993 50.3504 17.0122 50.4155 17.0399C50.4806 17.0675 50.5402 17.1094 50.5906 17.163C50.6411 17.2166 50.6814 17.2808 50.7094 17.352C50.7373 17.4232 50.7523 17.4999 50.7534 17.5776C50.7574 17.5965 50.7574 17.6162 50.7534 17.6352C50.7534 18.1054 50.1856 18.4892 49.4888 18.4892C49.3369 18.5104 49.1826 18.486 49.042 18.4186C48.9013 18.3511 48.7794 18.243 48.6887 18.1054L48.379 17.5968L48.1553 18.1917C48.0227 18.4954 47.9959 18.8432 48.0801 19.1677C48.1644 19.4922 48.3537 19.7702 48.6113 19.9478C48.9667 20.2767 49.4141 20.4567 49.8759 20.4564C50.2175 20.4772 50.5587 20.4071 50.8713 20.2519C51.1839 20.0968 51.459 19.8609 51.6739 19.5639C52.0148 19.0776 52.1915 18.4729 52.1729 17.8559C52.1611 17.4336 52.0285 17.0267 51.7943 16.6948C51.6776 16.467 51.5101 16.2768 51.3082 16.1423C51.1063 16.0078 50.8767 15.9337 50.6416 15.9271C50.4444 15.9385 50.25 15.9838 50.0652 16.0614C49.9878 16.0134 49.8759 16.0614 49.8415 16.0614C49.7867 16.0585 49.7333 16.0413 49.6856 16.0113C49.6378 15.9814 49.5969 15.9394 49.5662 15.8887C49.5161 15.8317 49.4766 15.7642 49.4501 15.6901C49.4235 15.6159 49.4103 15.5367 49.4114 15.4569C49.4478 15.1672 49.5842 14.9048 49.7915 14.7256C49.9987 14.5464 50.2605 14.4644 50.5211 14.4973C50.7847 14.5173 51.0421 14.5954 51.2784 14.7272C51.5146 14.859 51.7251 15.0418 51.8976 15.265C52.2402 15.6107 52.5307 16.0157 52.7578 16.4645V23.4695L53.945 24.2372C53.9625 24.2465 53.9816 24.2514 54.0009 24.2514C54.0203 24.2514 54.0394 24.2465 54.0568 24.2372C54.0914 24.2398 54.1261 24.2346 54.1589 24.2219C54.1916 24.2092 54.2218 24.1892 54.2475 24.1633C54.2732 24.1373 54.2939 24.1058 54.3085 24.0707C54.323 24.0356 54.331 23.9976 54.3321 23.9589V14.5645H56.1301V20.6291L57.5496 21.272H57.6184C57.6819 21.2636 57.742 21.2346 57.7909 21.1886C57.8398 21.1425 57.8756 21.0814 57.8936 21.0129C57.9477 20.2281 58.1706 19.4695 58.5435 18.8013C58.9164 18.1331 59.4283 17.575 60.0357 17.1746V17.52C60.0164 17.9452 60.0164 18.3711 60.0357 18.7963C60.0141 18.9521 60.0141 19.1107 60.0357 19.2665C60.0269 20.1327 60.1313 20.9958 60.3455 21.8286C60.724 23.3256 61.4122 23.6614 61.9111 23.7478C62.0288 23.7562 62.1469 23.7376 62.2579 23.693C62.3689 23.6485 62.4704 23.5789 62.5563 23.4887C62.681 23.3364 62.7514 23.1384 62.7542 22.9321C62.7669 22.7127 62.7252 22.4936 62.6338 22.2988L62.5219 22.0781L62.2896 22.1261C62.0229 22.2124 61.9456 22.2124 61.9456 22.1261C61.8681 22.1261 61.8681 22.1261 61.8251 22.1261C61.7821 22.1261 61.6014 21.915 61.481 21.4448C61.4098 21.0789 61.3723 20.7059 61.3691 20.3316C61.3691 18.3645 61.7477 16.8675 62.2896 16.4932C62.335 16.4739 62.374 16.4397 62.4017 16.3952C62.4293 16.3507 62.4442 16.2979 62.4445 16.2437C62.4598 16.2006 62.4598 16.1526 62.4445 16.1094C62.2666 15.7787 62.0284 15.4933 61.7453 15.2718C61.4623 15.0503 61.1407 14.8976 60.8014 14.8235H60.6465C59.77 15.0987 58.9687 15.6132 58.3152 16.3205C58.0829 16.5316 57.8506 16.7811 57.627 17.0018V14.5645H63.0639C63.0985 14.567 63.1332 14.5618 63.166 14.5491C63.1987 14.5364 63.2289 14.5165 63.2545 14.4905C63.2802 14.4646 63.301 14.4331 63.3155 14.398C63.3301 14.3629 63.3381 14.3248 63.3392 14.2862V13.5857C63.3202 13.5297 63.2903 13.4791 63.2516 13.4376C63.2129 13.3961 63.1664 13.3647 63.1155 13.3458Z" fill="#EB2227"/>
<path d="M34.5546 17.8403C34.504 19.6425 34.0548 21.4028 33.247 22.9645C33.0532 23.3504 32.8377 23.7222 32.6018 24.0777C31.8092 25.2268 30.8174 26.1863 29.6855 26.8989C29.1496 27.2243 28.5881 27.4941 28.0079 27.7049C25.6579 28.5142 23.1159 28.249 20.9412 26.9677C18.7664 25.6864 17.1371 23.4939 16.4115 20.8726C15.7653 18.546 15.8832 16.0387 16.7439 13.8002C17.6046 11.5618 19.1519 9.73839 21.1085 8.65698C19.2762 10.7873 17.6675 13.3974 17.4352 16.3337C17.3742 17.5251 17.5294 18.718 17.8916 19.8409C18.2538 20.9638 18.8154 21.9936 19.5428 22.8686C20.9513 24.5575 22.8825 25.5865 24.9454 25.7474C25.9713 25.8088 26.9975 25.6316 27.9586 25.2268C28.9198 24.8221 29.795 24.1987 30.5285 23.3964C31.2497 22.5785 31.7913 21.5853 32.1107 20.4948C32.4301 19.4043 32.5187 18.2461 32.3695 17.111C32.3523 16.9838 32.3523 16.8544 32.3695 16.7272C32.3695 16.6024 32.4814 16.5544 32.5932 16.4777C33.028 16.1801 33.5508 16.0869 34.0471 16.2186C34.1675 16.0459 34.2793 15.9115 34.3912 15.7484C34.5031 16.4256 34.555 17.1134 34.546 17.8019" fill="#EB2227"/>
<path d="M33.5998 15.9212H33.5568C32.6506 15.1255 31.6085 14.5443 30.4942 14.2131C29.8955 14.02 29.2764 13.9167 28.6532 13.9061C29.128 14.3969 29.5086 14.9902 29.7718 15.65C30.035 16.3098 30.1754 17.0223 30.1845 17.7444V17.8404C30.1624 19.2944 29.6353 20.6822 28.7143 21.7114C27.7932 22.7406 26.55 23.3309 25.2465 23.3581H24.9024C21.8054 23.3581 19.3106 19.5197 19.3106 14.7697C19.289 14.399 19.289 14.0272 19.3106 13.6566C19.3565 13.0077 19.4573 12.3651 19.6117 11.7374C19.6866 11.4306 19.7786 11.1294 19.887 10.8354C19.9644 10.6626 19.9988 10.4995 20.0762 10.2788C20.1301 10.1109 20.2055 9.9525 20.2999 9.80859C20.2225 9.80859 20.1881 9.89494 20.1451 9.94292L19.9558 10.154L19.7236 10.4131C19.6461 10.4995 19.6117 10.5859 19.5343 10.6626C19.4404 10.8025 19.3368 10.934 19.2246 11.0561C19.1472 11.1808 19.0353 11.3055 18.9579 11.4399C18.7884 11.6843 18.6332 11.9408 18.4934 12.2076C18.1864 12.7899 17.9301 13.4037 17.7277 14.0404C17.5879 14.5154 17.4872 15.0036 17.4266 15.499C17.4266 15.8348 17.3492 16.2187 17.3062 16.5641V16.948C17.3027 18.2958 17.5688 19.6275 18.0852 20.846C18.6017 22.0644 19.3553 23.139 20.2913 23.9914C21.689 25.2574 23.4205 25.9767 25.2201 26.0391C27.0196 26.1016 28.7878 25.5035 30.2533 24.3368C31.2265 23.5228 32.0354 22.4897 32.6276 21.3045C32.7051 21.1318 32.7825 20.9975 32.8513 20.8343L33.0836 20.1914C33.2646 19.6977 33.3944 19.1826 33.4707 18.6561C33.5638 18.0768 33.6013 17.4881 33.5825 16.9V16.0939C33.6342 15.998 33.5998 15.9212 33.5998 15.9212ZM22.5281 25.2773C23.4651 25.691 24.4624 25.909 25.4702 25.9202C24.4732 25.9225 23.4854 25.7074 22.5624 25.2869L22.5281 25.2773Z" fill="#F69320"/>
<path d="M31.4145 11.2092C31.4145 11.2092 24.7474 9.79863 21.6504 16.2567C21.6504 16.2567 22.1838 11.8138 26.9325 9.76023L25.9776 7.79307C26.7188 7.16909 27.5672 6.72187 28.4699 6.47919C29.3727 6.23652 30.3106 6.20359 31.2252 6.38247L31.4145 11.2092Z" fill="#EB2227"/>
<path d="M23.1819 14.6278C23.1819 14.6278 25.8229 10.7894 31.9136 11.749L31.8363 9.48438C33.5184 9.52426 35.1383 10.201 36.4301 11.4036L33.8665 15.6546C33.1645 14.8891 32.3307 14.2903 31.4155 13.8945C30.5002 13.4986 29.5225 13.3139 28.5414 13.3515C26.6775 13.2855 24.8268 13.7234 23.1475 14.6278" fill="#F69320"/>
<path d="M24.593 16.1259C24.593 16.1259 24.0252 16.2603 24.0596 15.9532C24.0596 15.8285 24.137 15.7901 24.1801 15.8285C24.2231 15.8668 24.0596 15.6173 24.3263 15.5214C24.3951 15.4158 24.464 15.3007 24.5242 15.1855C24.5844 15.0704 24.593 14.9648 24.8253 15.0512C25.0278 15.1074 25.2052 15.2438 25.3242 15.435C25.4038 15.4324 25.483 15.4488 25.5565 15.483L25.4791 15.5694C25.4791 15.5694 25.5565 15.5694 25.3242 15.5694C25.3242 15.5807 25.3262 15.5919 25.3301 15.6024C25.334 15.6129 25.3397 15.6224 25.3469 15.6304C25.3541 15.6384 25.3626 15.6448 25.372 15.6491C25.3814 15.6535 25.3915 15.6557 25.4016 15.6557C25.4016 15.6557 25.4016 15.6557 25.4016 15.7421C25.4016 15.8285 25.4017 15.8668 25.3242 15.8285C25.2468 15.7901 25.2124 15.7421 25.1694 15.7421C25.1264 15.7421 25.0576 15.7421 25.0576 15.7421C25.0576 15.7421 25.1694 15.8764 25.0576 15.8764C24.9457 15.8764 25.0576 15.9532 25.0576 15.9532C24.9313 16.0781 24.7893 16.1815 24.636 16.2603C24.5242 16.2603 24.4812 16.2603 24.4812 16.1739C24.4812 16.0876 24.5586 16.0876 24.636 16.0876C24.7135 16.0876 24.636 16.0876 24.636 16.0876" fill="#EB2227"/>
<path d="M24.5581 16.8073C24.5581 16.8073 24.3258 16.6825 24.4463 16.6441C24.612 16.4964 24.7907 16.3678 24.9796 16.2603C24.9892 16.25 25.0008 16.2424 25.0135 16.238C25.0263 16.2335 25.0397 16.2325 25.0529 16.2348C25.066 16.2372 25.0785 16.2429 25.0893 16.2516C25.1001 16.2602 25.109 16.2715 25.1152 16.2847C25.1214 16.2978 25.1248 16.3123 25.1252 16.3272C25.1255 16.342 25.1227 16.3568 25.1171 16.3702C25.1115 16.3836 25.1031 16.3954 25.0927 16.4047C25.0823 16.4139 25.0701 16.4203 25.0571 16.4234C24.902 16.5686 24.7349 16.6971 24.5581 16.8073Z" fill="#EB2227"/>
<path d="M25.1343 16.5084C25.1343 16.4221 25.2117 16.1726 25.2117 16.1246C25.2117 16.0766 25.401 16.0383 25.3666 16.2974C25.3322 16.5565 25.1343 16.6044 25.1343 16.5084Z" fill="#EB2227"/>
<path d="M25.4015 16C25.78 16 26.1671 16 26.5543 16C26.6871 16.1673 26.7865 16.3642 26.8458 16.5776C26.9052 16.791 26.9231 17.0161 26.8984 17.2379C26.821 17.7945 26.6661 17.9192 25.9779 18.0056C25.9806 17.7436 25.9398 17.4833 25.8575 17.2379C25.7886 17.1131 25.5564 16.8157 25.4789 16.8157C25.4015 16.8157 25.4789 17.3242 25.4789 17.3242C25.4789 17.3242 25.1262 17.3242 25.0918 17.3242V16.7197C25.2171 16.6041 25.3323 16.4756 25.4359 16.3359C25.4789 16.3359 25.5133 16.547 25.8575 16.5086C25.8575 16.5086 25.4359 16.595 25.4359 16.0384" fill="#EB2227"/>
<path d="M24.9796 16.5579C24.9796 16.5579 24.6355 16.8554 24.558 16.9417C24.4806 17.0281 24.4806 17.3639 24.9022 17.3639C24.9581 17.0999 24.9841 16.8291 24.9796 16.5579Z" fill="#EB2227"/>
<path d="M24.1798 17.0235C24.0593 17.0235 23.9819 17.0235 23.9819 16.8892C24.0015 16.8282 24.04 16.7772 24.0906 16.7455C24.1412 16.7137 24.2004 16.7034 24.2572 16.7164C24.3458 16.7453 24.4222 16.8086 24.4727 16.8948C24.5232 16.981 24.5444 17.0845 24.5325 17.1867C24.6008 17.2682 24.6834 17.3333 24.7751 17.3779C24.8668 17.4225 24.9658 17.4456 25.0659 17.4457C25.3326 17.4457 25.4874 17.4457 25.4874 17.5321V18.0887C25.0882 17.994 24.7178 17.7857 24.4121 17.4841C24.3737 17.4479 24.3436 17.4021 24.3241 17.3504C24.3047 17.2986 24.2965 17.2426 24.3002 17.1867C24.3002 17.0523 24.2228 17.0139 24.1798 17.0139" fill="#EB2227"/>
<path d="M23.9475 17.0642C23.827 17.0642 23.4485 17.4097 23.7152 17.5344L23.8701 17.3617C23.8701 17.3617 23.7926 17.5824 23.9475 17.6208C24.1023 17.6592 24.0249 17.5344 24.1024 17.5344C24.1798 17.5344 24.1024 17.6592 24.2142 17.6592C24.326 17.6592 24.2916 17.4097 24.2142 17.2753C24.1982 17.2095 24.1617 17.1521 24.1113 17.1134C24.0609 17.0747 23.9998 17.0573 23.9389 17.0642" fill="#EB2227"/>
<path d="M25.5562 17.1094V18.2225C25.5562 18.2225 25.8572 18.0882 25.9002 18.0018C25.9432 17.9155 25.8228 17.1094 25.5562 17.1094Z" fill="#EB2227"/>
<path d="M24.7476 17.844C24.9393 17.9995 25.1472 18.1284 25.3669 18.2278C25.3669 18.2758 25.1691 18.5349 25.0916 18.4869C24.9353 18.304 24.8177 18.0843 24.7476 17.844Z" fill="#EB2227"/>
<path d="M23.4059 18.4767H22.9155V18.2656H23.4489L23.4059 18.4767Z" fill="#EB2227"/>
<path d="M26.7435 18.4399H28.5759V18.1328H26.3994L26.7435 18.4399Z" fill="#EB2227"/>
<path d="M25.9779 18.1328C25.9779 18.1328 26.279 18.3056 26.2016 18.3535C26.1242 18.4015 25.4359 18.6894 25.4015 18.6894C25.3671 18.6894 25.4015 18.4783 25.4015 18.4399C25.5889 18.353 25.7701 18.2504 25.9435 18.1328" fill="#EB2227"/>
<path d="M25.2121 18.6497C25.1347 18.6497 24.7131 19.0719 24.9024 19.1199C25.164 19.1573 25.4209 19.2281 25.668 19.331C25.713 19.3167 25.7541 19.2898 25.7872 19.2528C25.8203 19.2159 25.8445 19.1701 25.8573 19.1199C25.9347 19.1199 26.0551 19.2447 26.167 19.2063C26.413 19.0658 26.6344 18.8773 26.8208 18.6497C26.685 18.5262 26.5264 18.4377 26.3563 18.3906C26.2788 18.3906 25.5906 18.8224 25.2121 18.6497Z" fill="#EB2227"/>
<path d="M24.9797 19.2412C24.9797 19.2412 25.5905 19.4523 25.7023 19.4523C25.8142 19.4523 25.8572 19.2892 25.9346 19.2892C26.0121 19.2892 26.0464 19.3659 26.1669 19.2892L26.5884 18.9053C26.5884 18.9821 26.5884 19.2412 26.0895 19.5003C25.4956 19.7114 24.9198 19.9812 24.3689 20.3063C24.4742 20.2878 24.5779 20.2589 24.6786 20.22C24.7459 20.281 24.7963 20.3621 24.8237 20.4539C24.8511 20.5457 24.8545 20.6443 24.8335 20.7381C24.8335 21.0356 24.6012 21.5058 24.6012 21.6306V22.4462C24.6012 22.4462 24.7216 22.8685 24.6012 22.8301C24.5523 22.8063 24.4996 22.794 24.4463 22.794C24.393 22.794 24.3403 22.8063 24.2915 22.8301C24.2141 22.8301 24.1022 22.9548 24.0162 22.9068C23.9302 22.8589 23.7495 22.8301 23.7495 22.7821C23.7495 22.7341 23.8614 22.7821 23.9818 22.6957C24.1022 22.6094 24.128 22.523 24.3259 22.4462C24.3259 22.3119 24.2485 21.2467 24.2485 21.0356C24.2485 20.8245 24.1711 20.3447 24.2485 20.1816C24.3259 20.0185 24.7818 19.222 24.9711 19.222" fill="#EB2227"/>
<path d="M25.7114 19.837C25.7114 19.9233 26.0555 20.8637 26.2018 20.8637C26.8078 20.7264 27.4244 20.6557 28.0427 20.6526C28.1202 20.7774 28.275 20.9981 28.275 21.1228C28.275 21.2476 28.275 21.4299 28.275 21.4683C28.3136 21.4632 28.3506 21.4485 28.3834 21.4253C28.4162 21.402 28.4438 21.3708 28.4643 21.334C28.4815 21.1361 28.4815 20.9368 28.4643 20.739C28.4643 20.6526 28.6535 20.2688 28.4643 20.3072C28.0947 20.3311 27.7241 20.3311 27.3545 20.3072C27.1567 20.3072 26.6663 20.1345 26.5459 20.2208C26.4325 20.3121 26.3386 20.43 26.2706 20.5663C26.2706 20.5663 26.2017 20.5183 26.2706 20.3455C26.3835 20.0635 26.4506 19.7613 26.4685 19.4531C26.3566 19.4531 25.7458 19.8753 25.7458 19.8753" fill="#EB2227"/>
<path d="M24.9025 18.3489C24.9102 18.4118 24.9376 18.4696 24.9799 18.5121L23.8702 18.4353C23.8702 18.4353 23.7583 18.3489 23.7927 18.3009L24.9025 18.3489Z" fill="#EB2227"/>
<path d="M23.6812 18.2615H24.791L24.6705 18.0504H23.6382C23.6382 18.0504 23.5264 18.0504 23.5264 18.2999C23.5264 18.2999 23.6038 18.4342 23.6812 18.2999" fill="#EB2227"/>
<path d="M22.6055 18.4741H22.8292C22.8292 18.4741 22.9066 18.4741 22.8292 18.3493C22.7517 18.2246 22.6055 18.1766 22.7173 18.0039C22.5969 18.0039 22.4421 18.0039 22.4851 18.3493H22.3733C22.3535 18.2776 22.3115 18.216 22.2547 18.1755C22.198 18.1351 22.1303 18.1185 22.0636 18.1286C21.7475 18.1928 21.4388 18.2958 21.1431 18.4357C21.4451 18.53 21.7527 18.6005 22.0636 18.6468C22.1267 18.6425 22.1879 18.6211 22.2419 18.5843C22.2959 18.5475 22.341 18.4964 22.3733 18.4357H22.4506C22.4605 18.5106 22.4839 18.5824 22.5195 18.6468V18.9059C22.4903 18.9169 22.4661 18.94 22.4517 18.9703C22.4373 19.0006 22.4338 19.036 22.442 19.069C22.442 19.1938 22.5109 19.1938 22.5539 19.1938C22.5969 19.1938 22.5539 19.1938 22.7088 19.1938C22.7223 19.147 22.7221 19.0967 22.7082 19.0501C22.6943 19.0035 22.6673 18.963 22.6313 18.9347V18.762C22.6313 18.762 22.7088 18.6756 22.7088 18.6372C22.7088 18.5988 22.5883 18.6372 22.5883 18.5125" fill="#EB2227"/>
<path d="M23.9473 19.6729C23.9992 19.629 24.0381 19.5689 24.0591 19.5002V18.7997C24.0591 18.6269 23.7925 18.4926 23.7581 18.4926C23.7154 18.5381 23.6615 18.5682 23.6032 18.5789C23.5664 18.5849 23.5287 18.5801 23.4941 18.5649C23.4594 18.5498 23.4288 18.5249 23.4054 18.4926C23.1817 18.4926 23.0612 18.7997 23.0612 18.8381C23.044 19.0648 23.044 19.2927 23.0612 19.5194C23.0771 19.6037 23.1199 19.6787 23.1817 19.7305C23.1387 19.9032 22.9064 20.882 23.1817 21.0163V21.189H23.9473V21.0163C24.1796 20.7956 23.9473 19.9416 23.9473 19.6921V19.6729ZM23.087 18.7901C23.1074 18.7239 23.1441 18.6655 23.1927 18.6214C23.2414 18.5773 23.3001 18.5493 23.3623 18.5406C23.3936 18.5717 23.4306 18.5947 23.4707 18.608C23.5109 18.6212 23.5532 18.6244 23.5946 18.6173C23.672 18.6173 23.7495 18.5406 23.7839 18.5406C23.8183 18.5406 24.0161 18.6653 24.0161 18.7901V19.5194C24.0161 19.5194 24.0162 19.6057 23.9387 19.6441H23.7839V19.2986H23.2849V19.6057H23.1731C23.1482 19.5865 23.1281 19.5605 23.1146 19.5304C23.1011 19.5002 23.0945 19.4667 23.0956 19.433V18.7997L23.087 18.7901ZM23.629 20.8052H23.4742C23.4536 20.8052 23.434 20.7961 23.4194 20.7799C23.4049 20.7637 23.3968 20.7418 23.3968 20.7189C23.3968 20.6959 23.4049 20.674 23.4194 20.6578C23.434 20.6416 23.4536 20.6325 23.4742 20.6325H23.629C23.6495 20.6325 23.6692 20.6416 23.6838 20.6578C23.6983 20.674 23.7064 20.6959 23.7064 20.7189C23.7064 20.7418 23.6983 20.7637 23.6838 20.7799C23.6692 20.7961 23.6495 20.8052 23.629 20.8052ZM23.9387 20.8916L23.5516 20.4214L23.2075 20.8916C22.9838 20.8052 23.13 20.0375 23.2075 19.6921H23.9387C24.0076 20.0375 24.128 20.7572 23.9387 20.8916Z" fill="#EB2227"/>
<path d="M23.7923 20.0119C23.8165 19.9834 23.83 19.9456 23.83 19.9063C23.83 19.8671 23.8165 19.8293 23.7923 19.8008H23.3278C23.1729 19.8008 23.2159 20.0119 23.2159 20.0119L23.4826 20.271C23.6225 20.2362 23.7455 20.1436 23.8267 20.0119" fill="#EB2227"/>
<path d="M23.6035 20.3049L23.8702 20.6503C23.8702 20.6503 23.8702 20.2281 23.8702 20.0938C23.7966 20.1692 23.719 20.2397 23.6379 20.3049" fill="#EB2227"/>
<path d="M23.2163 20.0938C23.2163 20.2281 23.2163 20.6503 23.2163 20.6503L23.483 20.3049C23.4124 20.2294 23.3377 20.1589 23.2593 20.0938" fill="#EB2227"/>
<path d="M23.7584 19.2076V19.1596H23.3369V19.2076H23.7584Z" fill="#EB2227"/>
<path d="M23.1387 21.1643V21.2123H23.9043H23.9473V21.1643H23.1387Z" fill="#EB2227"/>
<path d="M20.5748 18.1293C20.5748 18.1293 17.5466 10.7404 24.5922 6L26.3128 9.46412C25.4394 9.83887 24.6348 10.3885 23.9385 11.0858C22.1132 12.9174 20.9328 15.4145 20.6092 18.1293" fill="#F69320"/>
<path d="M45.6177 27.4883C45.6039 27.5058 45.5866 27.5193 45.5671 27.5277C45.5476 27.536 45.5266 27.539 45.5059 27.5363H45.3855C45.3649 27.537 45.3444 27.5331 45.3252 27.5248C45.306 27.5166 45.2885 27.5042 45.2736 27.4883C45.2383 27.4694 45.2089 27.4393 45.189 27.4017C45.1691 27.3641 45.1596 27.3208 45.1618 27.2772C45.1581 27.2576 45.158 27.2373 45.1618 27.2177C45.1655 27.198 45.1729 27.1795 45.1834 27.1632C45.1939 27.147 45.2074 27.1333 45.2229 27.1232C45.2385 27.1131 45.2557 27.1067 45.2736 27.1045C45.351 27.1045 45.394 27.2772 45.3166 27.2772C45.2392 27.2772 45.394 27.2772 45.4285 27.3636C45.4637 27.324 45.4834 27.2706 45.4834 27.2148C45.4834 27.1591 45.4637 27.1056 45.4285 27.0661C45.4285 27.0661 45.4285 27.0661 45.4285 27.0181C45.3672 26.994 45.3004 26.994 45.2392 27.0181C45.1848 27.0189 45.1322 27.0402 45.09 27.0785C45.0479 27.1168 45.0186 27.1699 45.0069 27.2292C44.9917 27.2955 44.9907 27.3648 45.0041 27.4315C45.0176 27.4983 45.0451 27.5605 45.0843 27.6131C45.1229 27.6594 45.1727 27.6922 45.2277 27.7075C45.2827 27.7229 45.3405 27.72 45.3941 27.6994C45.4715 27.6994 45.6607 27.6994 45.6607 27.5747C45.6607 27.6867 45.6208 27.7941 45.5499 27.8732C45.4789 27.9524 45.3826 27.9969 45.2822 27.9969C45.2097 27.9918 45.1387 27.9705 45.0737 27.9342C45.0087 27.898 44.9509 27.8475 44.9037 27.7858C44.8163 27.6488 44.7386 27.5045 44.6714 27.354L44.6284 27.2772L44.5596 27.354C44.614 27.5461 44.705 27.7228 44.8263 27.8722C44.9151 27.9852 45.0323 28.0657 45.1627 28.1034C45.2931 28.141 45.4307 28.134 45.5575 28.0833C45.6348 28.0483 45.7007 27.9881 45.7468 27.9105C45.7896 27.8043 45.8158 27.6908 45.8242 27.5747L45.6693 27.4019C45.6548 27.4326 45.6375 27.4616 45.6177 27.4883Z" fill="#231F20"/>
<path d="M46.8825 28.1718C46.8325 28.1572 46.7859 28.1307 46.7458 28.0943C46.7058 28.0579 46.6732 28.0123 46.6502 27.9607C46.6126 27.8825 46.5929 27.7951 46.5929 27.7064C46.5929 27.6176 46.6126 27.5303 46.6502 27.4521C46.6502 27.3177 46.7621 27.241 46.8051 27.1066L46.9169 26.9819C46.9424 26.9753 46.9689 26.9753 46.9944 26.9819H47.0718V26.8188H43.1661C43.158 26.7437 43.1681 26.6676 43.1953 26.5984C43.2226 26.5292 43.266 26.4694 43.321 26.4253C43.4326 26.3412 43.5648 26.2977 43.6995 26.3006C43.9209 26.321 44.1327 26.4108 44.3103 26.5596L44.3877 26.4253L44.0436 26.2142C43.9216 26.1662 43.7942 26.1371 43.6651 26.1278C43.58 26.1181 43.494 26.1289 43.4131 26.1596C43.3321 26.1903 43.258 26.2402 43.196 26.3058C43.1339 26.3714 43.0852 26.4512 43.0533 26.5398C43.0215 26.6283 43.0071 26.7235 43.0113 26.8188H42.8564V26.9819H43.0113V28.1814H43.1661V26.9819H44.3103H44.1899L43.7769 27.1162C43.6719 27.152 43.5685 27.1936 43.4672 27.241C43.4672 27.241 43.3898 27.241 43.3554 27.3273C43.3453 27.3273 43.3351 27.3296 43.3258 27.3339C43.3164 27.3382 43.3078 27.3446 43.3007 27.3526C43.2935 27.3607 43.2877 27.3702 43.2839 27.3806C43.28 27.3911 43.278 27.4024 43.278 27.4137V27.6248C43.4563 27.6233 43.6307 27.6836 43.7769 27.7975C43.9298 27.8884 44.0599 28.0203 44.1555 28.1814H44.3103V26.8955H46.0309V28.1334H46.1857V26.8955H46.7191C46.7283 26.9234 46.7283 26.954 46.7191 26.9819C46.6403 27.1301 46.5768 27.2879 46.5298 27.4521C46.4695 27.6447 46.4695 27.8544 46.5298 28.047C46.6416 28.3061 46.8739 28.3061 47.1062 28.2677V28.095C47.0374 28.2197 46.9169 28.1718 46.8825 28.1718ZM44.2415 27.9607C44.0287 27.7886 43.7975 27.6468 43.5533 27.5384C43.7737 27.4022 44.0039 27.2866 44.2415 27.193V27.9607Z" fill="#231F20"/>
<path d="M48.4136 28.0091C48.5004 28.0448 48.5795 28.1004 48.6459 28.1722L48.7233 28.0475C48.6528 27.9791 48.5747 27.921 48.491 27.8748L48.4136 28.0091Z" fill="#231F20"/>
<path d="M54.728 26.7698H54.5731C54.5705 26.7087 54.5551 26.6492 54.5282 26.5959C54.5013 26.5426 54.4637 26.497 54.4183 26.4628C54.3183 26.3817 54.1978 26.338 54.0741 26.338C53.8976 26.3404 53.7249 26.3968 53.5752 26.5011L53.6182 26.6355C53.7375 26.527 53.8859 26.4662 54.0398 26.4628C54.1192 26.4725 54.1956 26.502 54.2634 26.5491C54.2996 26.5676 54.3302 26.5974 54.3516 26.6349C54.373 26.6723 54.3841 26.7159 54.3838 26.7603H51.9321C51.9307 26.693 51.944 26.6263 51.971 26.5661C51.998 26.5059 52.0378 26.4539 52.0869 26.4148C52.2017 26.3305 52.3367 26.287 52.4741 26.29C52.6957 26.3094 52.9077 26.3994 53.0849 26.5491L53.1623 26.4148C52.9442 26.25 52.693 26.1478 52.431 26.1173C52.349 26.1071 52.266 26.1163 52.1874 26.1445C52.1088 26.1726 52.0365 26.2189 51.9751 26.2805C51.9149 26.3389 51.8668 26.4111 51.8341 26.4923C51.8014 26.5735 51.785 26.6617 51.7858 26.7507H50.1341C50.1326 26.6847 50.146 26.6193 50.173 26.5607C50.2001 26.502 50.24 26.4518 50.289 26.4148C50.403 26.3277 50.5379 26.2809 50.6761 26.2805C50.8958 26.309 51.1057 26.398 51.2869 26.5395L51.3643 26.4148C51.245 26.3506 51.1299 26.2769 51.0202 26.1941C50.8957 26.1454 50.765 26.1194 50.6331 26.1173C50.551 26.1071 50.468 26.1163 50.3894 26.1445C50.3108 26.1726 50.2385 26.2189 50.1771 26.2805C50.1165 26.3384 50.068 26.4106 50.0353 26.4919C50.0026 26.5732 49.9864 26.6616 49.9879 26.7507H49.833V26.933H49.9879V28.1709H50.1341V26.933H50.8309V27.5279L50.9772 27.6623L51.3643 27.4895C51.3721 27.5092 51.3762 27.5304 51.3762 27.5519C51.3762 27.5734 51.3721 27.5946 51.3643 27.6143C51.3643 27.7272 51.3247 27.8356 51.2539 27.9163C51.1832 27.997 51.087 28.0436 50.9858 28.0461C50.7105 28.0461 50.5212 27.835 50.3664 27.3648L50.2545 27.4416C50.3036 27.5926 50.3671 27.7374 50.4438 27.8734C50.517 27.9817 50.6111 28.0703 50.7191 28.1325C50.8285 28.1818 50.9452 28.2078 51.0632 28.2092C51.1797 28.1948 51.2883 28.1365 51.3711 28.0441C51.454 27.9517 51.5062 27.8306 51.5192 27.7006V27.4416L51.4073 27.3168L50.9858 27.4895V26.9809H51.7514V28.2188H51.9321V26.9809H52.5429C52.5429 26.9809 52.4655 27.1153 52.431 27.1537C52.4099 27.2226 52.4093 27.2972 52.4295 27.3664C52.4496 27.4356 52.4895 27.4957 52.5429 27.5375C52.5812 27.578 52.632 27.6006 52.6848 27.6006C52.7376 27.6006 52.7884 27.578 52.8267 27.5375C52.8351 27.557 52.8395 27.5783 52.8395 27.5999C52.8395 27.6215 52.8351 27.6428 52.8267 27.6623V27.7486C52.8229 27.793 52.8054 27.8345 52.7772 27.866C52.7489 27.8975 52.7117 27.9171 52.6719 27.9214C52.5851 27.9343 52.4968 27.9205 52.4165 27.8816C52.3361 27.8428 52.2668 27.7802 52.216 27.7006C52.216 27.6239 52.1385 27.5759 52.0955 27.4895C52.0955 27.4895 51.9837 27.5759 52.0181 27.6143C52.1729 27.8254 52.2934 28.0461 52.5171 28.0845C52.5888 28.1046 52.6635 28.1073 52.7362 28.0924C52.8089 28.0775 52.878 28.0453 52.9386 27.9981C52.982 27.9399 53.0143 27.8725 53.0335 27.7999C53.0527 27.7273 53.0585 27.6511 53.0504 27.5759V27.4416C53.0504 27.3552 52.9386 27.4415 52.9042 27.4895C52.8393 27.5086 52.7712 27.5086 52.7063 27.4895C52.6764 27.4892 52.6468 27.4812 52.62 27.4662C52.5931 27.4513 52.5697 27.4297 52.5514 27.4032C52.537 27.358 52.5368 27.3086 52.5509 27.2633C52.565 27.2179 52.5925 27.1793 52.6289 27.1537C52.6783 27.1049 52.7191 27.0463 52.7493 26.9809H52.9042L52.973 27.1057C52.973 27.1057 52.973 27.1921 53.0504 27.1921C53.0846 27.235 53.1273 27.2686 53.175 27.2903C53.2228 27.3119 53.2743 27.321 53.3257 27.3168C53.3257 27.3168 53.3257 27.4895 53.3257 27.5375C53.2831 27.6303 53.2569 27.7312 53.2483 27.835C53.2483 27.9729 53.2874 28.1073 53.3601 28.2188H53.4806C53.4637 28.1448 53.4377 28.0737 53.4032 28.0077C53.3818 27.9532 53.3708 27.8944 53.3708 27.835C53.3708 27.7756 53.3818 27.7168 53.4032 27.6623C53.4032 27.6623 53.4032 27.5759 53.4032 27.5375C53.4032 27.4991 53.4032 27.4895 53.4462 27.4512V27.3648L53.3343 27.1921H53.2569C53.102 27.1921 52.9816 27.1921 52.9472 27.0673H53.6526V28.3052H53.9279C54.0517 28.287 54.1705 28.2389 54.276 28.1644C54.3815 28.0898 54.4711 27.9905 54.5387 27.8734C54.5387 27.8734 54.5817 27.787 54.5817 27.7486C54.6019 27.6621 54.593 27.5703 54.5565 27.4907C54.52 27.4111 54.4585 27.3492 54.3838 27.3168C54.2982 27.2789 54.2028 27.2789 54.1172 27.3168C54.1172 27.3168 53.9623 27.3648 53.9623 27.4032L54.0398 27.5279C54.0975 27.4882 54.1619 27.4621 54.229 27.4512C54.2523 27.4485 54.2758 27.4512 54.2981 27.4591C54.3205 27.4669 54.3411 27.4798 54.3588 27.4968C54.3766 27.5139 54.3909 27.5348 54.4012 27.5583C54.4114 27.5818 54.4172 27.6074 54.4183 27.6335C54.4183 27.9693 54.0397 28.1037 53.8075 28.1037V27.0289H54.9172V28.2668H55.0721V27.0289H56.4743V27.4416C56.4743 27.3936 56.4743 27.3552 56.3969 27.3072C56.3195 27.2592 56.3281 27.2208 56.2851 27.2208C56.2269 27.2312 56.1718 27.2566 56.124 27.2949C56.0762 27.3332 56.0371 27.3834 56.0098 27.4416C55.9409 27.3072 55.8635 27.2208 55.7431 27.2208C55.6913 27.2205 55.6401 27.2323 55.5926 27.2554C55.5452 27.2786 55.5027 27.3126 55.4678 27.3552C55.4333 27.3845 55.4053 27.4222 55.3859 27.4655C55.3665 27.5087 55.3563 27.5564 55.3559 27.6047C55.3559 27.8254 55.4678 27.9885 55.7345 28.0365H55.7775V27.8638H55.7173C55.6411 27.8853 55.5612 27.8853 55.485 27.8638C55.4469 27.8163 55.4258 27.7548 55.4258 27.6911C55.4258 27.6273 55.4469 27.5658 55.485 27.5183C55.5157 27.4741 55.5604 27.4446 55.6099 27.4357C55.6594 27.4268 55.7101 27.4392 55.7517 27.4703C55.7517 27.4703 55.7517 27.4703 55.7517 27.5183C55.7517 27.5663 55.7517 27.6431 55.7517 27.6911H55.9151C55.9151 27.6047 55.9151 27.5567 55.9151 27.5183C55.9151 27.4799 55.9926 27.432 56.027 27.432C56.0614 27.432 56.2248 27.5663 56.2248 27.8638V28.1133H56.4485V26.9234H56.569V26.7986L54.728 26.7698Z" fill="#231F20"/>
<path d="M47.8026 26.7714V27.1073H47.7596C47.7357 27.0454 47.6991 26.9906 47.6528 26.9472C47.6065 26.9039 47.5517 26.8733 47.4929 26.8578C47.4345 26.836 47.372 26.8316 47.3116 26.8451C47.2513 26.8585 47.1951 26.8894 47.1488 26.9346L47.0283 27.0689L47.1058 27.2417L47.1832 27.1553C47.2247 27.1081 47.2792 27.0777 47.338 27.0689C47.4543 27.0822 47.5618 27.1439 47.6391 27.2417C47.794 27.4144 47.7596 27.6639 47.7596 27.923V28.2684H47.9058V26.973H48.9812C48.6614 27.0961 48.3531 27.2536 48.0607 27.4432V27.6543C48.239 27.6528 48.4134 27.7131 48.5596 27.827C48.712 27.8963 48.8434 28.0128 48.9382 28.1629H49.093V26.925H49.2478V26.7619L47.8026 26.7714ZM49.0328 27.9613C48.8466 27.7667 48.623 27.6223 48.379 27.5391C48.5838 27.3953 48.8033 27.2793 49.0328 27.1937V27.9613Z" fill="#231F20"/>
<path d="M39.0278 26.8915H39.6816V27.4481L39.7935 27.6208L40.1806 27.4481C40.1887 27.4693 40.1928 27.4921 40.1928 27.5152C40.1928 27.5383 40.1887 27.5611 40.1806 27.5824C40.1784 27.6416 40.1657 27.6998 40.1433 27.7536C40.121 27.8074 40.0892 27.8557 40.0501 27.8958C40.0109 27.9359 39.9651 27.967 39.9151 27.9873C39.8652 28.0076 39.8122 28.0168 39.759 28.0142C39.5795 27.9515 39.4285 27.814 39.3375 27.6304C39.2903 27.535 39.25 27.4355 39.2171 27.3329L39.1053 27.4097L39.2171 27.7167C39.2734 27.8495 39.3606 27.9631 39.4695 28.0457C39.5784 28.1284 39.7051 28.1771 39.8365 28.1869C39.9597 28.1839 40.0794 28.1405 40.1806 28.0622C40.3699 27.9278 40.3699 27.6688 40.3699 27.4193C40.3699 27.3329 40.2924 27.2849 40.258 27.2465L39.8365 27.4193V26.9011H40.6365V28.139H40.7484V26.9011H41.5484C41.3257 27.0268 41.1102 27.1678 40.9032 27.3233V27.544H41.0237C41.1378 27.5864 41.241 27.6588 41.3247 27.7551C41.4022 27.8415 41.4452 27.9662 41.514 28.0526H41.6689V27.093H41.8237C41.9025 27.125 41.9692 27.1859 42.013 27.2657C42.056 27.3905 42.013 27.4768 41.8667 27.4768H41.7893V27.6496C41.8525 27.6453 41.9137 27.6238 41.9677 27.587C42.0217 27.5502 42.0668 27.4992 42.099 27.4384C42.1322 27.3755 42.1426 27.3007 42.1283 27.2295C42.1139 27.1582 42.0757 27.0957 42.0216 27.0546C41.9154 26.9778 41.7994 26.9195 41.6775 26.8819H41.6H42.2539V26.7188H39.0278V26.8915ZM41.6087 27.9566C41.5111 27.7484 41.3656 27.5729 41.1871 27.4481C41.3072 27.3144 41.4507 27.2098 41.6087 27.141V27.9566Z" fill="#231F20"/>
<path d="M47.4583 27.1914C47.4058 27.1586 47.3465 27.1414 47.2863 27.1414C47.226 27.1414 47.1668 27.1586 47.1143 27.1914C47.3035 27.1914 47.4154 27.1914 47.3809 27.3258C47.3684 27.392 47.3414 27.4538 47.3024 27.5057C47.2634 27.5576 47.2136 27.5979 47.1573 27.6233L47.2347 27.7576C47.3292 27.7115 47.4186 27.6536 47.5013 27.5849C47.5702 27.5369 47.682 27.2778 47.4583 27.1914Z" fill="#231F20"/>
<path d="M62.1264 26.7678H57.6788C57.5108 26.9111 57.3777 27.0992 57.2917 27.3148C57.1798 27.6219 57.2917 28.1688 57.6444 28.1688C57.6674 28.1802 57.6923 28.1861 57.7175 28.1861C57.7427 28.1861 57.7676 28.1802 57.7906 28.1688V28.0441C57.7548 28.0606 57.7146 28.0606 57.6788 28.0441C57.524 28.0441 57.4465 27.833 57.4465 27.6986C57.4371 27.5014 57.4921 27.3071 57.6014 27.1517C57.6396 27.0843 57.6898 27.0264 57.7491 26.9818C57.8083 26.9372 57.8752 26.9068 57.9455 26.8926H59.1327V27.4395C59.1217 27.3867 59.0972 27.3385 59.062 27.301C59.0269 27.2635 58.9827 27.2383 58.9348 27.2284C58.879 27.2391 58.8261 27.2637 58.78 27.3002C58.7338 27.3367 58.6956 27.3844 58.6681 27.4395C58.6435 27.38 58.6049 27.329 58.5565 27.2918C58.508 27.2546 58.4515 27.2328 58.3928 27.2284C58.3431 27.2284 58.2939 27.2394 58.248 27.2606C58.2021 27.2818 58.1603 27.3129 58.1252 27.3521C58.09 27.3913 58.0622 27.4378 58.0431 27.4891C58.0241 27.5403 58.0143 27.5952 58.0143 27.6507C58.0143 27.7635 58.0539 27.872 58.1246 27.9527C58.1954 28.0334 58.2917 28.08 58.3928 28.0825V27.9097C58.324 27.9182 58.2545 27.9014 58.195 27.8618C58.0832 27.8618 58.0832 27.6123 58.195 27.5259C58.2123 27.4982 58.2355 27.4758 58.2625 27.4607C58.2896 27.4456 58.3196 27.4383 58.3498 27.4395C58.377 27.442 58.4034 27.4503 58.4277 27.4642C58.4519 27.4781 58.4734 27.4971 58.491 27.5203C58.5086 27.5435 58.5219 27.5704 58.5301 27.5993C58.5384 27.6283 58.5414 27.6588 58.5391 27.689H58.6939V27.5643C58.7005 27.5324 58.7155 27.5035 58.737 27.4813C58.7584 27.459 58.7854 27.4445 58.8144 27.4395C58.8327 27.445 58.8498 27.4547 58.8646 27.4679C58.8794 27.4811 58.8915 27.4976 58.9004 27.5163C58.9334 27.5633 58.9574 27.6174 58.9707 27.6752C58.984 27.733 58.9864 27.7932 58.9778 27.8522V28.1113H59.2101V26.8734H60.208V27.6794C60.1559 27.5568 60.0746 27.4525 59.9729 27.3781C59.8713 27.3036 59.7532 27.2618 59.6316 27.2572C59.5886 27.2595 59.5465 27.2718 59.508 27.2933C59.4695 27.3148 59.4354 27.345 59.408 27.382C59.3754 27.4177 59.3496 27.4603 59.332 27.5072C59.3144 27.5542 59.3053 27.6046 59.3053 27.6555C59.3053 27.7064 59.3144 27.7567 59.332 27.8037C59.3496 27.8506 59.3754 27.8932 59.408 27.9289C59.4596 27.9837 59.5263 28.0174 59.5972 28.0249C59.6584 28.049 59.7253 28.049 59.7865 28.0249V27.8522C59.769 27.8615 59.7499 27.8664 59.7306 27.8664C59.7112 27.8664 59.6921 27.8615 59.6746 27.8522C59.5972 27.8522 59.5198 27.8522 59.4768 27.7658C59.4338 27.6794 59.5972 27.5163 59.709 27.5163C59.8419 27.5411 59.9633 27.6155 60.0532 27.7274C60.1577 27.8238 60.2254 27.9611 60.2424 28.1113V28.1976H60.3973V26.8734H60.8962C60.8003 26.9715 60.7215 27.0886 60.664 27.2188C60.5917 27.3934 60.5535 27.5831 60.5521 27.7754C60.5521 27.9385 60.664 28.1592 60.8274 28.1976C60.9527 28.2218 61.0807 28.2218 61.206 28.1976V28.0345C61.1885 28.0438 61.1694 28.0487 61.15 28.0487C61.1307 28.0487 61.1116 28.0438 61.0941 28.0345C60.9899 28.0295 60.8914 27.9798 60.8192 27.8958C60.7471 27.8117 60.7069 27.6998 60.707 27.5835C60.7075 27.4323 60.7495 27.2849 60.8274 27.1612C60.8546 27.0963 60.8925 27.0377 60.9392 26.9885L61.0167 26.9022C61.0167 26.9022 61.0941 26.9022 61.0941 26.8158V27.4971L61.206 27.6219C61.3838 27.4582 61.577 27.3166 61.7823 27.1996C61.7823 27.1996 61.7823 27.286 61.7823 27.3244V27.4971C61.7611 27.5981 61.7611 27.7032 61.7823 27.8042V28.0153L61.9028 27.9673C61.9028 27.9673 61.9028 27.7562 61.9028 27.7178V27.4108C61.9028 27.3244 61.9802 27.238 61.9802 27.1037L61.8253 26.8926C61.6223 26.9769 61.4311 27.0933 61.2576 27.238V26.8062H62.9781V27.5355C62.9679 27.4843 62.9401 27.4395 62.9007 27.4108C62.8126 27.2869 62.6924 27.1965 62.5565 27.1517C62.4653 27.1218 62.3671 27.1332 62.2834 27.1835C62.1996 27.2338 62.1371 27.3189 62.1092 27.4204C62.1092 27.4971 62.1092 27.5835 62.1092 27.6698C62.1364 27.7348 62.1743 27.7934 62.2211 27.8426C62.2473 27.8709 62.2783 27.8931 62.3122 27.9079C62.3462 27.9227 62.3825 27.9299 62.4189 27.9289H62.4878H62.5651V27.7562H62.4878H62.3759C62.3569 27.7539 62.3385 27.7473 62.322 27.7367C62.3054 27.7261 62.291 27.7118 62.2797 27.6946C62.2684 27.6775 62.2604 27.6579 62.2562 27.6371C62.252 27.6163 62.2518 27.5948 62.2555 27.5739C62.2631 27.5462 62.2758 27.5206 62.2928 27.4986C62.3097 27.4766 62.3306 27.4588 62.354 27.4462C62.3774 27.4336 62.4029 27.4264 62.4288 27.4253C62.4548 27.4242 62.4807 27.429 62.5049 27.4395C62.6254 27.4654 62.7329 27.5407 62.806 27.6507C62.8605 27.6965 62.906 27.7541 62.94 27.8201C62.974 27.886 62.9957 27.959 63.0039 28.0345V28.1208H63.1587V26.7966H63.2276V26.6719L62.1264 26.7678Z" fill="#231F20"/>
</svg>
