<svg width="80" height="35" viewBox="0 0 80 35" fill="none" xmlns="http://www.w3.org/2000/svg">
<path d="M77.4801 0H2.51983C1.12816 0 0 1.5706 0 3.50803V31.492C0 33.4294 1.12816 35 2.51983 35H77.4801C78.8718 35 80 33.4294 80 31.492V3.50803C80 1.5706 78.8718 0 77.4801 0Z" fill="white"/>
<path d="M30.267 16.0892H24.5031C23.5403 16.2237 22.6541 16.7441 22.0096 17.5533C21.3652 18.3624 21.0064 19.4054 21.0001 20.4877C20.9938 21.5701 21.3404 22.6181 21.9753 23.4366C22.6103 24.2551 23.4903 24.7882 24.4515 24.9367C24.6867 24.3489 25.1214 23.8894 25.6602 23.6591C26.199 23.4287 26.7978 23.4465 27.3249 23.7084C27.8133 23.9553 28.2046 24.3919 28.426 24.9367H30.267V16.0892ZM28.1507 22.5185H24.9333C24.48 22.5035 24.0485 22.2989 23.7242 21.9454C23.3999 21.5919 23.2067 21.1153 23.1829 20.6102C23.1591 20.1051 23.3063 19.6085 23.5956 19.219C23.8848 18.8294 24.2947 18.5754 24.744 18.5074H28.1851L28.1507 22.5185Z" fill="#813C8F"/>
<path d="M25.3377 13.9978L26.198 14.9574H27.3938L26.5335 13.9978C26.6559 13.9467 26.768 13.8691 26.8633 13.7694C26.9586 13.6697 27.0353 13.5499 27.0888 13.417C27.1424 13.284 27.1719 13.1405 27.1755 12.9948C27.1791 12.8491 27.1568 12.7041 27.1099 12.5681C27.0562 12.4022 26.9669 12.2534 26.85 12.1347C26.7331 12.016 26.592 11.9308 26.4389 11.8867H24.5635V14.967H25.3291L25.3377 13.9978ZM25.3377 12.6832H26.2582C26.3062 12.6832 26.3521 12.7044 26.3859 12.7422C26.4198 12.78 26.4389 12.8313 26.4389 12.8847C26.4389 12.9382 26.4198 12.9894 26.3859 13.0272C26.3521 13.065 26.3062 13.0862 26.2582 13.0862H25.3377V12.6832Z" fill="#813C8F"/>
<path d="M28.744 14.9525C29.0214 14.9525 29.2925 14.8607 29.5231 14.6889C29.7537 14.517 29.9334 14.2727 30.0395 13.9869C30.1457 13.7011 30.1735 13.3866 30.1194 13.0832C30.0653 12.7798 29.9317 12.5011 29.7356 12.2823C29.5395 12.0636 29.2896 11.9146 29.0176 11.8543C28.7456 11.7939 28.4637 11.8249 28.2074 11.9433C27.9512 12.0617 27.7322 12.2621 27.5781 12.5194C27.424 12.7766 27.3418 13.079 27.3418 13.3883C27.3418 13.8032 27.4895 14.201 27.7525 14.4944C28.0155 14.7877 28.3721 14.9525 28.744 14.9525ZM28.744 12.707C28.8669 12.7071 28.987 12.7478 29.0891 12.8242C29.1911 12.9005 29.2705 13.009 29.3171 13.1358C29.3637 13.2626 29.3755 13.402 29.3509 13.5363C29.3263 13.6706 29.2664 13.7937 29.1789 13.8899C29.0914 13.9861 28.9803 14.0512 28.8596 14.0767C28.7388 14.1023 28.614 14.0872 28.501 14.0335C28.388 13.9797 28.2919 13.8897 28.2249 13.7748C28.1578 13.6599 28.123 13.5254 28.1247 13.3883C28.1247 13.2981 28.1408 13.2087 28.172 13.1254C28.2032 13.0421 28.249 12.9666 28.3066 12.9032C28.3642 12.8398 28.4326 12.7898 28.5077 12.7561C28.5828 12.7225 28.6631 12.7058 28.744 12.707Z" fill="#813C8F"/>
<path d="M35.9362 26.2656H35.334V26.6591C35.3384 26.7414 35.3715 26.8185 35.4261 26.874C35.4807 26.9296 35.5526 26.9592 35.6264 26.9565H36.1082V26.4671C36.0997 26.4188 36.079 26.3741 36.0485 26.3384C36.018 26.3027 35.9791 26.2775 35.9362 26.2656ZM35.7555 26.6878C35.6437 26.6878 35.5577 26.6399 35.5577 26.5919C35.5577 26.5439 35.6437 26.4863 35.7555 26.4863C35.8673 26.4863 35.9534 26.5343 35.9534 26.5919C35.9534 26.6495 35.8587 26.6878 35.7469 26.6878H35.7555Z" fill="#813C8F"/>
<path d="M42.0438 26.2656H41.4502V26.6591C41.4546 26.7397 41.4864 26.8154 41.5392 26.8707C41.592 26.926 41.6617 26.9567 41.7341 26.9565H42.2159V26.4671C42.2108 26.4172 42.1913 26.3705 42.1602 26.3341C42.1291 26.2977 42.0882 26.2737 42.0438 26.2656ZM41.8631 26.6878C41.7513 26.6878 41.6653 26.6399 41.6653 26.5919C41.6653 26.5439 41.7513 26.4863 41.8631 26.4863C41.9749 26.4863 42.0524 26.5343 42.0524 26.5919C42.0524 26.6495 41.9663 26.6878 41.8545 26.6878H41.8631Z" fill="#813C8F"/>
<path d="M48.5478 5.36819L43.0764 11.4808L43.455 14.9066L44.4701 12.5555L47.5929 16.9985L51.963 2L37.4072 8.71716L41.3473 11.0298L48.5478 5.36819Z" fill="#813C8F"/>
<path d="M43.7905 16.0892H38.0095C37.0466 16.2237 36.1604 16.7441 35.516 17.5533C34.8715 18.3624 34.5127 19.4054 34.5064 20.4877C34.5001 21.5701 34.8467 22.6181 35.4817 23.4366C36.1167 24.2551 36.9967 24.7882 37.9579 24.9367H43.7733V18.5074C44.166 18.5158 44.5456 18.666 44.8552 18.9355C45.1649 19.205 45.3878 19.5792 45.4906 20.002C45.5933 20.4248 45.5703 20.8734 45.4251 21.2804C45.2799 21.6875 45.0203 22.031 44.6852 22.2594C44.9777 22.6337 46.1305 24.0251 46.1305 24.0251C46.7801 23.4632 47.2575 22.6905 47.497 21.8133C47.7364 20.9362 47.7262 19.9978 47.4677 19.1274C47.2092 18.257 46.7151 17.4974 46.0534 16.9533C45.3918 16.4092 44.5952 16.1073 43.7733 16.0892H43.7905ZM41.6743 22.5185H38.4568C38.0036 22.5035 37.572 22.2989 37.2478 21.9454C36.9235 21.5919 36.7303 21.1153 36.7064 20.6102C36.6826 20.1051 36.8299 19.6085 37.1191 19.219C37.4083 18.8294 37.8182 18.5754 38.2676 18.5074H41.7086L41.6743 22.5185Z" fill="#813C8F"/>
<path d="M49.89 13.6803C50.1652 13.9298 51.4814 15.2348 51.4814 15.2348C51.6079 15.0065 51.7738 14.8085 51.9694 14.6523C52.1651 14.4961 52.3866 14.3849 52.6212 14.3251C52.8557 14.2652 53.0986 14.258 53.3356 14.3038C53.5727 14.3496 53.7993 14.4476 54.0021 14.5919C54.2361 14.7546 54.4347 14.9733 54.5834 15.2323C54.7322 15.4912 54.8275 15.7838 54.8624 16.0889H48.7544V24.9363H55.6366C56.2395 24.9367 56.8216 24.6909 57.2733 24.2455C57.7249 23.8 58.0149 23.1856 58.0884 22.5182C58.174 21.7655 57.9897 21.0055 57.5757 20.4035C57.1617 19.8015 56.5514 19.4062 55.8775 19.3035H53.7612L52.8493 21.6641H55.542C55.656 21.6641 55.7655 21.7147 55.8461 21.8046C55.9268 21.8946 55.9721 22.0167 55.9721 22.1439C55.9721 22.2712 55.9268 22.3932 55.8461 22.4832C55.7655 22.5732 55.656 22.6237 55.542 22.6237H50.8793V18.5454H58.0368V16.0889H56.9356C56.6431 11.1086 51.3008 10.9551 49.89 13.6803Z" fill="#813C8F"/>
<path d="M33.1227 25.8483L34.7056 24.3418C33.8203 23.1529 33.3853 21.6259 33.4929 20.0851C33.6005 18.5442 34.2423 17.1108 35.282 16.0892H32.4947C31.6324 17.5703 31.2271 19.3249 31.3404 21.0863C31.4538 22.8478 32.0796 24.5198 33.1227 25.8483Z" fill="#813C8F"/>
<path d="M26.4387 27.8842C27.4032 27.8842 28.1851 27.0121 28.1851 25.9363C28.1851 24.8604 27.4032 23.9883 26.4387 23.9883C25.4742 23.9883 24.6924 24.8604 24.6924 25.9363C24.6924 27.0121 25.4742 27.8842 26.4387 27.8842Z" fill="#813C8F"/>
<path d="M36.8828 14.9471H37.9409V14.0355H36.6849C36.5967 14.037 36.5093 14.0152 36.4301 13.9718C36.3508 13.9284 36.2819 13.8648 36.229 13.786H37.9495V12.9703H36.229C36.2819 12.8916 36.3508 12.8279 36.4301 12.7845C36.5093 12.7412 36.5967 12.7193 36.6849 12.7209H37.9409V11.8092H36.8742C36.6899 11.7935 36.5047 11.8186 36.3292 11.883C36.1537 11.9474 35.9913 12.0499 35.8514 12.1846C35.7115 12.3193 35.5968 12.4834 35.514 12.6677C35.4311 12.8519 35.3817 13.0526 35.3687 13.2582C35.3426 13.6753 35.4655 14.0869 35.7104 14.4033C35.9554 14.7197 36.3026 14.9152 36.6763 14.9471H36.8828Z" fill="#813C8F"/>
<path d="M31.8072 14.9473H32.8482V14.0358H31.6524C31.4995 14.0358 31.3529 13.968 31.2448 13.8474C31.1367 13.7269 31.076 13.5633 31.076 13.3928C31.076 13.2223 31.1367 13.0588 31.2448 12.9382C31.3529 12.8176 31.4995 12.7499 31.6524 12.7499H32.8482V11.8383H31.7729C31.4057 11.8194 31.0464 11.961 30.7714 12.2331C30.4965 12.5052 30.3276 12.8863 30.3007 13.2951C30.2738 13.704 30.391 14.1085 30.6274 14.4225C30.8638 14.7364 31.2007 14.9351 31.5664 14.9761L31.8072 14.9473Z" fill="#813C8F"/>
<path d="M39.8758 14.8995V12.6828H40.8652V11.8672H38.1553V12.6732H39.1532V14.8899L39.8758 14.8995Z" fill="#813C8F"/>
<path d="M33.9145 14.0359L34.6888 14.8995H35.7641L34.4135 13.3738L35.7469 11.8768H34.6629L33.9145 12.7212V11.8672H33.1919V14.8899H33.9145V14.0359Z" fill="#813C8F"/>
<path d="M45.2356 26.4238V26.2031H45.1324L44.9431 26.4046C44.7928 26.5724 44.6987 26.7925 44.6764 27.0284V27.1051C44.6639 27.1942 44.6639 27.2848 44.6764 27.3738C44.7021 27.4662 44.7496 27.549 44.814 27.6137C44.883 27.6815 44.9717 27.719 45.0636 27.7193C45.1335 27.716 45.2016 27.6929 45.2614 27.6521L45.184 27.4218C45.1487 27.4593 45.1034 27.4829 45.0549 27.489C44.9861 27.489 44.9345 27.4314 44.9001 27.3354C44.8658 27.2613 44.8481 27.179 44.8485 27.0955C44.8559 26.9502 44.9007 26.8103 44.9775 26.6925C45.0501 26.564 45.1639 26.4713 45.2958 26.4334H45.2012L45.2356 26.4238Z" fill="#813C8F"/>
<path d="M45.4077 26.4226H45.3389V26.5761H45.5883C45.6124 26.5776 45.6358 26.5853 45.6567 26.5987C45.6776 26.612 45.6954 26.6306 45.7088 26.6529C45.7408 26.6971 45.7617 26.7502 45.769 26.8065C45.6868 26.8082 45.6065 26.8347 45.5367 26.8832C45.4867 26.9197 45.4456 26.9696 45.417 27.0282C45.3885 27.0868 45.3735 27.1524 45.3733 27.2191C45.3697 27.2606 45.3697 27.3023 45.3733 27.3438C45.4048 27.4194 45.4557 27.4828 45.5195 27.5262C45.5793 27.5754 45.6516 27.6022 45.7259 27.6029C45.8149 27.5943 45.9007 27.5614 45.9755 27.5069L45.9152 27.2767L45.7346 27.3438C45.7029 27.3356 45.6734 27.3192 45.6486 27.2958C45.6385 27.2681 45.6385 27.2372 45.6486 27.2095C45.6649 27.1717 45.6906 27.1399 45.7226 27.1178C45.7546 27.0957 45.7916 27.0842 45.8292 27.0847C45.9129 27.0854 45.9942 27.1157 46.0615 27.1711C46.1258 27.223 46.1863 27.2808 46.2421 27.3438C46.3032 27.3989 46.3431 27.4778 46.354 27.5645V27.7277H46.5862V26.4514H46.6121V26.2307H45.4249L45.4077 26.4226ZM46.3195 26.4226V27.1135C46.2395 27.0012 46.1362 26.9122 46.0185 26.8544C46.0136 26.767 45.9899 26.6821 45.9495 26.6069C45.9091 26.5318 45.8531 26.4686 45.7862 26.4226H46.3195Z" fill="#813C8F"/>
<path d="M46.7069 26.4238H46.7671V27.7001H46.9908V26.4238H47.0596V26.2031H46.6982L46.7069 26.4238Z" fill="#813C8F"/>
<path d="M47.1455 26.4238H48.0918L47.5843 26.6445C47.4314 26.7122 47.2845 26.7958 47.1455 26.894L47.2058 27.1531C47.3182 27.1546 47.4293 27.1807 47.5327 27.2299C47.6388 27.274 47.7399 27.3319 47.8338 27.4026C48.0144 27.537 48.1091 27.6329 48.1263 27.7001H48.3327V26.4238V26.2031H47.1025L47.1455 26.4238ZM48.1004 27.3258H48.0488C47.8927 27.1907 47.7186 27.0839 47.5327 27.0092L47.9284 26.8173L48.0574 26.7597L48.1004 27.3258Z" fill="#813C8F"/>
<path d="M48.4871 26.4238H48.5474V27.7001H48.771V26.4238H48.8484V26.2031H48.4785L48.4871 26.4238Z" fill="#813C8F"/>
<path d="M49.0553 26.0238C49.0863 26.0144 49.1189 26.0144 49.1499 26.0238H49.2445H49.3305H49.3821C49.426 26.0387 49.4641 26.0694 49.4906 26.1111C49.5171 26.1527 49.5304 26.2031 49.5284 26.2541H48.9348V26.4748H49.7951V26.2541C49.8 26.1727 49.785 26.0913 49.7516 26.0186C49.7183 25.9459 49.6679 25.8847 49.6058 25.8415C49.5499 25.7977 49.4846 25.7712 49.4166 25.7647C49.36 25.7503 49.3011 25.7503 49.2445 25.7647C49.1218 25.7948 49.005 25.8502 48.9004 25.9278L48.9778 26.1197L49.0553 26.0238Z" fill="#813C8F"/>
<path d="M49.3222 27.3745C49.4331 27.3623 49.5396 27.3194 49.6319 27.2497C49.6759 27.2125 49.7119 27.1647 49.7372 27.1099C49.7625 27.0551 49.7765 26.9947 49.7781 26.9331C49.7776 26.847 49.7545 26.763 49.7117 26.6914C49.6689 26.6198 49.6083 26.5637 49.5373 26.5301H49.4512C49.4144 26.5212 49.3763 26.5212 49.3394 26.5301C49.2462 26.5304 49.1545 26.5568 49.0727 26.6068C49.031 26.6253 48.995 26.6569 48.969 26.6978C48.9431 26.7387 48.9283 26.7871 48.9265 26.8371C48.9265 26.8913 48.9403 26.9443 48.9662 26.9901C48.992 27.036 49.029 27.0727 49.0727 27.0962C49.1141 27.1335 49.1658 27.1538 49.219 27.1538L49.348 26.9427C49.2276 26.9427 49.1674 26.9427 49.1588 26.8563C49.1502 26.7699 49.1588 26.8083 49.2104 26.7891H49.305L49.4426 26.8851C49.4637 26.8987 49.4813 26.9183 49.4933 26.9419C49.5054 26.9655 49.5117 26.9923 49.5115 27.0195C49.5115 27.1058 49.4512 27.173 49.3308 27.2306C49.2484 27.2487 49.1637 27.2487 49.0813 27.2306H48.8921V27.528L49.0555 27.5856C49.1434 27.6187 49.2272 27.6638 49.305 27.7199C49.4109 27.7979 49.5116 27.8845 49.6061 27.979L49.7695 27.8447C49.6744 27.7355 49.5708 27.6359 49.4598 27.5472L49.3222 27.3745Z" fill="#813C8F"/>
<path d="M49.8726 26.4226H51.0167V26.8065C50.9985 26.7799 50.975 26.7583 50.9482 26.7434C50.9214 26.7284 50.8919 26.7205 50.8619 26.7201C50.8065 26.7249 50.7529 26.7438 50.7052 26.7754C50.6574 26.807 50.6168 26.8505 50.5866 26.9024C50.5564 26.8461 50.5135 26.7996 50.4622 26.7676C50.4109 26.7356 50.3529 26.7192 50.2941 26.7201C50.2404 26.7182 50.1868 26.7282 50.1366 26.7496C50.0864 26.771 50.0405 26.8034 50.0016 26.8448C49.9252 26.936 49.8822 27.0559 49.8812 27.1807C49.8722 27.241 49.8722 27.3027 49.8812 27.363C49.8995 27.4229 49.9322 27.476 49.9758 27.5166C50.0142 27.5593 50.0599 27.5932 50.11 27.6162C50.1602 27.6393 50.214 27.6511 50.2683 27.6509H50.3543L50.4318 27.3918H50.3199C50.1737 27.3918 50.0962 27.3246 50.0962 27.1903V27.1039C50.0991 27.0826 50.1059 27.0622 50.1163 27.044C50.1267 27.0258 50.1403 27.0103 50.1565 26.9984C50.1896 26.9834 50.2266 26.9834 50.2597 26.9984C50.2826 26.9998 50.3048 27.0075 50.3244 27.0209C50.3439 27.0343 50.3601 27.053 50.3715 27.0751C50.3894 27.1007 50.4024 27.1301 50.4098 27.1614C50.4171 27.1927 50.4188 27.2254 50.4145 27.2575H50.664C50.664 27.1952 50.6822 27.1346 50.7157 27.0847C50.724 27.0645 50.7373 27.0475 50.754 27.0356C50.7708 27.0236 50.7904 27.0174 50.8103 27.0176C50.8322 27.0187 50.8537 27.0253 50.8731 27.0369C50.8924 27.0485 50.9092 27.0649 50.9221 27.0847C50.9545 27.1202 50.9731 27.1685 50.9737 27.2191V27.7277H51.1974V26.4514H51.335V26.2307H49.8812L49.8726 26.4226Z" fill="#813C8F"/>
<path d="M51.9287 26.4238H52.9524L52.4449 26.6445C52.292 26.7122 52.1451 26.7958 52.0062 26.894L52.0664 27.1531C52.1788 27.1546 52.2898 27.1807 52.3932 27.2299C52.4994 27.274 52.6005 27.3319 52.6944 27.4026C52.875 27.537 52.9696 27.6329 52.9868 27.7001H53.1933V26.4238H53.2535V26.2031H51.9287V26.4238ZM52.9697 27.3258H52.9094C52.7533 27.1907 52.5791 27.0839 52.3932 27.0092L52.789 26.8173L52.9267 26.7597L52.9697 27.3258Z" fill="#813C8F"/>
<path d="M53.3481 26.4238H53.4944C53.4412 26.5232 53.4088 26.6348 53.3998 26.7501C53.4118 26.8604 53.4409 26.9676 53.4858 27.0668C53.5295 27.1658 53.5558 27.2733 53.5632 27.3834C53.5632 27.4506 53.503 27.5082 53.3653 27.5369V27.7577C53.4474 27.7557 53.5286 27.7395 53.6062 27.7097C53.6692 27.6944 53.7257 27.6557 53.7663 27.5999C53.807 27.5441 53.8294 27.4745 53.8299 27.4026C53.8231 27.3007 53.8028 27.2004 53.7697 27.1051C53.7234 26.9741 53.686 26.8394 53.6578 26.7021C53.6676 26.5984 53.7068 26.5009 53.7697 26.4238H53.8557V26.2031H53.3825L53.3481 26.4238Z" fill="#813C8F"/>
<path d="M53.8903 26.4238H53.9935V27.7001H54.2172V26.4238H54.3548V26.2031H53.873L53.8903 26.4238Z" fill="#813C8F"/>
<path d="M54.4062 27.0083V27.3633C54.6217 27.498 54.8212 27.6624 54.9998 27.8527L55.1891 28.0254V27.7663C54.9612 27.474 54.6977 27.2188 54.4062 27.0083Z" fill="#813C8F"/>
<path d="M54.7419 27.0288C54.7859 27.0335 54.8303 27.0274 54.8719 27.0108C54.9136 26.9942 54.9514 26.9676 54.9828 26.9329C55.0412 26.8551 55.0718 26.756 55.0688 26.6546C55.068 26.5908 55.0532 26.5282 55.0258 26.4723C55.0072 26.4048 54.9695 26.3458 54.9183 26.3043C54.8671 26.2628 54.8052 26.2409 54.7419 26.242C54.6954 26.2402 54.6491 26.2496 54.6061 26.2695C54.563 26.2893 54.5243 26.3192 54.4924 26.3571C54.4595 26.3915 54.4334 26.4332 54.4157 26.4794C54.3979 26.5256 54.3889 26.5755 54.3892 26.6258C54.3885 26.679 54.3973 26.7318 54.415 26.7812C54.4327 26.8306 54.459 26.8757 54.4924 26.9137C54.5231 26.9532 54.5616 26.9842 54.6049 27.0042C54.6483 27.0242 54.6952 27.0326 54.7419 27.0288ZM54.7419 26.4914H54.8108C54.8327 26.5088 54.8504 26.5318 54.8624 26.5586C54.8744 26.5854 54.8803 26.615 54.8796 26.645C54.8775 26.6753 54.8674 26.7043 54.8506 26.7282C54.8337 26.7521 54.8109 26.7699 54.7849 26.7793C54.749 26.7778 54.715 26.7605 54.6903 26.7313C54.6636 26.7003 54.6483 26.6592 54.6473 26.6162C54.6473 26.5394 54.6903 26.4914 54.7763 26.4723L54.7419 26.4914Z" fill="#813C8F"/>
<path d="M55.9719 25.7733C56.2092 25.8013 56.4352 25.9009 56.6257 26.0612L56.7547 25.8788C56.6381 25.7949 56.5175 25.718 56.3934 25.6485C56.2611 25.5808 56.1175 25.5449 55.9719 25.543H55.8686C55.7143 25.555 55.5684 25.6262 55.4557 25.7445C55.3517 25.8622 55.293 26.0206 55.2923 26.1859H55.146V26.4066H55.2148V27.6829H55.4471V26.4066V26.1859C55.4467 26.1086 55.4645 26.0324 55.4987 25.9652C55.5573 25.8922 55.6312 25.8365 55.7137 25.803C55.7962 25.7696 55.8849 25.7593 55.9719 25.7733Z" fill="#813C8F"/>
<path d="M56.7376 26.5411C56.6449 26.483 56.5423 26.447 56.4365 26.4355H57.0559V26.2148H55.6364V26.4355H56.2042L56.0322 26.5507L55.8773 26.6466L55.5332 26.877L55.5934 27.1264C55.6754 27.1354 55.7562 27.1548 55.8343 27.184C55.8343 27.184 55.8343 27.184 55.8859 27.184C55.9104 27.2177 55.9394 27.2468 55.972 27.2704L56.0493 27.3568L56.1354 27.4815C56.1718 27.5322 56.2035 27.5868 56.23 27.6446H56.4365V26.6371C56.6343 26.6371 56.729 26.733 56.729 26.8386C56.729 26.9441 56.6688 26.9729 56.5569 26.9729H56.4881V27.2224C56.5524 27.2459 56.6217 27.2459 56.686 27.2224C56.7235 27.2172 56.7597 27.2035 56.7923 27.182C56.8248 27.1606 56.8531 27.1318 56.8752 27.0977C56.9255 27.0341 56.9531 26.9521 56.9527 26.8674C56.9442 26.7972 56.9201 26.7306 56.8825 26.6736C56.8449 26.6166 56.7951 26.571 56.7376 26.5411ZM56.2042 27.3184L56.015 27.0785L55.9031 26.9825L55.972 26.9058L56.0408 26.8482L56.2128 26.7234L56.2042 27.3184Z" fill="#813C8F"/>
<path d="M57.3914 27.0287C57.4354 27.0334 57.4798 27.0273 57.5214 27.0107C57.5631 26.9941 57.6009 26.9675 57.6323 26.9328C57.6906 26.855 57.7212 26.7559 57.7183 26.6545C57.7311 26.5946 57.7311 26.5321 57.7183 26.4722C57.698 26.4039 57.6587 26.3447 57.6061 26.3033C57.5534 26.2618 57.4902 26.2403 57.4258 26.2419C57.381 26.2406 57.3365 26.2493 57.2947 26.2676C57.253 26.2858 57.215 26.3132 57.183 26.348C57.1509 26.3829 57.1254 26.4246 57.108 26.4707C57.0906 26.5167 57.0817 26.5661 57.0817 26.6161C57.0778 26.6689 57.0842 26.722 57.1006 26.7717C57.1169 26.8214 57.1428 26.8666 57.1763 26.904C57.2316 26.974 57.3083 27.0185 57.3914 27.0287ZM57.3914 26.4914H57.4602C57.4811 26.5097 57.4981 26.533 57.51 26.5596C57.5219 26.5861 57.5284 26.6152 57.529 26.6449C57.527 26.6752 57.5168 26.7042 57.5 26.7281C57.4831 26.752 57.4603 26.7698 57.4344 26.7793C57.3985 26.7777 57.3645 26.7604 57.3397 26.7313C57.3279 26.694 57.3279 26.6534 57.3397 26.6161C57.3397 26.5393 57.3828 26.4914 57.4688 26.4722L57.3914 26.4914Z" fill="#813C8F"/>
<path d="M57.0557 27.0083V27.3633C57.267 27.5005 57.4633 27.6648 57.6406 27.8527L57.8385 28.0254V27.7663C57.6107 27.474 57.3472 27.2188 57.0557 27.0083Z" fill="#813C8F"/>
<path d="M32.168 27.7998L32.5895 27.963L32.7616 27.7998L32.3314 27.6367L32.168 27.7998Z" fill="#813C8F"/>
<path d="M32.3061 27.3834V26.6637H32.0824C32.0824 26.7309 32.0824 26.8365 31.962 26.8365H31.3426V26.491H32.3061V26.2031H28.9683V26.491H29.5275V27.1339H30.0092C30.0092 27.1339 30.1469 27.0859 30.1813 27.0092V27.2203C30.1824 27.2468 30.1789 27.2732 30.1708 27.2982C30.1628 27.3231 30.1505 27.3461 30.1345 27.3657C30.1185 27.3853 30.0992 27.4012 30.0777 27.4125C30.0562 27.4237 30.0329 27.4302 30.0092 27.4314H29.3038C29.3038 27.4314 29.2178 27.4314 29.2178 27.2203V26.6253H28.9683V27.393C28.9683 27.4602 28.9683 27.6809 29.1833 27.6809H30.1382C30.2091 27.6719 30.2748 27.6351 30.3237 27.5772C30.3725 27.5192 30.4013 27.4437 30.4049 27.3642V26.6253H30.1813C30.1813 26.7405 30.1813 26.8172 30.0694 26.846H29.7855V26.4526H30.6028V27.6809H30.8867V26.4526H31.1276V27.6809H31.9878C32.0263 27.6849 32.065 27.6803 32.1019 27.6674C32.1387 27.6546 32.1729 27.6337 32.2025 27.6061C32.2321 27.5784 32.2565 27.5445 32.2743 27.5063C32.292 27.4681 32.3029 27.4263 32.3061 27.3834ZM32.0824 27.2587C32.0836 27.3073 32.0697 27.3548 32.043 27.3933C32.0164 27.4317 31.9787 27.4588 31.9362 27.4698H31.3426V27.0955H31.9362C31.9362 27.0955 32.0394 27.0284 32.0824 26.9612V27.2587Z" fill="#813C8F"/>
<path d="M33.183 26.8477H32.6152V27.1835H33.183V26.8477Z" fill="#813C8F"/>
<path d="M33.5015 26.491H34.4306V26.6637H33.5015V27.345C33.5015 27.5658 33.6219 27.7193 33.8112 27.7193H34.6714V26.491H34.8779V27.7193H35.1274V26.2031H33.5187L33.5015 26.491ZM34.4306 27.5178H33.8628C33.7767 27.5178 33.7251 27.3834 33.7251 27.2587V26.9228H34.4306V27.5178Z" fill="#813C8F"/>
<path d="M36.3406 26.491H37.4934V26.6637H37.1493C37.1483 26.6798 37.1443 26.6954 37.1375 26.7097C37.1308 26.7239 37.1214 26.7364 37.1101 26.7463C37.0987 26.7563 37.0856 26.7635 37.0716 26.7674C37.0577 26.7714 37.0431 26.772 37.0289 26.7693C37.0034 26.7674 36.9794 26.7559 36.9606 26.7367C36.9418 26.7176 36.9295 26.6918 36.9256 26.6637H36.3406V27.3834C36.3406 27.4602 36.3407 27.6905 36.5213 27.7193H36.9858V27.4698H36.6676C36.6341 27.4628 36.6042 27.4423 36.5836 27.4121C36.5629 27.382 36.553 27.3444 36.5557 27.3067V26.9228H36.8654V27.1339H37.1493V26.9612C37.1493 26.8844 37.4504 26.894 37.4676 26.9612V27.7193H37.7171V26.491H37.8891V27.7193H38.1472V26.2031H36.332L36.3406 26.491Z" fill="#813C8F"/>
<path d="M35.3687 27.3831L36.0999 27.7189V27.4502L35.3687 27.1336V27.3831Z" fill="#813C8F"/>
<path d="M41.4502 27.3831L42.1814 27.7189V27.4502L41.4502 27.1336V27.3831Z" fill="#813C8F"/>
<path d="M43.5842 26.491H44.0315V26.2031H42.397V26.491H43.3347V26.6637H42.397V27.345C42.397 27.5658 42.5174 27.7193 42.7153 27.7193H43.5755V26.9612H43.7992C43.7992 26.9612 43.8508 26.9612 43.8594 26.9612V27.0859C43.8594 27.1531 43.8594 27.1915 43.7992 27.2107H43.7218V27.4698H43.8853C43.9257 27.4623 43.9634 27.442 43.9939 27.4114C44.0244 27.3808 44.0464 27.3411 44.0573 27.297V26.6157H43.5755L43.5842 26.491ZM43.3605 27.5178H42.7927C42.7067 27.5178 42.6551 27.3834 42.6551 27.2587V26.9228H43.3519V26.9708L43.3605 27.5178Z" fill="#813C8F"/>
<path d="M38.8696 26.491H39.8073V26.6637H38.8696V27.345C38.8696 27.5658 38.9987 27.7193 39.1879 27.7193H40.0482V26.491H40.3493L40.2375 26.7309V26.9036H40.4353C40.5472 26.9036 40.5816 26.99 40.5816 27.2011C40.5816 27.4122 40.5816 27.441 40.4526 27.4506H40.2719V27.7001H40.4697C40.5299 27.7001 40.788 27.7001 40.8139 27.4506C40.8139 26.8844 40.8655 26.7309 40.4956 26.6925L40.5472 26.491H40.9515V27.7097H41.2095V26.2031H38.8955L38.8696 26.491ZM39.8073 27.5178H39.2395C39.1535 27.5178 39.1019 27.3834 39.1019 27.2587V26.9228H39.8073V27.5178Z" fill="#813C8F"/>
</svg>
