<svg width="80" height="35" viewBox="0 0 80 35" fill="none" xmlns="http://www.w3.org/2000/svg">
<path d="M77.4802 0H2.51984C1.12817 0 0 1.5706 0 3.50803V31.492C0 33.4294 1.12817 35 2.51984 35H77.4802C78.8718 35 80 33.4294 80 31.492V3.50803C80 1.5706 78.8718 0 77.4802 0Z" fill="white"/>
<path d="M35.9622 11.2495L31.1361 24.0889H28.0219L25.6476 13.8405C25.6269 13.6013 25.551 13.3722 25.4274 13.1754C25.3038 12.9787 25.1366 12.821 24.9421 12.7177C24.0073 12.2123 23.0187 11.8415 22 11.6142L22.0688 11.2399H27.1358C27.4658 11.24 27.7849 11.3716 28.0357 11.6108C28.2865 11.8501 28.4524 12.1814 28.5037 12.545L29.7597 19.9819L32.8653 11.2399L35.9622 11.2495ZM48.2986 19.8859C48.2986 16.4985 44.0918 16.3066 44.1262 14.8C44.1262 14.3394 44.5306 13.8405 45.3908 13.7253C46.3966 13.6129 47.4109 13.8087 48.3244 14.2915L48.8491 11.5758C47.9577 11.2023 47.0141 11.0074 46.0618 11C43.1197 11 41.0464 12.7465 41.0292 15.2511C41.0292 17.1031 42.5089 18.1298 43.6101 18.744C44.7112 19.3581 45.1586 19.7803 45.15 20.3465C45.15 21.2005 44.2295 21.5844 43.3692 21.6036C42.3057 21.6246 41.2548 21.3439 40.3152 20.7879L39.7732 23.6091C40.8307 24.06 41.9532 24.2909 43.0853 24.2904C46.2167 24.2904 48.2469 22.5632 48.2469 19.8955L48.2986 19.8859ZM55.9894 24.0889H58.7423L56.4109 11.2591H53.8731C53.5989 11.2571 53.3305 11.3477 53.1033 11.519C52.8761 11.6902 52.7006 11.9342 52.5999 12.2187L48.1437 24.0889H51.2493L51.8687 22.1697H55.6883L55.9894 24.0889ZM52.6687 19.5308L54.2344 14.7329L55.1463 19.5308H52.6687ZM40.1346 11.2399L37.7516 24.0889H34.7751L37.2354 11.2495L40.1346 11.2399Z" fill="url(#paint0_linear)"/>
<defs>
<linearGradient id="paint0_linear" x1="19.4866" y1="21.2699" x2="56.5458" y2="21.2699" gradientUnits="userSpaceOnUse">
<stop stop-color="#242459"/>
<stop offset="1" stop-color="#224F9C"/>
</linearGradient>
</defs>
</svg>
