<svg width="32" height="34" viewBox="0 0 32 34" fill="none" xmlns="http://www.w3.org/2000/svg">
<path d="M30.915 15.4156C30.915 9.18095 27.1485 3.55977 21.3717 1.17386C15.5951 -1.21206 8.94591 0.106613 4.5244 4.51556C-0.780681 9.81005 -1.50665 18.1391 2.80362 24.2666C7.11364 30.394 15.2143 32.5499 22.0131 29.3785L21.8815 32.4923C21.8815 32.5 21.8812 32.5076 21.8812 32.5153C21.8805 32.8077 22.0502 33.0736 22.3159 33.1972C22.581 33.3195 22.8935 33.2746 23.1128 33.0823L26.0331 30.5734L28.9545 33.0831C29.1735 33.2749 29.4858 33.3198 29.7504 33.1972C30.0161 33.0736 30.1858 32.8074 30.185 32.515C30.185 32.5076 30.185 32.5 30.1848 32.4923L29.9048 25.8665C32.3312 23.8065 32.7017 20.2073 30.746 17.6986C30.8583 16.943 30.9147 16.1797 30.915 15.4156ZM15.4558 29.7491C7.52973 29.7491 1.08153 23.3195 1.08153 15.4156C1.08153 7.51208 7.52973 1.08221 15.4558 1.08221C23.3819 1.08221 29.8301 7.51208 29.8301 15.4156C29.8301 15.8477 29.8097 16.2803 29.7716 16.71C28.7151 15.8572 27.3966 15.3924 26.0374 15.3937C25.4857 15.3948 24.9366 15.4714 24.4059 15.6211V11.2861C24.404 11.0508 24.2507 10.843 24.0255 10.7714L16.1672 8.24471C16.0586 8.21011 15.9418 8.21011 15.8332 8.24471L7.97177 10.7714C7.74638 10.843 7.59276 11.0505 7.59064 11.2861V21.9792C7.5925 22.2147 7.74585 22.4223 7.97098 22.4939L15.8293 25.0206C15.9381 25.0554 16.0552 25.0554 16.1638 25.0206L20.5207 23.6198C20.883 24.4868 21.445 25.2567 22.1615 25.8668L22.0653 28.1462C20.0222 29.1992 17.7558 29.7491 15.4558 29.7491ZM20.0707 21.3435C20.0699 21.7613 20.1133 22.178 20.2002 22.5869L16.2695 23.8503V14.2937L23.321 12.0288V16.049C21.3166 17.0544 20.0569 19.1062 20.0707 21.3435ZM8.6755 12.029L15.1846 14.1194V23.6758L8.6755 21.5854V12.029ZM15.9983 13.2445L9.90893 11.2861L15.9983 9.32806L22.0876 11.2861L15.9983 13.2445ZM29.0676 31.7526L26.5361 29.5774C26.2538 29.3115 25.8125 29.3115 25.5302 29.5774L22.9987 31.7526L23.2169 26.5875C24.9758 27.5285 27.0904 27.5285 28.8494 26.5875L29.0676 31.7526ZM26.0331 26.2114C23.3369 26.2114 21.1513 24.032 21.1513 21.3435C21.1513 18.6549 23.3369 16.4755 26.0331 16.4755C28.7294 16.4755 30.915 18.6549 30.915 21.3435C30.9121 24.0307 28.7281 26.2085 26.0331 26.2114Z" fill="#FF0000"/>
<path d="M28.8939 19.4936L25.6877 22.6945L24.0585 21.052C23.847 20.843 23.5063 20.843 23.2948 21.052C23.0833 21.2613 23.0799 21.6013 23.2871 21.8145L25.3003 23.86C25.4002 23.9669 25.5382 24.0304 25.6845 24.0365H25.6853C25.8313 24.0307 25.9694 23.968 26.0696 23.8619L29.6613 20.2678C29.8757 20.0561 29.8773 19.7114 29.6653 19.4976C29.4535 19.2835 29.108 19.2819 28.8939 19.4936Z" fill="#FF0000"/>
</svg>
