<svg width="36" height="31" viewBox="0 0 36 31" fill="none" xmlns="http://www.w3.org/2000/svg">
<path d="M29.3769 8.95541H26.79V6.19929C26.79 4.6199 26.1958 3.11535 25.1167 1.96295C24.9161 1.74865 24.5798 1.73768 24.3657 1.93828C24.1514 2.13888 24.1404 2.47512 24.341 2.68927C25.2349 3.64406 25.7273 4.89062 25.7273 6.19929V8.95541H14.9146C11.4963 8.95541 8.71534 11.7365 8.71534 15.1548V17.0557H7.88305C7.55195 17.0557 7.24059 17.1847 7.00636 17.4189L4.18611 20.2391V17.402C4.18611 16.9674 3.95341 16.559 3.57867 16.3362C2.0268 15.4135 1.0627 13.721 1.0627 11.9192V6.19929C1.0627 3.36696 3.36695 1.0627 6.19929 1.0627H20.5907C21.2546 1.0627 21.9003 1.18729 22.5099 1.43312C22.7821 1.5427 23.0917 1.4111 23.2015 1.13899C23.3112 0.866823 23.1795 0.557198 22.9073 0.447482C22.1709 0.150504 21.3914 0 20.5907 0H6.19929C2.78099 0 0 2.78099 0 6.19929V11.9192C0 14.0939 1.16318 16.1365 3.03558 17.2497C3.08978 17.2819 3.12341 17.3403 3.12341 17.4021V20.4957C3.12341 20.8839 3.35514 21.2307 3.71382 21.3794C3.9532 21.4944 4.44195 21.4778 4.75616 21.1721L7.75777 18.1704C7.79126 18.1369 7.83573 18.1185 7.88305 18.1185H8.71534V20.8746C8.71534 21.7114 8.87932 22.5233 9.2027 23.2879C9.31701 23.5581 9.62879 23.6844 9.89908 23.5703C10.1694 23.456 10.2958 23.1442 10.1815 22.8739C9.91388 22.241 9.77811 21.5684 9.77811 20.8747V15.1548C9.77811 12.3224 12.0824 10.0182 14.9147 10.0182H29.3769C32.2093 10.0182 34.5135 12.3224 34.5135 15.1548V20.8747C34.5135 22.6835 33.5886 24.3253 32.0393 25.2665C31.6742 25.4884 31.4473 25.8933 31.4473 26.3231V29.7888L28.0329 26.3743C27.7988 26.1402 27.4874 26.0112 27.1562 26.0112H14.9146C13.6256 26.0112 12.393 25.5318 11.4438 24.6613C11.2276 24.463 10.8915 24.4775 10.693 24.6937C10.4946 24.91 10.5092 25.2461 10.7255 25.4445C11.8712 26.4953 13.3589 27.074 14.9146 27.074H27.1561C27.2027 27.074 27.2484 27.0929 27.2813 27.1259L30.8771 30.7217C31.1548 30.935 31.4262 31.1 31.9194 30.9289C32.278 30.7803 32.5098 30.4335 32.5098 30.0453V26.3231C32.5098 26.262 32.5409 26.2051 32.5909 26.1747C34.4603 25.0391 35.5762 23.0578 35.5762 20.8746V15.1548C35.5762 11.7365 32.7952 8.95541 29.3769 8.95541Z" fill="#FF0000"/>
<path d="M20.6458 21.6277C20.3342 21.1874 19.7666 20.8922 19.1192 20.8922C18.1376 20.8922 17.3391 21.5707 17.3391 22.4048C17.3391 23.2387 18.1377 23.9172 19.1192 23.9172C19.9805 23.9172 20.7007 23.3948 20.8644 22.7033C21.6482 22.3732 22.2652 21.7153 22.533 20.8831C23.309 20.7064 23.8901 20.0113 23.8901 19.1825V17.2664C23.8901 16.4663 23.3485 15.7908 22.6128 15.586C22.4397 14.5187 21.9152 13.5395 21.1112 12.7994C20.2141 11.9736 19.0481 11.5188 17.8281 11.5188C15.4273 11.5188 13.4193 13.2481 13.0429 15.586C12.3075 15.791 11.7661 16.4665 11.7661 17.2664V19.1824C11.7661 20.1444 12.5487 20.927 13.5107 20.927C14.4726 20.927 15.2552 20.1444 15.2552 19.1824V17.2664C15.2552 16.5163 14.7793 15.8753 14.1137 15.6293C14.4582 13.8689 15.997 12.5815 17.8281 12.5815C19.636 12.5815 21.1942 13.8914 21.5412 15.6299C20.8762 15.8762 20.401 16.5168 20.401 17.2664V19.1824C20.401 19.8914 20.8264 20.5026 21.4352 20.7752C21.2663 21.1382 20.9884 21.4347 20.6458 21.6277ZM19.1192 22.8546C18.6964 22.8546 18.4018 22.6176 18.4018 22.4048C18.4018 22.1921 18.6964 21.955 19.1192 21.955C19.542 21.955 19.8367 22.1921 19.8367 22.4048C19.8367 22.6176 19.5419 22.8546 19.1192 22.8546ZM14.1925 19.1826C14.1925 19.5585 13.8866 19.8644 13.5107 19.8644C13.1347 19.8644 12.8288 19.5585 12.8288 19.1826V17.2665C12.8288 16.8905 13.1347 16.5847 13.5107 16.5847C13.8866 16.5847 14.1925 16.8905 14.1925 17.2665V19.1826ZM21.4637 17.2665C21.4637 16.8905 21.7696 16.5847 22.1455 16.5847C22.5215 16.5847 22.8274 16.8905 22.8274 17.2665V19.1826C22.8274 19.5585 22.5215 19.8644 22.1455 19.8644C21.7696 19.8644 21.4637 19.5585 21.4637 19.1826V17.2665Z" fill="#FF0000"/>
<path d="M25.2702 14.5302H29.5026C29.7961 14.5302 30.034 14.2924 30.034 13.9989C30.034 13.7054 29.7961 13.4675 29.5026 13.4675H25.2702C24.9768 13.4675 24.7389 13.7054 24.7389 13.9989C24.7389 14.2924 24.9768 14.5302 25.2702 14.5302Z" fill="#FF0000"/>
<path d="M25.2702 16.9089H28.5337C28.8272 16.9089 29.0651 16.671 29.0651 16.3775C29.0651 16.084 28.8272 15.8462 28.5337 15.8462H25.2702C24.9768 15.8462 24.7389 16.084 24.7389 16.3775C24.7389 16.671 24.9768 16.9089 25.2702 16.9089Z" fill="#FF0000"/>
<path d="M5.22762 7.74235C5.66514 7.74235 6.01982 7.38767 6.01982 6.95016C6.01982 6.51264 5.66514 6.15796 5.22762 6.15796C4.7901 6.15796 4.43542 6.51264 4.43542 6.95016C4.43542 7.38767 4.7901 7.74235 5.22762 7.74235Z" fill="#FF0000"/>
<path d="M7.62716 7.74235C8.06467 7.74235 8.41935 7.38767 8.41935 6.95016C8.41935 6.51264 8.06467 6.15796 7.62716 6.15796C7.18964 6.15796 6.83496 6.51264 6.83496 6.95016C6.83496 7.38767 7.18964 7.74235 7.62716 7.74235Z" fill="#FF0000"/>
<path d="M10.0128 7.74235C10.4503 7.74235 10.805 7.38767 10.805 6.95016C10.805 6.51264 10.4503 6.15796 10.0128 6.15796C9.57526 6.15796 9.22058 6.51264 9.22058 6.95016C9.22058 7.38767 9.57526 7.74235 10.0128 7.74235Z" fill="#FF0000"/>
</svg>
