<svg width="22" height="37" viewBox="0 0 22 37" fill="none" xmlns="http://www.w3.org/2000/svg">
<path fill-rule="evenodd" clip-rule="evenodd" d="M13.4597 1.0277C13.6611 1.10163 13.7851 1.30767 13.758 1.52354L12.2227 13.7822H20.8058C20.9682 13.7822 21.1184 13.8697 21.2005 14.0122C21.2825 14.1546 21.2841 14.3305 21.2046 14.4745L9.44927 35.7626C9.3432 35.9547 9.119 36.0447 8.91234 35.9783C8.70568 35.9118 8.57331 35.7071 8.59533 35.4879L9.87036 22.7995H1.45741C1.29411 22.7995 1.14321 22.711 1.06145 22.5674C0.9797 22.4237 0.979504 22.2467 1.06094 22.1028L12.5876 1.74434C12.591 1.73835 12.5945 1.73243 12.5982 1.7266L12.9184 1.21531C13.0333 1.03172 13.2583 0.953763 13.4597 1.0277ZM12.571 3.63774L2.24828 21.8698H10.3769C10.5063 21.8698 10.6296 21.9255 10.7163 22.0231C10.803 22.1207 10.845 22.2511 10.8319 22.3819L9.72912 33.3561L20.0246 14.7118H11.7033C11.572 14.7118 11.4469 14.6544 11.3601 14.5542C11.2733 14.4541 11.233 14.3208 11.2496 14.1883L12.571 3.63774Z" fill="#FF0000" stroke="#FF0000" stroke-width="0.2" stroke-linejoin="round"/>
</svg>
