<svg width="32" height="32" viewBox="0 0 32 32" fill="none" xmlns="http://www.w3.org/2000/svg">
<path d="M27.3137 4.68625C24.2917 1.66431 20.2738 0 16 0C11.7263 0 7.70831 1.66431 4.68631 4.68625C1.66425 7.70831 0 11.7263 0 16C0 20.1968 1.613 24.1629 4.542 27.1676C4.72262 27.3529 5.01944 27.3568 5.20481 27.176C5.39019 26.9953 5.39394 26.6986 5.21325 26.5132C2.456 23.6846 0.937438 19.9509 0.937438 16C0.937438 11.9766 2.50425 8.19413 5.34919 5.34913C8.19413 2.50419 11.9767 0.937438 16 0.937438C20.0233 0.937438 23.8059 2.50419 26.6508 5.34913C29.4958 8.19406 31.0626 11.9766 31.0626 16C31.0626 20.0234 29.4958 23.8059 26.6508 26.6509C23.8059 29.4958 20.0233 31.0626 16 31.0626C12.6299 31.0626 9.44388 29.9748 6.78619 27.9168C6.5815 27.7583 6.28706 27.7956 6.12863 28.0004C5.97013 28.2051 6.00756 28.4994 6.21225 28.6579C9.03569 30.8443 12.4202 32 16 32C20.2738 32 24.2917 30.3357 27.3137 27.3138C30.3358 24.2917 32 20.2738 32 16C32 11.7263 30.3358 7.70831 27.3137 4.68625Z" fill="#FF0000"/>
<path d="M5.01611 16C5.01611 22.0554 9.94261 26.9819 15.9981 26.9819C22.0535 26.9819 26.98 22.0554 26.98 16C26.98 14.2783 26.5805 12.6486 25.8712 11.1968L26.1797 10.8454C27.0929 9.80713 26.9913 8.21932 25.9529 7.30594C25.0057 6.47275 23.6012 6.48482 22.6684 7.28207C20.818 5.86282 18.5049 5.01807 15.9981 5.01807C9.94261 5.01807 5.01611 9.94457 5.01611 16ZM15.9981 5.95557C18.2589 5.95557 20.3471 6.70713 22.0275 7.97257L19.5242 10.8252C19.3534 11.0198 19.3727 11.3159 19.5672 11.4866C19.7619 11.6574 20.058 11.6381 20.2287 11.4435L23.1174 8.15188C23.6892 7.50163 24.6836 7.43807 25.3337 8.00988C25.9839 8.58182 26.0476 9.57607 25.4754 10.2266L16.3848 20.5814C16.0868 20.9203 15.657 21.1146 15.2057 21.1146H15.1956C14.7405 21.1118 14.3096 20.9119 14.0133 20.5663L9.92893 15.8011C9.65593 15.4827 9.52336 15.0769 9.55555 14.6587C9.58774 14.2404 9.7808 13.8598 10.0994 13.5868C10.4178 13.3138 10.8233 13.181 11.2417 13.2134C11.66 13.2456 12.0407 13.4387 12.3137 13.7572L14.8697 16.7393C14.9581 16.8424 15.087 16.9021 15.2228 16.9029C15.3614 16.9027 15.4882 16.8456 15.5778 16.7434L18.7899 13.0832C18.9606 12.8886 18.9414 12.5925 18.7468 12.4218C18.5522 12.251 18.2561 12.2703 18.0854 12.4649L15.2297 15.7188L13.0254 13.1471C12.5895 12.6385 11.9816 12.3301 11.3137 12.2787C10.6459 12.2274 9.99774 12.4391 9.48924 12.8751C8.98061 13.311 8.67224 13.9189 8.6208 14.5868C8.56943 15.2548 8.78118 15.9026 9.21718 16.4113L13.3016 21.1764C13.7746 21.7283 14.4628 22.0474 15.1894 22.0521H15.2057C15.9264 22.0521 16.6127 21.7418 17.089 21.2003L25.1962 11.9656C25.7402 13.201 26.0425 14.5659 26.0425 16.0001C26.0425 21.5386 21.5366 26.0445 15.9981 26.0445C10.4595 26.0445 5.95361 21.5385 5.95361 16C5.95361 10.4615 10.4595 5.95557 15.9981 5.95557Z" fill="#FF0000"/>
<path d="M16.0009 3.62598C16.2597 3.62598 16.4696 3.41611 16.4696 3.15723C16.4696 2.89834 16.2597 2.68848 16.0009 2.68848C15.742 2.68848 15.5321 2.89834 15.5321 3.15723C15.5321 3.41611 15.742 3.62598 16.0009 3.62598Z" fill="#FF0000"/>
<path d="M16.0009 29.3115C16.2597 29.3115 16.4696 29.1017 16.4696 28.8428C16.4696 28.5839 16.2597 28.374 16.0009 28.374C15.742 28.374 15.5321 28.5839 15.5321 28.8428C15.5321 29.1017 15.742 29.3115 16.0009 29.3115Z" fill="#FF0000"/>
<path d="M9.81385 5.28369C10.038 5.15425 10.1148 4.86763 9.98541 4.64338C9.85597 4.41919 9.56934 4.34238 9.34516 4.47181C9.12097 4.60125 9.04416 4.88788 9.1736 5.11213C9.30297 5.33631 9.58966 5.41313 9.81385 5.28369Z" fill="#FF0000"/>
<path d="M22.1881 26.7164C21.9639 26.8459 21.8871 27.1325 22.0165 27.3568C22.1459 27.5809 22.4326 27.6578 22.6567 27.5283C22.8809 27.3989 22.9577 27.1123 22.8283 26.888C22.6989 26.6638 22.4122 26.587 22.1881 26.7164Z" fill="#FF0000"/>
<path d="M5.11213 9.17274C4.88794 9.0433 4.60125 9.12012 4.47181 9.3443C4.34238 9.56849 4.41919 9.85518 4.64338 9.98455C4.86756 10.114 5.15425 10.0372 5.28369 9.81299C5.41313 9.5888 5.33631 9.30218 5.11213 9.17274Z" fill="#FF0000"/>
<path d="M26.8862 22.8273C27.1104 22.9568 27.397 22.88 27.5265 22.6558C27.6559 22.4316 27.5791 22.1449 27.3549 22.0155C27.1307 21.8861 26.844 21.9629 26.7146 22.1871C26.5852 22.4113 26.662 22.6979 26.8862 22.8273Z" fill="#FF0000"/>
<path d="M2.68933 16C2.68933 16.2589 2.89921 16.4688 3.15808 16.4688C3.41696 16.4688 3.62683 16.2589 3.62683 16C3.62683 15.7411 3.41696 15.5312 3.15808 15.5312C2.89921 15.5312 2.68933 15.7411 2.68933 16Z" fill="#FF0000"/>
<path d="M28.8438 16.4688C29.1026 16.4688 29.3125 16.2589 29.3125 16C29.3125 15.7411 29.1026 15.5312 28.8438 15.5312C28.5849 15.5312 28.375 15.7411 28.375 16C28.375 16.2589 28.5849 16.4688 28.8438 16.4688Z" fill="#FF0000"/>
<path d="M4.47181 22.6558C4.60125 22.88 4.88794 22.9568 5.11213 22.8274C5.33631 22.698 5.41313 22.4113 5.28369 22.1871C5.15425 21.9629 4.86756 21.8861 4.64338 22.0155C4.41919 22.145 4.34238 22.4316 4.47181 22.6558Z" fill="#FF0000"/>
<path d="M9.17359 26.888C9.04416 27.1122 9.12097 27.3989 9.34516 27.5283C9.56935 27.6578 9.85603 27.5809 9.98541 27.3568C10.1148 27.1326 10.038 26.8459 9.81385 26.7164C9.58966 26.587 9.30303 26.6638 9.17359 26.888Z" fill="#FF0000"/>
<path d="M22.8283 5.11213C22.9577 4.88794 22.8809 4.60125 22.6567 4.47181C22.4326 4.34238 22.1459 4.41919 22.0165 4.64338C21.8871 4.86756 21.9639 5.15425 22.1881 5.28369C22.4122 5.41313 22.6989 5.33631 22.8283 5.11213Z" fill="#FF0000"/>
</svg>
