<svg width="35" height="31" viewBox="0 0 35 31" fill="none" xmlns="http://www.w3.org/2000/svg">
<path fill-rule="evenodd" clip-rule="evenodd" d="M26.3841 0L34.5069 3.74896L34.5651 4.02688C36.7478 14.4554 30.2015 19.9474 26.5938 21.3904L26.3693 21.4802L26.1494 21.3797C21.8698 19.4233 19.6484 16.1012 18.6197 12.7662C17.5964 9.44867 17.7467 6.10615 18.2044 4.02149L18.2645 3.74752L26.3841 0ZM26.3841 1.24346L19.2509 4.53573C18.8737 6.47651 18.7853 9.4725 19.6986 12.4334C20.6323 15.4604 22.6065 18.4386 26.3969 20.2492C29.6504 18.8323 35.3443 13.8936 33.5161 4.5351L26.3841 1.24346ZM30.9022 7.56912C31.1162 7.79578 31.106 8.15306 30.8794 8.36712L25.5982 13.3549C25.4757 13.4705 25.3081 13.5255 25.141 13.5047C24.9738 13.4839 24.8247 13.3897 24.7343 13.2476L22.6805 10.0202C22.5131 9.75716 22.5907 9.40825 22.8537 9.24087C23.1167 9.07349 23.4656 9.15103 23.633 9.41405L25.3199 12.0648L30.1042 7.54632C30.3308 7.33225 30.6881 7.34246 30.9022 7.56912Z" fill="#FF0000"/>
<path fill-rule="evenodd" clip-rule="evenodd" d="M0 7.36992C0 7.05816 0.252737 6.80542 0.564504 6.80542H18.1685C18.4803 6.80542 18.733 7.05816 18.733 7.36992C18.733 7.68169 18.4803 7.93443 18.1685 7.93443H1.12901V29.1038H32.8608V17.5568C32.8608 17.245 33.1135 16.9922 33.4253 16.9922C33.737 16.9922 33.9898 17.245 33.9898 17.5568V29.6683C33.9898 29.9801 33.737 30.2328 33.4253 30.2328H0.564504C0.252737 30.2328 0 29.9801 0 29.6683V7.36992Z" fill="#FF0000"/>
<path fill-rule="evenodd" clip-rule="evenodd" d="M0 11.1839C0 10.8721 0.252737 10.6194 0.564504 10.6194H14.3543C14.6661 10.6194 14.9188 10.8721 14.9188 11.1839C14.9188 11.4957 14.6661 11.7484 14.3543 11.7484H0.564504C0.252737 11.7484 0 11.4957 0 11.1839Z" fill="#FF0000"/>
<path fill-rule="evenodd" clip-rule="evenodd" d="M0 15.2916C0 14.9798 0.252737 14.7271 0.564504 14.7271H16.4081C16.7199 14.7271 16.9726 14.9798 16.9726 15.2916C16.9726 15.6033 16.7199 15.8561 16.4081 15.8561H0.564504C0.252737 15.8561 0 15.6033 0 15.2916Z" fill="#FF0000"/>
<path fill-rule="evenodd" clip-rule="evenodd" d="M3.52039 20.573C3.52039 20.2613 3.77312 20.0085 4.08489 20.0085H9.95288C10.2647 20.0085 10.5174 20.2613 10.5174 20.573C10.5174 20.8848 10.2647 21.1376 9.95288 21.1376H4.08489C3.77312 21.1376 3.52039 20.8848 3.52039 20.573Z" fill="#FF0000"/>
</svg>
